<svg xmlns="http://www.w3.org/2000/svg" viewBox="0 0 500 500" width="500" height="500" preserveAspectRatio="xMidYMid meet" style="width: 100%; height: 100%; transform: translate3d(0px, 0px, 0px);"><defs><clipPath id="__lottie_element_382"><rect width="500" height="500" x="0" y="0"></rect></clipPath></defs><g clip-path="url(#__lottie_element_382)"><g transform="matrix(1,0,0,1,138.73199462890625,93.3270034790039)" opacity="1" style="display: block;"><g opacity="1" transform="matrix(1,0,0,1,111.46700286865234,196.25999450683594)"><path fill="rgb(12,21,28)" fill-opacity="1" d=" M-111.21700286865234,-84.0770034790039 C-111.21700286865234,-84.0770034790039 -110.91100311279297,173.5709991455078 -110.91100311279297,173.5709991455078 C-110.91100311279297,173.5709991455078 -1.746999979019165,196.00999450683594 -1.746999979019165,196.00999450683594 C-1.746999979019165,196.00999450683594 111.21700286865234,173.7100067138672 111.21700286865234,173.7100067138672 C111.21700286865234,173.7100067138672 111.21700286865234,-56.262001037597656 111.21700286865234,-56.262001037597656 C111.21700286865234,-56.262001037597656 75.63700103759766,-143.21299743652344 75.63700103759766,-143.21299743652344 C75.63700103759766,-143.21299743652344 12.371999740600586,-196.00999450683594 12.371999740600586,-196.00999450683594 C12.371999740600586,-196.00999450683594 -33.888999938964844,-190.63499450683594 -33.888999938964844,-190.63499450683594 C-33.888999938964844,-190.63499450683594 -90.6760025024414,-138.4530029296875 -90.6760025024414,-138.4530029296875 C-90.6760025024414,-138.4530029296875 -111.21700286865234,-84.0770034790039 -111.21700286865234,-84.0770034790039z"></path></g></g><g transform="matrix(1,0,0,1,191.98001098632812,363.97698974609375)" opacity="1" style="display: block;"><g opacity="1" transform="matrix(1,0,0,1,58.749000549316406,52.85300064086914)"><path fill="rgb(255,255,255)" fill-opacity="1" d=" M49.479000091552734,-22.68899917602539 C41.930999755859375,-7.73199987411499 27.41699981689453,7.224999904632568 -0.44600000977516174,7.224999904632568 C-28.309999465942383,7.224999904632568 -42.823001861572266,-7.668000221252441 -50.369998931884766,-22.56100082397461 C-57.91699981689453,-37.45500183105469 -58.499000549316406,-52.34700012207031 -58.499000549316406,-52.34700012207031 C-58.499000549316406,-27.906999588012695 -49.39500045776367,-1.6690000295639038 -37.584999084472656,18.45800018310547 C-25.775999069213867,38.584999084472656 -11.262999534606934,52.60300064086914 -0.44699999690055847,52.60300064086914 C11.409000396728516,52.60300064086914 26.368999481201172,35.82099914550781 38.141998291015625,14.279000282287598 C49.915000915527344,-7.26200008392334 58.499000549316406,-33.56399917602539 57.606998443603516,-52.60300064086914 C57.606998443603516,-52.60300064086914 57.0260009765625,-37.645999908447266 49.479000091552734,-22.68899917602539z"></path></g></g><g transform="matrix(1,0,0,1,91.20500183105469,405.00299072265625)" opacity="1" style="display: block;"><g opacity="1" transform="matrix(1,0,0,1,17.173999786376953,26.16900062561035)"><path fill="rgb(22,132,210)" fill-opacity="1" d=" M-10.897000312805176,-8.736000061035156 C-12.897000312805176,-5.809999942779541 -14.942000389099121,-2.507999897003174 -16.923999786376953,1.1629999876022339 C-6.4029998779296875,10.348999977111816 4.916999816894531,18.643999099731445 16.923999786376953,25.91900062561035 C13.774999618530273,2.3519999980926514 9.579999923706055,-15.869000434875488 4.057000160217285,-25.91900062561035 C4.057000160217285,-25.91900062561035 -3.0739998817443848,-20.176000595092773 -10.897000312805176,-8.736000061035156z"></path></g></g><g transform="matrix(1,0,0,1,375.510986328125,405.00299072265625)" opacity="1" style="display: block;"><g opacity="1" transform="matrix(1,0,0,1,17.173999786376953,26.16900062561035)"><path fill="rgb(22,132,210)" fill-opacity="1" d=" M10.897000312805176,-8.736000061035156 C9.324999809265137,-11.036999702453613 7.783999919891357,-13.095000267028809 6.318999767303467,-14.934000015258789 C4.63700008392334,-17.04599952697754 3.059000015258789,-18.860000610351562 1.6690000295639038,-20.363000869750977 C-1.753000020980835,-24.059999465942383 -4.056000232696533,-25.91900062561035 -4.056000232696533,-25.91900062561035 C-9.579999923706055,-15.869000434875488 -13.77400016784668,2.3519999980926514 -16.923999786376953,25.91900062561035 C-4.915999889373779,18.643999099731445 6.4019999504089355,10.348999977111816 16.923999786376953,1.1629999876022339 C16.496999740600586,0.37299999594688416 16.066999435424805,-0.3930000066757202 15.635000228881836,-1.1480000019073486 C14.062000274658203,-3.9040000438690186 12.465999603271484,-6.440000057220459 10.897000312805176,-8.736000061035156z"></path></g></g><g transform="matrix(1,0,0,1,112.18600463867188,363.97698974609375)" opacity="1" style="display: block;"><g opacity="1" transform="matrix(1,0,0,1,138.3459930419922,64.18900299072266)"><path fill="rgb(49,146,215)" fill-opacity="1" d=" M39.51599884033203,60.58000183105469 C43.597999572753906,59.909000396728516 47.64400100708008,59.13600158691406 51.65399932861328,58.26499938964844 C51.65399932861328,58.26499938964844 51.65299987792969,58.26499938964844 51.65299987792969,58.26499938964844 C71.27100372314453,54 90,47.35599899291992 107.5250015258789,38.64899826049805 M107.5270004272461,38.64899826049805 C112.79299926757812,36.03300094604492 117.96700286865234,33.229000091552734 123.03099822998047,30.239999771118164 C123.66799926757812,29.86400032043457 124.3030014038086,29.485000610351562 124.93599700927734,29.10300064086914 C125.13099670410156,28.985000610351562 125.19200134277344,28.966999053955078 125.2509994506836,28.753999710083008 C125.2959976196289,28.5939998626709 125.2979965209961,28.408000946044922 125.31999969482422,28.243000030517578 C125.3740005493164,27.84600067138672 125.427001953125,27.451000213623047 125.48200225830078,27.054000854492188 C125.677001953125,25.636999130249023 125.87999725341797,24.219999313354492 126.08899688720703,22.80500030517578 C126.49600219726562,20.045000076293945 126.93000030517578,17.290000915527344 127.4000015258789,14.539999961853027 C128.2469940185547,9.583000183105469 129.20199584960938,4.640999794006348 130.3419952392578,-0.257999986410141 C131.3000030517578,-4.370999813079834 132.38600158691406,-8.458999633789062 133.71499633789062,-12.468000411987305 C134.78900146484375,-15.704000473022461 136.01600646972656,-18.9060001373291 137.57899475097656,-21.93899917602539 C137.7469940185547,-22.266000747680664 137.9199981689453,-22.59000015258789 138.0959930419922,-22.913000106811523 C135.51600646972656,-24.229999542236328 132.93600463867188,-25.54800033569336 130.3560028076172,-26.867000579833984 C127.5790023803711,-28.28700065612793 124.8010025024414,-29.704999923706055 122.02300262451172,-31.124000549316406 C119.2490005493164,-32.54199981689453 116.4749984741211,-33.95899963378906 113.70099639892578,-35.37699890136719 C112.25900268554688,-36.112998962402344 110.81900024414062,-36.8489990234375 109.37899780273438,-37.584999084472656 C105.88099670410156,-39.37200164794922 102.38099670410156,-41.1609992980957 98.88300323486328,-42.948001861572266 C98.88300323486328,-42.948001861572266 88.49500274658203,-48.25600051879883 88.49500274658203,-48.25600051879883 C87.33599853515625,-48.847999572753906 86.1760025024414,-49.441001892089844 85.01799774169922,-50.03300094604492 C82.38500213623047,-51.37699890136719 79.75399780273438,-52.722999572753906 77.12100219726562,-54.06800079345703 C73.30899810791016,-56.01499938964844 69.49800109863281,-57.9630012512207 65.68699645996094,-59.9109992980957 C63.183998107910156,-61.189998626708984 60.680999755859375,-62.46799850463867 58.176998138427734,-63.74700164794922 C58.053001403808594,-63.81100082397461 57.928001403808594,-63.874000549316406 57.803001403808594,-63.93899917602539 C58.172000885009766,-56.095001220703125 57.00600051879883,-48.20399856567383 55.25400161743164,-40.57699966430664 C53.23699951171875,-31.797000885009766 50.340999603271484,-23.22100067138672 46.887001037597656,-14.907999992370605 C43.29800033569336,-6.2729997634887695 39.08300018310547,2.11899995803833 34.20399856567383,10.097000122070312 C29.65999984741211,17.525999069213867 24.5310001373291,24.73699951171875 18.357999801635742,30.910999298095703 C15.880999565124512,33.387001037597656 13.213000297546387,35.709999084472656 10.26200008392334,37.608001708984375 C7.910999774932861,39.12200164794922 5.336999893188477,40.39500045776367 2.5829999446868896,40.96500015258789 C-2.8550000190734863,42.090999603271484 -8.128999710083008,39.61600112915039 -12.508000373840332,36.58300018310547 C-18.969999313354492,32.10499954223633 -24.316999435424805,26.042999267578125 -29.006000518798828,19.790000915527344 C-34.52899932861328,12.42300033569336 -39.22800064086914,4.438000202178955 -43.244998931884766,-3.8389999866485596 C-47.284000396728516,-12.159000396728516 -50.6349983215332,-20.82200050354004 -53.18299865722656,-29.711999893188477 C-55.73899841308594,-38.63100051879883 -57.494998931884766,-47.808998107910156 -58.0880012512207,-57.07600021362305 C-58.229000091552734,-59.275001525878906 -58.303001403808594,-61.479000091552734 -58.303001403808594,-63.68299865722656 C-60.11800003051758,-62.75600051879883 -61.93199920654297,-61.82899856567383 -63.74700164794922,-60.902000427246094 C-67.44999694824219,-59.00899887084961 -71.15299987792969,-57.11800003051758 -74.8550033569336,-55.22600173950195 C-74.8550033569336,-55.22600173950195 -84.09700012207031,-50.50299835205078 -84.09700012207031,-50.50299835205078 C-85.2229995727539,-49.928001403808594 -86.3489990234375,-49.35300064086914 -87.4749984741211,-48.77799987792969 C-90.91500091552734,-47.02000045776367 -94.3550033569336,-45.262001037597656 -97.79499816894531,-43.50400161743164 C-100.74400329589844,-41.99700164794922 -103.69400024414062,-40.49100112915039 -106.64399719238281,-38.983001708984375 C-108.77300262451172,-37.89500045776367 -110.9020004272461,-36.80799865722656 -113.03099822998047,-35.720001220703125 C-115.5770034790039,-34.417999267578125 -118.1240005493164,-33.11800003051758 -120.66999816894531,-31.816999435424805 C-123.19999694824219,-30.52400016784668 -125.72899627685547,-29.23200035095215 -128.25799560546875,-27.93899917602539 C-131.21800231933594,-26.427000045776367 -134.177001953125,-24.915000915527344 -137.13600158691406,-23.402999877929688 C-137.45599365234375,-23.239999771118164 -137.7760009765625,-23.076000213623047 -138.0959930419922,-22.913000106811523 C-135.70899963378906,-18.56999969482422 -134.06100463867188,-13.829000473022461 -132.65699768066406,-9.090999603271484 C-130.77499389648438,-2.74399995803833 -129.36900329589844,3.742000102996826 -128.16299438476562,10.248000144958496 C-127.45500183105469,14.067000389099121 -126.8239974975586,17.899999618530273 -126.24600219726562,21.742000579833984 C-125.93800354003906,23.792999267578125 -125.64600372314453,25.84600067138672 -125.36699676513672,27.902000427246094 C-125.33599853515625,28.128999710083008 -125.30500030517578,28.356000900268555 -125.27400207519531,28.583999633789062 C-125.2239990234375,28.959999084472656 -125.16500091552734,28.964000701904297 -124.8489990234375,29.155000686645508 C-124.4489974975586,29.395999908447266 -124.0479965209961,29.636999130249023 -123.64600372314453,29.87700080871582 C-122.86399841308594,30.341999053955078 -122.0780029296875,30.804000854492188 -121.29000091552734,31.26099967956543 C-114.96800231933594,34.93000030517578 -108.47799682617188,38.3129997253418 -101.8489990234375,41.393001556396484 C-95.19599914550781,44.48400115966797 -88.4020004272461,47.270999908447266 -81.49500274658203,49.742000579833984 C-74.5,52.24300003051758 -67.38800048828125,54.41999816894531 -60.191001892089844,56.262001037597656 C-52.904998779296875,58.12799835205078 -45.53099822998047,59.6510009765625 -38.10200119018555,60.82600021362305 C-30.582000732421875,62.01499938964844 -23.0049991607666,62.847999572753906 -15.406999588012695,63.32600021362305 C-7.464000225067139,63.82600021362305 0.5040000081062317,63.93899917602539 8.456999778747559,63.6619987487793 C16.8439998626709,63.369998931884766 25.216999053955078,62.643001556396484 33.53099822998047,61.48699951171875 C35.529998779296875,61.209999084472656 37.525001525878906,60.90700149536133 39.51499938964844,60.58000183105469"></path></g></g><g transform="matrix(1,0,0,1,191.98001098632812,300.2349853515625)" opacity="1" style="display: block;"><g opacity="1" transform="matrix(1,0,0,1,58.303001403808594,62.03499984741211)"><path fill="rgb(133,83,69)" fill-opacity="1" d=" M-0.0010000000474974513,-54.56399917602539 C-12.560999870300293,-54.56399917602539 -24.55900001525879,-57.12699890136719 -35.5620002746582,-61.78499984741211 C-35.5620002746582,-61.78499984741211 -34.209999084472656,-31.361000061035156 -34.209999084472656,-31.361000061035156 C-34.209999084472656,-31.361000061035156 -30.97100067138672,-11.343000411987305 -30.97100067138672,-11.343000411987305 C-30.97100067138672,-11.343000411987305 -30.957000732421875,-11.295000076293945 -30.957000732421875,-11.295000076293945 C-31.649999618530273,-11.062999725341797 -32.33100128173828,-10.82800006866455 -33.00199890136719,-10.588000297546387 C-48.494998931884766,-5.063000202178955 -58.053001403808594,2.2119998931884766 -58.053001403808594,2.2119998931884766 C-58.053001403808594,2.2119998931884766 -57.47200012207031,17.104999542236328 -49.92499923706055,31.999000549316406 C-42.37799835205078,46.89099884033203 -27.86400032043457,61.78499984741211 -0.0010000000474974513,61.78499984741211 C27.863000869750977,61.78499984741211 42.375999450683594,46.827999114990234 49.92399978637695,31.871000289916992 C57.47100067138672,16.913999557495117 58.053001403808594,1.9570000171661377 58.053001403808594,1.9570000171661377 C48.887001037597656,-4.422999858856201 39.83700180053711,-8.854000091552734 31.07200050354004,-11.79699993133545 C31.07200050354004,-11.79699993133545 34.180999755859375,-31.34000015258789 34.180999755859375,-31.34000015258789 C34.180999755859375,-31.34000015258789 35.53799819946289,-61.775001525878906 35.53799819946289,-61.775001525878906 C24.54199981689453,-57.124000549316406 19.454999923706055,-54.82500076293945 6.9029998779296875,-54.82500076293945 C6.9029998779296875,-54.82500076293945 -0.0010000000474974513,-54.56399917602539 -0.0010000000474974513,-54.56399917602539z"></path></g></g><g transform="matrix(0.9998452663421631,-0.017452362924814224,0.017452405765652657,0.9998477101325989,147.32395935058594,100.16840362548828)" opacity="1" style="display: block;"><g opacity="1" transform="matrix(1,0,0,1,97.86000061035156,122.01300048828125)"><path fill="rgb(146,94,80)" fill-opacity="1" d=" M97.24099731445312,-51.95000076293945 C96.87100219726562,-52.83000183105469 84.55000305175781,-81.28299713134766 72.22899627685547,-88.02999877929688 C59.90999984741211,-94.7770004272461 9.163999557495117,-121.177001953125 7.4039998054504395,-121.47000122070312 C5.64300012588501,-121.76300048828125 -51.263999938964844,-106.21700286865234 -53.02399826049805,-104.75 C-54.784000396728516,-103.28299713134766 -97.61100006103516,-41.97600173950195 -97.61100006103516,-41.97600173950195 C-97.61100006103516,-41.97600173950195 -95.44499969482422,10.758999824523926 -95.44499969482422,10.758999824523926 C-95.44499969482422,10.758999824523926 -95.44499969482422,19.142000198364258 -95.44499969482422,19.142000198364258 C-95.44499969482422,24.2189998626709 -95.08499908447266,29.204999923706055 -94.41600036621094,34.084999084472656 C-91.35399627685547,56.439998626708984 -81.53800201416016,76.46199798583984 -67.22699737548828,91.70600128173828 C-58.02399826049805,101.50800323486328 -46.965999603271484,109.33499908447266 -34.66400146484375,114.54199981689453 C-23.660999298095703,119.19999694824219 -11.661999702453613,121.76300048828125 0.8980000019073486,121.76300048828125 C13.449999809265137,121.76300048828125 25.43899917602539,119.20500183105469 36.435001373291016,114.5530014038086 C48.74700164794922,109.34500122070312 59.8129997253418,101.51499938964844 69.02100372314453,91.70700073242188 C83.33300018310547,76.46299743652344 93.14800262451172,56.441001892089844 96.21199798583984,34.08599853515625 C96.87999725341797,29.20599937438965 97.24099731445312,24.219999313354492 97.24099731445312,19.14299964904785 C97.24099731445312,19.14299964904785 97.24099731445312,15.465999603271484 97.24099731445312,15.465999603271484 C97.24099731445312,15.465999603271484 97.61100006103516,-51.06999969482422 97.24099731445312,-51.95000076293945z"></path></g></g><g transform="matrix(0.9998452663421631,-0.017452362924814224,0.017452405765652657,0.9998477101325989,136.75460815429688,66.3462142944336)" opacity="1" style="display: block;"><g opacity="1" transform="matrix(1,0,0,1,112.05899810791016,86.35199737548828)"><path fill="rgb(12,21,28)" fill-opacity="1" d=" M-105.33699798583984,50.0260009765625 C-105.28199768066406,50.00199890136719 -105.22899627685547,49.98400115966797 -105.1729965209961,49.959999084472656 C-105.20899963378906,51.20500183105469 -105.2239990234375,52.441001892089844 -105.19999694824219,53.65599822998047 C-104.98300170898438,64.6760025024414 -102.43699645996094,74.34100341796875 -99.66899871826172,80.4219970703125 C-99.05699920654297,81.76699829101562 -98.43299865722656,82.94200134277344 -97.8219985961914,83.91100311279297 C-97.3010025024414,84.73799896240234 -96.23699951171875,85.15699768066406 -95.19100189208984,85.15499877929688 C-94.1449966430664,85.15299987792969 -93.11799621582031,84.73200225830078 -92.6709976196289,83.87899780273438 C-83.19200134277344,65.79299926757812 -82.96199798583984,47.65299987792969 -85.10399627685547,34.03499984741211 C-85.29299926757812,32.83000183105469 -85.50499725341797,31.673999786376953 -85.72699737548828,30.54400062561035 C-51.98500061035156,20.645000457763672 -30.775999069213867,4.22599983215332 -17.645000457763672,-10.904999732971191 C-9.062000274658203,-20.79400062561035 -3.927000045776367,-30.1299991607666 -0.9950000047683716,-36.73400115966797 C-1.6790000200271606,-33.50199890136719 5.2829999923706055,-34.077999114990234 5.951000213623047,-38.119998931884766 C21.472999572753906,-4.310999870300293 46.428001403808594,13.123000144958496 68.15299987792969,22.099000930786133 C73.02899932861328,24.113000869750977 77.73799896240234,25.697999954223633 82.14399719238281,26.95199966430664 C81.24800109863281,29.639999389648438 80.18699645996094,33.32400131225586 79.22100067138672,37.99599838256836 C77.0780029296875,48.349998474121094 75.40699768066406,63.50699996948242 77.08399963378906,83.16300201416016 C77.15599822998047,84 77.54199981689453,84.73400115966797 78.11799621582031,85.25900268554688 C78.69300079345703,85.78500366210938 79.45600128173828,86.10299682617188 80.28199768066406,86.10299682617188 C80.3290023803711,86.10299682617188 80.3740005493164,86.10199737548828 80.41999816894531,86.0989990234375 C80.46600341796875,86.09700012207031 80.51200103759766,86.09400177001953 80.55899810791016,86.08999633789062 C81.44300079345703,86.01499938964844 82.21199798583984,85.58899688720703 82.74299621582031,84.95999908447266 C83.27300262451172,84.33200073242188 83.56300354003906,83.5009994506836 83.48600006103516,82.61599731445312 C82.72000122070312,73.63899993896484 82.69599914550781,65.64099884033203 83.09600067138672,58.6510009765625 C83.99099731445312,66.7509994506836 86.2699966430664,75.31900024414062 90.75800323486328,83.87999725341797 C91.16600036621094,84.66000366210938 92.06500244140625,85.06199645996094 93.01599884033203,85.12899780273438 C93.10399627685547,85.13500213623047 93.19000244140625,85.15599822998047 93.27799987792969,85.15599822998047 C94.3239974975586,85.15799713134766 95.38899993896484,84.73999786376953 95.91100311279297,83.91300201416016 C99.25599670410156,78.60299682617188 103.46399688720703,67.29900360107422 104.2979965209961,53.986000061035156 C107.47799682617188,57.29800033569336 110.04399871826172,62.459999084472656 110.91000366210938,70.427001953125 C110.91000366210938,70.427001953125 111.22699737548828,31.63800048828125 111.22699737548828,31.63800048828125 C111.22699737548828,31.63800048828125 111.80999755859375,25.003000259399414 110.76000213623047,14.934000015258789 C109.70999908447266,4.864999771118164 107.03199768066406,-8.637999534606934 100.51000213623047,-22.3700008392334 C86.49099731445312,-51.89400100708008 57.62900161743164,-73.83999633789062 25.038000106811523,-81.947998046875 C12.670000076293945,-85.0250015258789 -0.2329999953508377,-86.10299682617188 -13.067999839782715,-84.85199737548828 C-16.0939998626709,-84.55699920654297 -19.114999771118164,-84.13800048828125 -22.125999450683594,-83.5790023803711 C-26.118999481201172,-82.83799743652344 -30.089000701904297,-81.85299682617188 -34.02199935913086,-80.62899780273438 C-47.68899917602539,-76.375 -60.88100051879883,-69.14900207519531 -72.81800079345703,-58.49700164794922 C-75.0479965209961,-56.50699996948242 -77.1449966430664,-54.45500183105469 -79.12799835205078,-52.358001708984375 C-79.34400177001953,-52.12900161743164 -79.56099700927734,-51.89899826049805 -79.7750015258789,-51.66899871826172 C-95.83100128173828,-34.375999450683594 -103.86699676513672,-13.975000381469727 -107.86799621582031,2.8329999446868896 C-108.44300079345703,5.248000144958496 -108.93399810791016,7.589000225067139 -109.3550033569336,9.835000038146973 C-110.427001953125,15.562000274658203 -111.03299713134766,20.672000885009766 -111.3740005493164,24.844999313354492 C-111.77899932861328,29.799999237060547 -111.80899810791016,33.42599868774414 -111.78800201416016,35.176998138427734 C-111.77799987792969,35.94499969482422 -111.76000213623047,36.36199951171875 -111.76000213623047,36.36199951171875 C-111.76000213623047,36.36199951171875 -111.7490005493164,38.069000244140625 -111.7490005493164,38.069000244140625 C-111.7490005493164,38.069000244140625 -111.64800262451172,51.854000091552734 -111.64800262451172,51.854000091552734 C-111.64800262451172,51.854000091552734 -111.6259994506836,54.74599838256836 -111.6259994506836,54.74599838256836 C-109.7040023803711,52.51599884033203 -107.5250015258789,51.007999420166016 -105.33699798583984,50.0260009765625z"></path></g></g><g transform="matrix(0.9998452663421631,-0.017452362924814224,0.017452405765652657,0.9998477101325989,342.9674377441406,202.8555908203125)" opacity="1" style="display: block;"><g opacity="1" transform="matrix(1,0,0,1,9.873000144958496,25.131000518798828)"><path fill="rgb(131,79,65)" fill-opacity="1" d=" M2.687000036239624,-24.881000518798828 C1.8530000448226929,-11.567000389099121 -2.3540000915527344,-0.2639999985694885 -5.701000213623047,5.046000003814697 C-6.2220001220703125,5.872000217437744 -7.288000106811523,6.289999961853027 -8.335000038146973,6.289000034332275 C-8.42199993133545,6.289000034332275 -8.505999565124512,6.26800012588501 -8.593999862670898,6.26200008392334 C-8.593999862670898,6.26200008392334 -8.593999862670898,9.937999725341797 -8.593999862670898,9.937999725341797 C-8.593999862670898,15.015000343322754 -8.956000328063965,20.000999450683594 -9.62399959564209,24.881000518798828 C-9.376999855041504,24.825000762939453 -9.128999710083008,24.7810001373291 -8.881999969482422,24.718000411987305 C-0.6489999890327454,22.618999481201172 7.309999942779541,16.452999114990234 9.197999954223633,3.696000099182129 C9.468000411987305,1.871000051498413 9.61400032043457,-0.08799999952316284 9.618000030517578,-2.190000057220459 C9.623000144958496,-4.449999809265137 9.505999565124512,-6.520999908447266 9.29800033569336,-8.440999984741211 C8.432999610900879,-16.406999588012695 5.867000102996826,-21.569000244140625 2.687000036239624,-24.881000518798828z"></path></g></g><g transform="matrix(0.9998452663421631,-0.017452362924814224,0.017452405765652657,0.9998477101325989,133.0586395263672,202.4934539794922)" opacity="1" style="display: block;"><g opacity="1" transform="matrix(1,0,0,1,9.871000289916992,27.143999099731445)"><path fill="rgb(131,79,65)" fill-opacity="1" d=" M8.878999710083008,26.731000900268555 C9.12600040435791,26.792999267578125 9.37399959564209,26.83799934387207 9.621000289916992,26.893999099731445 C8.95199966430664,22.013999938964844 8.592000007629395,17.027999877929688 8.592000007629395,11.951000213623047 C8.592000007629395,11.951000213623047 8.592000007629395,3.568000078201294 8.592000007629395,3.568000078201294 C5.823999881744385,-2.513000011444092 3.2780001163482666,-12.175999641418457 3.061000108718872,-23.19700050354004 C3.0369999408721924,-24.41200065612793 3.052000045776367,-25.64900016784668 3.0869998931884766,-26.893999099731445 C3.0320000648498535,-26.8700008392334 2.9779999256134033,-26.85099983215332 2.9230000972747803,-26.82699966430664 C0.7350000143051147,-25.8439998626709 -1.444000005722046,-24.336999893188477 -3.365000009536743,-22.10700035095215 C-4.015999794006348,-21.35099983215332 -4.635000228881836,-20.507999420166016 -5.214000225067139,-19.57200050354004 C-7.25600004196167,-16.275999069213867 -8.793999671936035,-11.821000099182129 -9.369000434875488,-5.7870001792907715 C-9.529000282287598,-4.1020002365112305 -9.616000175476074,-2.296999931335449 -9.616999626159668,-0.35899999737739563 C-9.616999626159668,-0.29600000381469727 -9.621000289916992,-0.23999999463558197 -9.621000289916992,-0.1770000010728836 C-9.609000205993652,5.2769999504089355 -8.635000228881836,9.758999824523926 -7.017000198364258,13.425999641418457 C-6.109000205993652,15.48799991607666 -4.999000072479248,17.292999267578125 -3.7300000190734863,18.854000091552734 C-3.513000011444092,19.121000289916992 -3.2839999198913574,19.3700008392334 -3.059000015258789,19.62299919128418 C0.28200000524520874,23.364999771118164 4.535999774932861,25.624000549316406 8.878999710083008,26.731000900268555z"></path></g></g><g transform="matrix(0.9998451471328735,-0.017452361062169075,0.017452405765652657,0.9998477101325989,189.74095153808594,212.3157196044922)" opacity="1" style="display: block;"><g opacity="1" transform="matrix(1,0,0,1,11.3100004196167,11.3100004196167)"><path fill="rgb(6,12,17)" fill-opacity="1" d=" M11.0600004196167,0 C11.0600004196167,-3.053999900817871 9.821999549865723,-5.818999767303467 7.820000171661377,-7.820000171661377 C5.818999767303467,-9.821999549865723 3.055000066757202,-11.0600004196167 0,-11.0600004196167 C-3.053999900817871,-11.0600004196167 -5.817999839782715,-9.821999549865723 -7.820000171661377,-7.820000171661377 C-9.821000099182129,-5.818999767303467 -11.0600004196167,-3.053999900817871 -11.0600004196167,0 C-11.0600004196167,3.053999900817871 -9.821999549865723,5.818999767303467 -7.820000171661377,7.820000171661377 C-5.818999767303467,9.821999549865723 -3.053999900817871,11.0600004196167 0,11.0600004196167 C3.055000066757202,11.0600004196167 5.818999767303467,9.821999549865723 7.820000171661377,7.820000171661377 C9.821999549865723,5.818999767303467 11.0600004196167,3.053999900817871 11.0600004196167,0z"></path></g></g><g transform="matrix(0.9998451471328735,-0.017452361062169075,0.017452405765652657,0.9998477101325989,283.71337890625,210.6754150390625)" opacity="1" style="display: block;"><g opacity="1" transform="matrix(1,0,0,1,11.3100004196167,11.3100004196167)"><path fill="rgb(6,12,17)" fill-opacity="1" d=" M0,11.059000015258789 C3.055000066757202,11.059000015258789 5.817999839782715,9.821999549865723 7.820000171661377,7.821000099182129 C9.821999549865723,5.818999767303467 11.060999870300293,3.052999973297119 11.060999870300293,-0.0010000000474974513 C11.060999870300293,-3.053999900817871 9.821999549865723,-5.817999839782715 7.820000171661377,-7.820000171661377 C5.818999767303467,-9.821000099182129 3.055000066757202,-11.059000015258789 0,-11.059000015258789 C-3.055000066757202,-11.059000015258789 -5.818999767303467,-9.821000099182129 -7.820000171661377,-7.820000171661377 C-9.821000099182129,-5.817999839782715 -11.060999870300293,-3.053999900817871 -11.060999870300293,-0.0010000000474974513 C-11.060999870300293,3.053999900817871 -9.821999549865723,5.820000171661377 -7.820000171661377,7.821000099182129 C-5.817999839782715,9.821999549865723 -3.055000066757202,11.059000015258789 0,11.059000015258789z"></path></g></g><g transform="matrix(0.9998452663421631,-0.017452362924814224,0.017452405765652657,0.9998477101325989,273.16448974609375,185.94725036621094)" opacity="1" style="display: block;"><g opacity="1" transform="matrix(1,0,0,1,21.632999420166016,9.07699966430664)"><path fill="rgb(6,12,17)" fill-opacity="1" d=" M-21.222999572753906,2.671999931335449 C-21.382999420166016,4.078000068664551 -21.006000518798828,5.546000003814697 -20.05500030517578,6.739999771118164 C-19.509000778198242,7.427000045776367 -18.83300018310547,7.947000026702881 -18.09000015258789,8.29699993133545 C-17.347999572753906,8.64799976348877 -16.538999557495117,8.82699966430664 -15.72599983215332,8.82699966430664 C-15.121999740600586,8.82699966430664 -14.517000198364258,8.729000091552734 -13.9350004196167,8.529000282287598 C-13.352999687194824,8.329000473022461 -12.793999671936035,8.029000282287598 -12.28600025177002,7.624000072479248 C-6.080999851226807,2.686000108718872 -0.23600000143051147,2.1649999618530273 4.2129998207092285,2.994999885559082 C8.66100025177002,3.8259999752044678 11.713000297546387,6.006999969482422 12.331000328063965,6.479000091552734 C13.529999732971191,7.410999774932861 14.994000434875488,7.7729997634887695 16.39299964904785,7.603000164031982 C17.792999267578125,7.433000087738037 19.128000259399414,6.730000019073486 20.06999969482422,5.534999847412109 C21.013999938964844,4.335000038146973 21.382999420166016,2.865999937057495 21.215999603271484,1.4609999656677246 C21.048999786376953,0.054999999701976776 20.34600067138672,-1.2860000133514404 19.14699935913086,-2.2320001125335693 C15.947999954223633,-4.75 10.288000106811523,-7.567999839782715 3.4660000801086426,-8.197999954223633 C-3.3550000190734863,-8.82699966430664 -11.333999633789062,-7.264999866485596 -19.17300033569336,-1.0299999713897705 C-20.368000030517578,-0.07800000160932541 -21.062999725341797,1.2660000324249268 -21.222999572753906,2.671999931335449z"></path></g></g><g transform="matrix(0.9998452663421631,-0.017452362924814224,0.017452405765652657,0.9998477101325989,178.986083984375,187.59164428710938)" opacity="1" style="display: block;"><g opacity="1" transform="matrix(1,0,0,1,21.634000778198242,9.07699966430664)"><path fill="rgb(6,12,17)" fill-opacity="1" d=" M4.215000152587891,2.99399995803833 C8.663000106811523,3.825000047683716 11.71399974822998,6.007999897003174 12.333000183105469,6.480000019073486 C13.532999992370605,7.4120001792907715 14.996000289916992,7.771999835968018 16.395999908447266,7.6020002365112305 C17.795000076293945,7.431000232696533 19.1299991607666,6.730000019073486 20.06999969482422,5.535999774932861 C21.014999389648438,4.335999965667725 21.384000778198242,2.865999937057495 21.216999053955078,1.4600000381469727 C21.049999237060547,0.054999999701976776 20.347000122070312,-1.2860000133514404 19.148000717163086,-2.2309999465942383 C15.947999954223633,-4.75 10.288000106811523,-7.567999839782715 3.4670000076293945,-8.196999549865723 C-3.3540000915527344,-8.826000213623047 -11.335000038146973,-7.265999794006348 -19.17300033569336,-1.0290000438690186 C-20.368999481201172,-0.07900000363588333 -21.06399917602539,1.2649999856948853 -21.222999572753906,2.6710000038146973 C-21.384000778198242,4.077000141143799 -21.007999420166016,5.545000076293945 -20.05699920654297,6.739999771118164 C-19.51099967956543,7.426000118255615 -18.833999633789062,7.946000099182129 -18.090999603271484,8.295999526977539 C-17.349000930786133,8.647000312805176 -16.540000915527344,8.826000213623047 -15.72700023651123,8.826000213623047 C-15.123000144958496,8.826000213623047 -14.515999794006348,8.727999687194824 -13.934000015258789,8.529000282287598 C-13.352999687194824,8.32800006866455 -12.793999671936035,8.027999877929688 -12.28499984741211,7.623000144958496 C-6.078999996185303,2.686000108718872 -0.23399999737739563,2.1640000343322754 4.215000152587891,2.99399995803833z"></path></g></g><g transform="matrix(0.9998452663421631,-0.017452362924814224,0.017452405765652657,0.9998477101325989,234.2371063232422,295.290771484375)" opacity="1" style="display: block;"><g opacity="1" transform="matrix(1,0,0,1,15.211999893188477,3.9130001068115234)"><path fill="rgb(131,79,65)" fill-opacity="1" d=" M13.454999923706055,-2.865000009536743 C12.708999633789062,-3.390000104904175 11.73900032043457,-3.6630001068115234 10.725000381469727,-3.568000078201294 C7.1529998779296875,-3.2339999675750732 3.569999933242798,-3.061000108718872 -0.012000000104308128,-3.0490000247955322 C-3.5940001010894775,-3.0369999408721924 -7.177999973297119,-3.184999942779541 -10.75100040435791,-3.494999885559082 C-11.765000343322754,-3.5820000171661377 -12.732000350952148,-3.302000045776367 -13.47599983215332,-2.7720000743865967 C-14.218000411987305,-2.242000102996826 -14.734999656677246,-1.4620000123977661 -14.848999977111816,-0.546999990940094 C-14.961999893188477,0.3659999966621399 -14.62399959564209,1.2519999742507935 -13.987000465393066,1.9320000410079956 C-13.350000381469727,2.611999988555908 -12.411999702453613,3.0869998931884766 -11.329000473022461,3.180000066757202 C-7.557000160217285,3.506999969482422 -3.7720000743865967,3.6630001068115234 0.010999999940395355,3.6510000228881836 C3.7939999103546143,3.63700008392334 7.577000141143799,3.4539999961853027 11.347999572753906,3.1019999980926514 C12.430000305175781,3.000999927520752 13.36400032043457,2.5199999809265137 13.996000289916992,1.8350000381469727 C14.630000114440918,1.1519999504089355 14.961999893188477,0.2639999985694885 14.843999862670898,-0.6489999890327454 C14.725000381469727,-1.562999963760376 14.201000213623047,-2.3410000801086426 13.454999923706055,-2.865000009536743z"></path></g></g><g transform="matrix(0.9998452663421631,-0.017452362924814224,0.017452405765652657,0.9998477101325989,236.4827117919922,218.22535705566406)" opacity="1" style="display: block;"><g opacity="1" transform="matrix(1,0,0,1,12.520000457763672,23.155000686645508)"><path fill="rgb(131,79,65)" fill-opacity="1" d=" M-7.705999851226807,19.761999130249023 C-3.1410000324249268,22.527000427246094 1.9320000410079956,22.905000686645508 5.784999847412109,21.29599952697754 C9.637999534606934,19.687999725341797 12.270999908447266,16.0939998626709 11.958000183105469,10.913999557495117 C11.958000183105469,10.913999557495117 11.977999687194824,4.052999973297119 10.807999610900879,-3.3410000801086426 C9.637999534606934,-10.734000205993652 7.2779998779296875,-18.656999588012695 2.5179998874664307,-20.7810001373291 C-2.242000102996826,-22.905000686645508 -7.080999851226807,-14.152000427246094 -9.588000297546387,-4.176000118255615 C-12.093999862670898,5.798999786376953 -12.270000457763672,16.996999740600586 -7.705999851226807,19.761999130249023z"></path></g></g><g transform="matrix(0.9998452663421631,-0.017452362924814224,0.017452405765652657,0.9998477101325989,246.8013916015625,214.03663635253906)" opacity="1" style="display: block;"><g opacity="1" transform="matrix(1,0,0,1,0,0)"><path fill="rgb(255,0,0)" fill-opacity="1" d="M0 0"></path><path stroke-linecap="round" stroke-linejoin="miter" fill-opacity="0" stroke-miterlimit="4" stroke="rgb(128,56,72)" stroke-opacity="1" stroke-width="8" d=" M-30.997982025146484,67.3432388305664 C-26.338272094726562,71.4128646850586 -13.178999900817871,75.29100036621094 -3.250999927520752,75.4540023803711 C5.311999797821045,75.59400177001953 18.436416625976562,72.76506042480469 24.72214698791504,66.57235717773438"></path></g></g><g transform="matrix(0.9998452663421631,-0.017452362924814224,0.017452405765652657,0.9998477101325989,249.27255249023438,240.9976043701172)" opacity="1" style="display: block;"><g opacity="1" transform="matrix(1,0,0,1,0,0)"><path fill="rgb(255,0,0)" fill-opacity="1" d="M0 0"></path><path stroke-linecap="round" stroke-linejoin="miter" fill-opacity="0" stroke-miterlimit="4" stroke="rgb(12,21,28)" stroke-opacity="1" stroke-width="8" d=" M6.5,-136 C0.5,-115 0,-98 -39,-74.5"></path></g></g></g></svg>