<svg xmlns="http://www.w3.org/2000/svg" viewBox="0 0 500 500" width="500" height="500" preserveAspectRatio="xMidYMid meet" style="width: 100%; height: 100%; transform: translate3d(0px, 0px, 0px);"><defs><clipPath id="__lottie_element_74"><rect width="500" height="500" x="0" y="0"></rect></clipPath></defs><g clip-path="url(#__lottie_element_74)"><g transform="matrix(1,0,0,1,130.7890167236328,85.33900451660156)" opacity="1" style="display: block;"><g opacity="1" transform="matrix(1,0,0,1,128.0229949951172,91.48300170898438)"><path fill="rgb(207,144,71)" fill-opacity="1" d=" M107.98400115966797,-24.742000579833984 C105.60199737548828,-26.913999557495117 103.9229965209961,-28.264999389648438 103.9229965209961,-28.264999389648438 C103.9229965209961,-28.264999389648438 109.22100067138672,-26.672000885009766 114.80500030517578,-26.466999053955078 C120.38999938964844,-26.26099967956543 126.26100158691406,-27.444000244140625 127.40599822998047,-32.994998931884766 C127.77400207519531,-34.777000427246094 126.86900329589844,-36.645999908447266 125.10099792480469,-38.52799987792969 C124.2239990234375,-39.46099853515625 123.13500213623047,-40.395999908447266 121.87999725341797,-41.32600021362305 C120.74500274658203,-42.167999267578125 119.47899627685547,-43.00600051879883 118.10900115966797,-43.83100128173828 C118.04100036621094,-43.87300109863281 117.96800231933594,-43.91400146484375 117.89900207519531,-43.95500183105469 C114.36399841308594,-46.06700134277344 110.19100189208984,-48.10300064086914 105.9749984741211,-49.95000076293945 C102.26399993896484,-51.57699966430664 98.52400207519531,-53.05500030517578 95.16300201416016,-54.3129997253418 C89.73899841308594,-56.34199905395508 85.30799865722656,-57.79100036621094 83.59400177001953,-58.3380012512207 C83.0989990234375,-58.49599838256836 82.8270034790039,-58.58100128173828 82.8270034790039,-58.58100128173828 C82.8270034790039,-58.58100128173828 83.31099700927734,-58.58700180053711 84.09300231933594,-58.63100051879883 C85.7979965209961,-58.72800064086914 88.96099853515625,-59.0099983215332 91.88200378417969,-59.83300018310547 C92.4990005493164,-60.00699996948242 93.1050033569336,-60.20399856567383 93.68199920654297,-60.43000030517578 C95.36100006103516,-61.08300018310547 96.8030014038086,-61.97100067138672 97.6259994506836,-63.167999267578125 C99.04299926757812,-65.23200225830078 98.6050033569336,-68.22100067138672 94.27300262451172,-72.55899810791016 C92.79000091552734,-74.04499816894531 90.38300323486328,-75.52200317382812 87.22200012207031,-76.9530029296875 C82.97699737548828,-78.8759994506836 77.36299896240234,-80.71499633789062 70.78099822998047,-82.38099670410156 C59.6510009765625,-85.197998046875 45.75299835205078,-87.51899719238281 30.989999771118164,-88.89900207519531 C6.038000106811523,-91.23300170898438 -21.358999252319336,-90.87799835205078 -41.96699905395508,-85.71099853515625 C-44.233001708984375,-85.14299774169922 -46.41400146484375,-84.51599884033203 -48.50299835205078,-83.8290023803711 C-48.51599884033203,-83.8270034790039 -48.529998779296875,-83.82499694824219 -48.542999267578125,-83.8219985961914 C-58.00600051879883,-82.26899719238281 -66.99099731445312,-79.31300354003906 -75.28900146484375,-75.17500305175781 C-77.52999877929688,-74.05599975585938 -79.72899627685547,-72.86499786376953 -81.86499786376953,-71.5780029296875 C-88.49600219726562,-67.58499908447266 -94.60099792480469,-62.808998107910156 -100.04399871826172,-57.367000579833984 C-103.42500305175781,-53.986000061035156 -106.54100036621094,-50.340999603271484 -109.38200378417969,-46.481998443603516 C-111.78500366210938,-43.21699905395508 -113.98100280761719,-39.792999267578125 -115.95600128173828,-36.22800064086914 C-122.197998046875,-24.961999893188477 -126.1989974975586,-12.289999961853027 -127.38300323486328,1.1950000524520874 C-127.57599639892578,3.3919999599456787 -127.68800354003906,5.611000061035156 -127.72899627685547,7.8480000495910645 C-127.73899841308594,8.425000190734863 -127.77300262451172,8.996999740600586 -127.77300262451172,9.57699966430664 C-127.77300262451172,9.57699966430664 -127.77300262451172,54.79199981689453 -127.77300262451172,54.79199981689453 C-127.77300262451172,54.79199981689453 -127.77300262451172,67.88600158691406 -127.77300262451172,67.88600158691406 C-126.08200073242188,66.05599975585938 -124.23500061035156,64.75499725341797 -122.38300323486328,63.86000061035156 C-121.06600189208984,63.2239990234375 -119.75199890136719,62.79399871826172 -118.49299621582031,62.49800109863281 C-118.46600341796875,65.28099822998047 -118.37200164794922,68.552001953125 -118.13200378417969,71.86100006103516 C-117.50399780273438,80.51000213623047 -115.88600158691406,89.38999938964844 -111.93099975585938,90.31199645996094 C-107.97599792480469,91.23300170898438 -104.89199829101562,76.31199645996094 -104.04199981689453,58.09299850463867 C-103.26200103759766,41.37799835205078 -104.37000274658203,21.906999588012695 -108.4010009765625,9.331000328063965 C-104.73600006103516,-3.743000030517578 -98.35099792480469,-15.675000190734863 -89.87000274658203,-25.804000854492188 C-88.75700378417969,-21.863000869750977 -87.33499908447266,-17.22100067138672 -85.66400146484375,-12.583999633789062 C-81.38300323486328,-0.7039999961853027 -75.4739990234375,11.11400032043457 -68.95999908447266,10.873000144958496 C-62.448001861572266,10.631999969482422 -59.5,4.119999885559082 -58.18199920654297,-2.3320000171661377 C-56.95899963378906,-8.310999870300293 -57.13600158691406,-14.227999687194824 -57.16699981689453,-15.065999984741211 C-57.125,-14.055999755859375 -56.744998931884766,-6.054999828338623 -55.040000915527344,1.9550000429153442 C-53.21799850463867,10.52400016784668 -49.88199996948242,19.097999572753906 -43.82699966430664,19.121999740600586 C-37.77299880981445,19.145999908447266 -34.40999984741211,11.53600025177002 -32.558998107910156,3.9210000038146973 C-30.707000732421875,-3.696000099182129 -30.368000030517578,-11.317000389099121 -30.368000030517578,-11.317000389099121 C-30.368000030517578,-11.317000389099121 -30.006999969482422,-3.3580000400543213 -26.871000289916992,4.421000003814697 C-23.735000610351562,12.199999809265137 -17.826000213623047,19.79800033569336 -6.730999946594238,19.073999404907227 C4.364999771118164,18.350000381469727 9.937999725341797,9.54699993133545 12.73900032043457,0.9240000247955322 C15.539999961853027,-7.699999809265137 15.565999984741211,-16.141000747680664 15.565999984741211,-16.141000747680664 C16.343000411987305,-3.117000102996826 17.763999938964844,4.7220001220703125 19.893999099731445,9.305000305175781 C22.024999618530273,13.887999534606934 24.867000579833984,15.21500015258789 28.483999252319336,15.21500015258789 C32.10200119018555,15.21500015258789 35.47800064086914,8.038999557495117 37.95100021362305,0.8629999756813049 C40.42300033569336,-6.311999797821045 41.9900016784668,-13.48799991607666 41.9900016784668,-13.48799991607666 C41.9900016784668,-13.48799991607666 41.75,-7.638999938964844 43.07600021362305,-2.2109999656677246 C44.402000427246094,3.2160000801086426 47.29600143432617,8.220000267028809 53.56800079345703,6.5320000648498535 C59.8390007019043,4.843999862670898 66.3030014038086,-5.165999889373779 71.19999694824219,-14.753999710083008 C72.41500091552734,-17.131999969482422 73.53299713134766,-19.485000610351562 74.52799987792969,-21.67799949645996 C81.65499877929688,-12.137999534606934 87.01300048828125,-1.2039999961853027 90.14800262451172,10.635000228881836 C86.4469985961914,23.226999282836914 85.44200134277344,41.94900131225586 86.19499969482422,58.09400177001953 C86.98999786376953,75.10399627685547 89.72899627685547,89.23500061035156 93.30899810791016,90.28500366210938 C93.56300354003906,90.36100006103516 93.82099914550781,90.37300109863281 94.08399963378906,90.31199645996094 C98.03900146484375,89.39099884033203 99.65499877929688,80.51100158691406 100.28299713134766,71.86100006103516 C100.51799774169922,68.63300323486328 100.61399841308594,65.43699645996094 100.64299774169922,62.698001861572266 C101.66400146484375,62.983001708984375 102.71099853515625,63.354000091552734 103.75900268554688,63.861000061035156 C105.61199951171875,64.75599670410156 107.45999908447266,66.05699920654297 109.1500015258789,67.88700103759766 C109.1500015258789,67.88700103759766 109.1500015258789,54.792999267578125 109.1500015258789,54.792999267578125 C109.1500015258789,54.792999267578125 109.1500015258789,9.576000213623047 109.1500015258789,9.576000213623047 C109.1500015258789,8.22700023651123 109.10399627685547,6.888000011444092 109.0479965209961,5.552999973297119 C113.7959976196289,6.5960001945495605 118.6709976196289,6.335999965667725 122.01899719238281,2.75 C126.40499877929688,-1.9490000009536743 121.87999725341797,-9.70199966430664 116.25900268554688,-16.281999588012695 C115.36399841308594,-17.329999923706055 114.44100189208984,-18.343000411987305 113.52100372314453,-19.315000534057617 C111.55599975585938,-21.39299964904785 109.60700225830078,-23.261999130249023 107.98400115966797,-24.742000579833984z"></path></g></g><g transform="matrix(1,0,0,1,316.9410095214844,292.49700927734375)" opacity="1" style="display: block;"><g opacity="1" transform="matrix(1,0,0,1,24.957000732421875,34.22800064086914)"><path fill="rgb(207,144,71)" fill-opacity="1" d=" M24.70800018310547,-33.97800064086914 C21.733999252319336,-31.184999465942383 18.25200080871582,-29.410999298095703 14.720000267028809,-28.441999435424805 C12.958999633789062,-27.95800018310547 11.1850004196167,-27.676000595092773 9.454999923706055,-27.566999435424805 C6.77400016784668,-6.179999828338623 -3.010999917984009,12.99899959564209 -17.503000259399414,27.490999221801758 C-19.788000106811523,29.775999069213867 -22.198999404907227,31.934999465942383 -24.70800018310547,33.97800064086914 C-19.663000106811523,31.33300018310547 -14.890999794006348,28.243999481201172 -10.432999610900879,24.766000747680664 C-7.708000183105469,22.639999389648438 -5.10099983215332,20.37299919128418 -2.627000093460083,17.965999603271484 C-2.309000015258789,17.656999588012695 -1.9769999980926514,17.361000061035156 -1.6619999408721924,17.04599952697754 C8.21399974822998,7.170000076293945 15.89900016784668,-4.885000228881836 20.65399932861328,-18.327999114990234 C21.75,-21.423999786376953 22.68199920654297,-24.59600067138672 23.45400047302246,-27.83099937438965 C23.93600082397461,-29.856000900268555 24.35700035095215,-31.905000686645508 24.70800018310547,-33.97800064086914z"></path></g></g><g transform="matrix(1,0,0,1,132.14898681640625,292.4960021972656)" opacity="1" style="display: block;"><g opacity="1" transform="matrix(1,0,0,1,24.957000732421875,34.22800064086914)"><path fill="rgb(207,144,71)" fill-opacity="1" d=" M17.503999710083008,27.490999221801758 C3.01200008392334,12.99899959564209 -6.775000095367432,-6.178999900817871 -9.456999778747559,-27.56599998474121 C-11.185999870300293,-27.674999237060547 -12.960000038146973,-27.957000732421875 -14.720999717712402,-28.44099998474121 C-18.253999710083008,-29.409000396728516 -21.735000610351562,-31.18400001525879 -24.70800018310547,-33.97800064086914 C-24.57200050354004,-33.16699981689453 -24.43400001525879,-32.358001708984375 -24.275999069213867,-31.55500030517578 C-23.91699981689453,-29.726999282836914 -23.518999099731445,-27.915000915527344 -23.055999755859375,-26.12700080871582 C-21.82699966430664,-21.374000549316406 -20.226999282836914,-16.77400016784668 -18.30900001525879,-12.340999603271484 C-17.511999130249023,-10.49899959564209 -16.648000717163086,-8.694000244140625 -15.73900032043457,-6.914000034332275 C-13.263999938964844,-2.066999912261963 -10.404000282287598,2.552000045776367 -7.1620001792907715,6.872000217437744 C-5.760000228881836,8.741000175476074 -4.271999835968018,10.541000366210938 -2.73799991607666,12.298999786376953 C-1.319000005722046,13.927000045776367 0.13699999451637268,15.520999908447266 1.6629999876022339,17.04800033569336 C4.921999931335449,20.30699920654297 8.420000076293945,23.326000213623047 12.12399959564209,26.083999633789062 C14.739999771118164,28.031999588012695 17.468000411987305,29.83799934387207 20.281999588012695,31.511999130249023 C21.73200035095215,32.374000549316406 23.209999084472656,33.19300079345703 24.70800018310547,33.97800064086914 C22.200000762939453,31.93600082397461 19.788999557495117,29.777000427246094 17.503999710083008,27.490999221801758z"></path></g></g><g transform="matrix(1,0,0,1,351.10400390625,239.26898193359375)" opacity="1" style="display: block;"><g opacity="1" transform="matrix(1,0,0,1,12.145999908447266,30.06999969482422)"><path fill="rgb(244,155,143)" fill-opacity="1" d=" M-0.675000011920929,-28.656999588012695 C-1.725000023841858,-29.163999557495117 -2.7709999084472656,-29.535999298095703 -3.7909998893737793,-29.81999969482422 C-3.821000099182129,-27.08099937438965 -3.9170000553131104,-23.88599967956543 -4.1519999504089355,-20.656999588012695 C-4.7789998054504395,-12.008000373840332 -6.396999835968018,-3.128000020980835 -10.35200023651123,-2.2060000896453857 C-10.61400032043457,-2.1449999809265137 -10.871999740600586,-2.1579999923706055 -11.12600040435791,-2.2330000400543213 C-11.12600040435791,-2.2330000400543213 -11.12600040435791,17.933000564575195 -11.12600040435791,17.933000564575195 C-11.12600040435791,21.961999893188477 -11.406999588012695,25.92300033569336 -11.895999908447266,29.81999969482422 C-10.166000366210938,29.709999084472656 -8.392999649047852,29.42799949645996 -6.631999969482422,28.94499969482422 C-3.0989999771118164,27.97599983215332 0.382999986410141,26.20199966430664 3.3559999465942383,23.408000946044922 C4.685999870300293,22.158000946044922 5.9029998779296875,20.684999465942383 6.988999843597412,19.006999969482422 C8.758000373840332,16.275999069213867 10.152999877929688,12.96500015258789 10.98799991607666,8.968000411987305 C11.54699993133545,6.289000034332275 11.862000465393066,3.315000057220459 11.869000434875488,0.004999999888241291 C11.895999908447266,-12.743000030517578 8.767999649047852,-20.243000030517578 4.715000152587891,-24.631999969482422 C3.0239999294281006,-26.461000442504883 1.1770000457763672,-27.761999130249023 -0.675000011920929,-28.656999588012695z"></path></g></g><g transform="matrix(1,0,0,1,123.6090087890625,239.0690155029297)" opacity="1" style="display: block;"><g opacity="1" transform="matrix(1,0,0,1,12.145999908447266,30.170000076293945)"><path fill="rgb(244,155,143)" fill-opacity="1" d=" M6.631999969482422,29.04400062561035 C8.392999649047852,29.527000427246094 10.166999816894531,29.809999465942383 11.895999908447266,29.91900062561035 C11.406999588012695,26.023000717163086 11.126999855041504,22.062999725341797 11.126999855041504,18.033000946044922 C11.126999855041504,18.033000946044922 11.126999855041504,-2.1059999465942383 11.126999855041504,-2.1059999465942383 C7.171999931335449,-3.0280001163482666 5.554999828338623,-11.906999588012695 4.927000045776367,-20.55699920654297 C4.686999797821045,-23.865999221801758 4.5920000076293945,-27.13599967956543 4.565000057220459,-29.91900062561035 C3.305999994277954,-29.62299919128418 1.9919999837875366,-29.19300079345703 0.675000011920929,-28.55699920654297 C-1.1770000457763672,-27.66200065612793 -3.0250000953674316,-26.36199951171875 -4.715000152587891,-24.533000946044922 C-8.767999649047852,-20.143999099731445 -11.895999908447266,-12.644000053405762 -11.868000030517578,0.10499999672174454 C-11.845000267028809,11.38700008392334 -8.303999900817871,18.858999252319336 -3.3559999465942383,23.507999420166016 C-0.38199999928474426,26.302000045776367 3.0989999771118164,28.075000762939453 6.631999969482422,29.04400062561035z"></path></g></g><g transform="matrix(1,0,0,1,256.86798095703125,446.9889831542969)" opacity="1" style="display: block;"><g opacity="1" transform="matrix(1,0,0,1,16.767000198364258,24.200000762939453)"><path fill="rgb(61,146,185)" fill-opacity="1" d=" M15.258999824523926,-13.531000137329102 C15.258999824523926,-13.531000137329102 -2.3410000801086426,-23.100000381469727 -2.3410000801086426,-23.100000381469727 C-2.3410000801086426,-23.100000381469727 -3.9040000438690186,-23.948999404907227 -3.9040000438690186,-23.948999404907227 C-3.9040000438690186,-23.948999404907227 -7.006999969482422,-19.82200050354004 -7.006999969482422,-19.82200050354004 C-7.006999969482422,-19.82200050354004 -13.3100004196167,-11.435999870300293 -13.3100004196167,-11.435999870300293 C-14.522000312805176,-9.821999549865723 -15.387999534606934,-8.067999839782715 -15.887999534606934,-6.249000072479248 C-16.386999130249023,-4.428999900817871 -16.51799964904785,-2.5450000762939453 -16.26300048828125,-0.6669999957084656 C-16.26300048828125,-0.6669999957084656 -12.90999984741211,23.948999404907227 -12.90999984741211,23.948999404907227 C-2.9709999561309814,23.540000915527344 6.811999797821045,22.531999588012695 16.405000686645508,20.959999084472656 C16.40999984741211,20.628999710083008 16.420000076293945,20.29199981689453 16.422000885009766,19.964000701904297 C16.51799964904785,7.5920000076293945 16.062000274658203,-3.546999931335449 15.258999824523926,-13.531000137329102z"></path></g></g><g transform="matrix(1,0,0,1,210.2239990234375,402.72900390625)" opacity="1" style="display: block;"><g opacity="1" transform="matrix(1,0,0,1,40.874000549316406,48.702999114990234)"><path fill="rgb(65,105,149)" fill-opacity="1" d=" M-29.73699951171875,-45.26900100708008 C-29.73699951171875,-45.26900100708008 -40.624000549316406,-19.96500015258789 -39.92300033569336,40.71699905395508 C-39.92300033569336,40.71699905395508 -4.77400016784668,48.452999114990234 38.94200134277344,40.715999603271484 C38.94200134277344,40.71699905395508 40.624000549316406,-15.92300033569336 27.76099967956543,-48.45199966430664 C27.76099967956543,-48.452999114990234 -1.8240000009536743,-42.040000915527344 -1.8240000009536743,-42.040000915527344 C-1.8240000009536743,-42.040000915527344 -29.73699951171875,-45.26900100708008 -29.73699951171875,-45.26900100708008z"></path></g></g><g transform="matrix(1,0,0,1,230.16799926757812,435.989013671875)" opacity="1" style="display: block;"><g opacity="1" transform="matrix(1,0,0,1,19.906999588012695,29.812999725341797)"><path fill="rgb(36,56,70)" fill-opacity="1" d=" M7.675000190734863,-0.8610000014305115 C8.173999786376953,-2.680000066757202 9.038999557495117,-4.434000015258789 10.251999855041504,-6.047999858856201 C10.251999855041504,-6.047999858856201 16.55500030517578,-14.434000015258789 16.55500030517578,-14.434000015258789 C16.55500030517578,-14.434000015258789 19.656999588012695,-18.562999725341797 19.656999588012695,-18.562999725341797 C19.656999588012695,-18.562999725341797 -0.5730000138282776,-29.562999725341797 -0.5730000138282776,-29.562999725341797 C-0.5730000138282776,-29.562999725341797 -19.656999588012695,-19.20199966430664 -19.656999588012695,-19.20199966430664 C-19.656999588012695,-19.20199966430664 -17.030000686645508,-14.45199966430664 -17.030000686645508,-14.45199966430664 C-17.030000686645508,-14.45199966430664 -11.381999969482422,-4.239999771118164 -11.381999969482422,-4.239999771118164 C-10.607999801635742,-2.8399999141693115 -10.072999954223633,-1.3700000047683716 -9.78600025177002,0.13199999928474426 C-9.49899959564209,1.6339999437332153 -9.458000183105469,3.1659998893737793 -9.67199993133545,4.689000129699707 C-9.67199993133545,4.689000129699707 -13.116999626159668,29.172000885009766 -13.116999626159668,29.172000885009766 C-8.597999572753906,29.42300033569336 -4.048999786376953,29.562999725341797 0.5329999923706055,29.562999725341797 C3.9240000247955322,29.562999725341797 7.294000148773193,29.475000381469727 10.652000427246094,29.336999893188477 C10.652000427246094,29.336999893188477 7.300000190734863,4.7210001945495605 7.300000190734863,4.7210001945495605 C7.044000148773193,2.8440001010894775 7.176000118255615,0.9580000042915344 7.675000190734863,-0.8610000014305115z"></path></g></g><g transform="matrix(1,0,0,1,212.1719970703125,402.7300109863281)" opacity="1" style="display: block;"><g opacity="1" transform="matrix(1,0,0,1,38.486000061035156,27.589000701904297)"><path fill="rgb(255,255,255)" fill-opacity="1" d=" M-1.187999963760376,5.921000003814697 C-10.295999526977539,5.910999774932861 -19.40399932861328,1.0509999990463257 -23.211999893188477,-8.649999618530273 C-23.211999893188477,-8.649999618530273 -29.29599952697754,-24.156999588012695 -29.29599952697754,-24.156999588012695 C-30.08300018310547,-21.54400062561035 -30.898000717163086,-18.604999542236328 -31.71299934387207,-15.303000450134277 C-34.25899887084961,-4.985000133514404 -36.777000427246094,8.734000205993652 -38.236000061035156,26.05299949645996 C-38.236000061035156,26.05299949645996 -22.98200035095215,17.770999908447266 -22.98200035095215,17.770999908447266 C-22.98200035095215,17.770999908447266 -20.239999771118164,16.2810001373291 -20.239999771118164,16.2810001373291 C-20.239999771118164,16.2810001373291 -1.156000018119812,5.921000003814697 -1.156000018119812,5.921000003814697 C-1.156000018119812,5.921000003814697 19.073999404907227,16.92099952697754 19.073999404907227,16.92099952697754 C19.073999404907227,16.92099952697754 20.636999130249023,17.770999908447266 20.636999130249023,17.770999908447266 C20.636999130249023,17.770999908447266 38.236000061035156,27.34000015258789 38.236000061035156,27.34000015258789 C36.79499816894531,9.420999526977539 34.22100067138672,-4.734000205993652 31.61400032043457,-15.303000450134277 C30.447999954223633,-20.02899932861328 29.27899932861328,-24.018999099731445 28.20199966430664,-27.34000015258789 C28.20199966430664,-27.34000015258789 20.844999313354492,-8.611000061035156 20.844999313354492,-8.611000061035156 C17.030000686645508,1.0889999866485596 7.920000076293945,5.931000232696533 -1.187999963760376,5.921000003814697z"></path></g></g><g transform="matrix(1,0,0,1,185.44400024414062,326.4749755859375)" opacity="1" style="display: block;"><g opacity="1" transform="matrix(1,0,0,1,64.31999969482422,55.01100158691406)"><path fill="rgb(244,155,143)" fill-opacity="1" d=" M4.9720001220703125,-46.10100173950195 C-26.964000701904297,-44.470001220703125 -49.02399826049805,-47.54899978637695 -64.06999969482422,-53.472999572753906 C-64.06999969482422,-53.472999572753906 -28.402999877929688,24.676000595092773 -28.402999877929688,24.676000595092773 C-28.402999877929688,24.676000595092773 -22.319000244140625,40.18199920654297 -22.319000244140625,40.18199920654297 C-18.510000228881836,49.882999420166016 -9.402999877929688,54.74300003051758 -0.2939999997615814,54.75299835205078 C8.814000129699707,54.76100158691406 17.923999786376953,49.92100143432617 21.73900032043457,40.22100067138672 C21.73900032043457,40.22100067138672 29.09600067138672,21.4950008392334 29.09600067138672,21.4950008392334 C29.09600067138672,21.4950008392334 64.06999969482422,-54.762001037597656 64.06999969482422,-54.762001037597656 C49.9379997253418,-50.2400016784668 30.63599967956543,-47.4109992980957 4.9720001220703125,-46.10100173950195z"></path></g></g><g transform="matrix(1,0,0,1,146.63099670410156,150.7659912109375)" opacity="1" style="display: block;"><g opacity="1" transform="matrix(1,0,0,1,102.87000274658203,128.50799560546875)"><path fill="rgb(247,180,171)" fill-opacity="1" d=" M46.34000015258789,94.53500366210938 C54.053001403808594,91.10800170898438 61.22700119018555,86.69300079345703 67.68900299072266,81.43099975585938 C70.19599914550781,79.38700103759766 72.60600280761719,77.22699737548828 74.89099884033203,74.94200134277344 C89.38300323486328,60.45000076293945 99.16999816894531,41.27199935913086 101.85199737548828,19.88599967956543 C102.33999633789062,15.98799991607666 102.62000274658203,12.027000427246094 102.62000274658203,7.999000072479248 C102.62000274658203,7.999000072479248 102.62000274658203,-12.166999816894531 102.62000274658203,-12.166999816894531 C99.04100036621094,-13.218000411987305 96.3010025024414,-27.349000930786133 95.50700378417969,-44.35900115966797 C94.75299835205078,-60.50400161743164 95.75900268554688,-79.22599792480469 99.45999908447266,-91.81800079345703 C96.32499694824219,-103.65699768066406 90.96700286865234,-114.59100341796875 83.83999633789062,-124.13099670410156 C82.84600067138672,-121.93800354003906 81.72699737548828,-119.58599853515625 80.51200103759766,-117.20700073242188 C75.61399841308594,-107.61900329589844 69.1520004272461,-97.60900115966797 62.880001068115234,-95.9209976196289 C56.60900115966797,-94.23300170898438 53.7140007019043,-99.23699951171875 52.387001037597656,-104.66400146484375 C51.06100082397461,-110.09100341796875 51.303001403808594,-115.94100189208984 51.303001403808594,-115.94100189208984 C51.303001403808594,-115.94100189208984 49.73400115966797,-108.76499938964844 47.262001037597656,-101.58899688720703 C44.790000915527344,-94.41300201416016 41.41299819946289,-87.23699951171875 37.79600143432617,-87.23699951171875 C34.178001403808594,-87.23699951171875 31.336000442504883,-88.56400299072266 29.20599937438965,-93.14700317382812 C27.075000762939453,-97.7300033569336 25.655000686645508,-105.56900024414062 24.878000259399414,-118.59400177001953 C24.878000259399414,-118.59400177001953 24.851999282836914,-110.1520004272461 22.051000595092773,-101.52899932861328 C19.250999450683594,-92.90599822998047 13.675999641418457,-84.10299682617188 2.5810000896453857,-83.37899780273438 C-8.515000343322754,-82.65499877929688 -14.423999786376953,-90.25299835205078 -17.55900001525879,-98.03199768066406 C-20.69499969482422,-105.81099700927734 -21.05699920654297,-113.7699966430664 -21.05699920654297,-113.7699966430664 C-21.05699920654297,-113.7699966430664 -21.393999099731445,-106.14900207519531 -23.246000289916992,-98.53199768066406 C-25.097000122070312,-90.91699981689453 -28.461999893188477,-83.30699920654297 -34.51599884033203,-83.33100128173828 C-40.56999969482422,-83.3550033569336 -43.90700149536133,-91.92900085449219 -45.729000091552734,-100.49800109863281 C-47.43299865722656,-108.50800323486328 -47.81399917602539,-116.50900268554688 -47.85599899291992,-117.51899719238281 C-47.82400131225586,-116.68199920654297 -47.64799880981445,-110.76399993896484 -48.869998931884766,-104.78500366210938 C-50.18899917602539,-98.33300018310547 -53.137001037597656,-91.82099914550781 -59.64899826049805,-91.58000183105469 C-66.16100311279297,-91.33899688720703 -72.07099914550781,-103.15699768066406 -76.35199737548828,-115.03600311279297 C-78.02300262451172,-119.6729965209961 -79.44499969482422,-124.31600189208984 -80.55899810791016,-128.2570037841797 C-89.04000091552734,-118.12799835205078 -95.42500305175781,-106.19599914550781 -99.08899688720703,-93.12200164794922 C-95.05799865722656,-80.54499816894531 -93.94999694824219,-61.07500076293945 -94.7300033569336,-44.35900115966797 C-95.58100128173828,-26.141000747680664 -98.66400146484375,-11.220000267028809 -102.62000274658203,-12.142000198364258 C-102.62000274658203,-12.142000198364258 -102.62000274658203,7.998000144958496 -102.62000274658203,7.998000144958496 C-102.62000274658203,12.027000427246094 -102.33899688720703,15.987000465393066 -101.8499984741211,19.885000228881836 C-99.16899871826172,41.270999908447266 -89.38400268554688,60.44900131225586 -74.89099884033203,74.94100189208984 C-72.60600280761719,77.22599792480469 -70.1969985961914,79.38700103759766 -67.68800354003906,81.43000030517578 C-62.29999923706055,85.81800079345703 -56.415000915527344,89.61599731445312 -50.13800048828125,92.74800109863281 C-48.10499954223633,93.76200103759766 -46.03499984741211,94.70800018310547 -43.922000885009766,95.57599639892578 C-43.72100067138672,96.4530029296875 -43.50299835205078,97.31900024414062 -43.268001556396484,98.1760025024414 C-42.9630012512207,99.29000091552734 -42.63100051879883,100.38800048828125 -42.26599884033203,101.46299743652344 C-41.3120002746582,104.27300262451172 -40.159000396728516,106.9469985961914 -38.75299835205078,109.4209976196289 C-36.819000244140625,112.8239974975586 -34.40599822998047,115.84700012207031 -31.472000122070312,118.4010009765625 C-24.018999099731445,124.88600158691406 -13.093000411987305,128.25799560546875 2.7249999046325684,126.47200012207031 C15.437000274658203,125.03800201416016 24.9950008392334,121.94100189208984 31.9950008392334,116.98999786376953 C36.29399871826172,113.95099639892578 39.63399887084961,110.21399688720703 42.13100051879883,105.72699737548828 C42.9010009765625,104.34400177001953 43.58399963378906,102.88400268554688 44.19900131225586,101.35700225830078 C45.05799865722656,99.22699737548828 45.76300048828125,96.947998046875 46.3390007019043,94.53399658203125"></path></g></g><g transform="matrix(1,0,0,1,191.1999969482422,251.53799438476562)" opacity="1" style="display: block;"><g opacity="1" transform="matrix(1,0,0,1,11.309000015258789,11.3100004196167)"><path fill="rgb(36,56,70)" fill-opacity="1" d=" M7.821000099182129,7.821000099182129 C9.821999549865723,5.818999767303467 11.0600004196167,3.053999900817871 11.0600004196167,0 C11.0600004196167,-3.053999900817871 9.821999549865723,-5.818999767303467 7.821000099182129,-7.821000099182129 C5.818999767303467,-9.822999954223633 3.052999973297119,-11.0600004196167 -0.0010000000474974513,-11.0600004196167 C-3.055000066757202,-11.0600004196167 -5.820000171661377,-9.822999954223633 -7.821000099182129,-7.821000099182129 C-9.822999954223633,-5.818999767303467 -11.0600004196167,-3.053999900817871 -11.0600004196167,0 C-11.0600004196167,3.053999900817871 -9.822999954223633,5.818999767303467 -7.821000099182129,7.821000099182129 C-5.820000171661377,9.821999549865723 -3.055000066757202,11.0600004196167 -0.0010000000474974513,11.0600004196167 C3.052999973297119,11.0600004196167 5.818999767303467,9.821999549865723 7.821000099182129,7.821000099182129z"></path></g></g><g transform="matrix(1,0,0,1,285.18499755859375,251.5369873046875)" opacity="1" style="display: block;"><g opacity="1" transform="matrix(1,0,0,1,11.309000015258789,11.310999870300293)"><path fill="rgb(36,56,70)" fill-opacity="1" d=" M11.0600004196167,0 C11.0600004196167,-3.055000066757202 9.821999549865723,-5.818999767303467 7.820000171661377,-7.821000099182129 C5.818999767303467,-9.821999549865723 3.052999973297119,-11.060999870300293 -0.0010000000474974513,-11.060999870300293 C-3.053999900817871,-11.060999870300293 -5.817999839782715,-9.821999549865723 -7.820000171661377,-7.821000099182129 C-9.821000099182129,-5.818999767303467 -11.0600004196167,-3.055000066757202 -11.0600004196167,0 C-11.0600004196167,3.053999900817871 -9.821999549865723,5.817999839782715 -7.820000171661377,7.820000171661377 C-5.817999839782715,9.821999549865723 -3.053999900817871,11.060999870300293 -0.0010000000474974513,11.060999870300293 C3.052999973297119,11.060999870300293 5.818999767303467,9.821999549865723 7.820000171661377,7.820000171661377 C9.821999549865723,5.817999839782715 11.0600004196167,3.053999900817871 11.0600004196167,0z"></path></g></g><g transform="matrix(0.9510565400123596,0.30901700258255005,-0.30901700258255005,0.9510565400123596,278.10906982421875,206.08544921875)" opacity="1" style="display: block;"><g opacity="1" transform="matrix(1,0,0,1,28.049999237060547,11.725000381469727)"><path fill="rgb(207,144,71)" fill-opacity="1" d=" M-23.520000457763672,10.786999702453613 C-22.554000854492188,11.241999626159668 -21.500999450683594,11.475000381469727 -20.44499969482422,11.475000381469727 C-19.65999984741211,11.475000381469727 -18.871999740600586,11.347000122070312 -18.115999221801758,11.086999893188477 C-17.358999252319336,10.82800006866455 -16.632999420166016,10.437999725341797 -15.972000122070312,9.911999702453613 C-7.906000137329102,3.492000102996826 -0.3059999942779541,2.813999891281128 5.4770002365112305,3.8940000534057617 C11.260000228881836,4.973999977111816 15.227999687194824,7.810999870300293 16.033000946044922,8.423999786376953 C17.59000015258789,9.63599967956543 19.493999481201172,10.104000091552734 21.312999725341797,9.883000373840332 C23.131999969482422,9.661999702453613 24.868999481201172,8.75 26.091999053955078,7.197000026702881 C27.320999145507812,5.63700008392334 27.799999237060547,3.7269999980926514 27.583999633789062,1.899999976158142 C27.367000579833984,0.0729999989271164 26.452999114990234,-1.6710000038146973 24.89299964904785,-2.9000000953674316 C20.733999252319336,-6.175000190734863 13.375,-9.83899974822998 4.506999969482422,-10.656999588012695 C-4.361000061035156,-11.475000381469727 -14.736000061035156,-9.446000099182129 -24.924999237060547,-1.3389999866485596 C-26.479000091552734,-0.10300000011920929 -27.384000778198242,1.6449999809265137 -27.591999053955078,3.4730000495910645 C-27.799999237060547,5.301000118255615 -27.309999465942383,7.209000110626221 -26.073999404907227,8.76200008392334 C-25.36400032043457,9.654999732971191 -24.485000610351562,10.331999778747559 -23.520000457763672,10.786999702453613z"></path></g></g><g transform="matrix(0.9510565400123596,-0.30901700258255005,0.30901700258255005,0.9510565400123596,168.856689453125,223.42161560058594)" opacity="1" style="display: block;"><g opacity="1" transform="matrix(1,0,0,1,28.051000595092773,11.725000381469727)"><path fill="rgb(207,144,71)" fill-opacity="1" d=" M-23.520999908447266,10.786999702453613 C-22.555999755859375,11.241999626159668 -21.503000259399414,11.475000381469727 -20.445999145507812,11.475000381469727 C-19.660999298095703,11.475000381469727 -18.874000549316406,11.347000122070312 -18.117000579833984,11.086999893188477 C-17.360000610351562,10.82800006866455 -16.635000228881836,10.437999725341797 -15.972999572753906,9.911999702453613 C-7.9039998054504395,3.492000102996826 -0.30399999022483826,2.813999891281128 5.479000091552734,3.8940000534057617 C11.26200008392334,4.973999977111816 15.227999687194824,7.810999870300293 16.031999588012695,8.423999786376953 C17.591999053955078,9.63599967956543 19.496000289916992,10.104000091552734 21.315000534057617,9.883000373840332 C23.134000778198242,9.661999702453613 24.868999481201172,8.75 26.091999053955078,7.197000026702881 C27.320999145507812,5.63700008392334 27.801000595092773,3.7269999980926514 27.583999633789062,1.899999976158142 C27.367000579833984,0.0729999989271164 26.452999114990234,-1.6710000038146973 24.893999099731445,-2.9000000953674316 C20.733999252319336,-6.175000190734863 13.37399959564209,-9.83899974822998 4.50600004196167,-10.656999588012695 C-4.361999988555908,-11.475000381469727 -14.736000061035156,-9.446000099182129 -24.926000595092773,-1.3389999866485596 C-26.479999542236328,-0.10400000214576721 -27.385000228881836,1.6449999809265137 -27.593000411987305,3.4730000495910645 C-27.801000595092773,5.302000045776367 -27.312000274658203,7.208000183105469 -26.075000762939453,8.76200008392334 C-25.364999771118164,9.652999877929688 -24.48699951171875,10.331000328063965 -23.520999908447266,10.786999702453613z"></path></g></g><g transform="matrix(1,0,0,1,202.8590087890625,292.87298583984375)" opacity="1" style="display: block;"><g opacity="1" transform="matrix(1,0,0,1,47.882999420166016,57.454002380371094)"><path fill="rgb(207,144,71)" fill-opacity="1" d=" M46.00299835205078,-17.520999908447266 C44.18600082397461,-34.13100051879883 37.27899932861328,-43.79100036621094 29.523000717163086,-49.99700164794922 C26.757999420166016,-53.57600021362305 23.72100067138672,-58.96900177001953 15.378999710083008,-58.979000091552734 C5.211999893188477,-58.9900016784668 2.3469998836517334,-58.14099884033203 -3.3389999866485596,-58.24800109863281 C-7.492000102996826,-58.32600021362305 -12.241999626159668,-58.07600021362305 -15.991999626159668,-57.20399856567383 C-23.9950008392334,-54.992000579833984 -30.236000061035156,-51.32699966430664 -34.959999084472656,-45.83399963378906 C-42.26599884033203,-37.33700180053711 -45.96500015258789,-24.485000610351562 -47.0369987487793,-5.960999965667725 C-47.632999420166016,4.329999923706055 -47.3489990234375,14.998000144958496 -45.16299819946289,24.523000717163086 C-44.96200180053711,25.399999618530273 -44.74300003051758,26.266000747680664 -44.50899887084961,27.12299919128418 C-44.202999114990234,28.23699951171875 -43.87099838256836,29.334999084472656 -43.50600051879883,30.40999984741211 C-42.551998138427734,33.22100067138672 -41.400001525878906,35.89400100708008 -39.99300003051758,38.36800003051758 C-38.060001373291016,41.770999908447266 -35.64699935913086,44.79399871826172 -32.71200180053711,47.3489990234375 C-25.260000228881836,53.83300018310547 -14.333999633789062,57.20500183105469 1.4839999675750732,55.41999816894531 C14.196000099182129,53.98500061035156 23.756000518798828,50.888999938964844 30.756000518798828,45.9370002746582 C35.05400085449219,42.89799880981445 38.393001556396484,39.15999984741211 40.88999938964844,34.67399978637695 C41.65999984741211,33.290000915527344 42.34299850463867,31.83099937438965 42.95899963378906,30.30500030517578 C43.81700134277344,28.174999237060547 44.52199935913086,25.893999099731445 45.097999572753906,23.479999542236328 C47.632999420166016,12.868000030517578 47.80799865722656,-1.0180000066757202 46.00299835205078,-17.520999908447266z"></path></g></g><g transform="matrix(1,0,0,1,233.5130157470703,235.3990020751953)" opacity="1" style="display: block;"><g opacity="1" transform="matrix(1,0,0,1,23.933000564575195,37.35499954223633)"><path fill="rgb(244,155,143)" fill-opacity="1" d=" M11.38700008392334,9.545999526977539 C5.238999843597412,7.801000118255615 -0.9110000133514404,7.931000232696533 -0.9110000133514404,7.931000232696533 C-0.9110000133514404,7.931000232696533 0.4959999918937683,-2.6640000343322754 0.20200000703334808,-13.479999542236328 C-0.09300000220537186,-24.29599952697754 -2.0869998931884766,-35.33399963378906 -8.890999794006348,-36.220001220703125 C-15.694999694824219,-37.10499954223633 -20.19700050354004,-23.22100067138672 -22.173999786376953,-7.959000110626221 C-23.48699951171875,2.187999963760376 -23.683000564575195,12.937999725341797 -22.69700050354004,20.368000030517578 C-22.198999404907227,24.115999221801758 -21.402000427246094,27.023000717163086 -20.29400062561035,28.573999404907227 C-16.988000869750977,33.202999114990234 -5.993000030517578,37.08399963378906 4.173999786376953,37.095001220703125 C12.517000198364258,37.10499954223633 20.292999267578125,34.5 22.819000244140625,27.575000762939453 C23.371000289916992,26.06100082397461 23.68199920654297,24.349000930786133 23.68199920654297,22.402000427246094 C23.68199920654297,14.907999992370605 17.534000396728516,11.289999961853027 11.38700008392334,9.545999526977539z"></path></g></g><g transform="matrix(1,0,0,1,219.42599487304688,322.9170227050781)" opacity="1" style="display: block;"><g opacity="1" transform="matrix(1,0,0,1,30.724000930786133,18.959999084472656)"><path fill="rgb(247,180,171)" fill-opacity="1" d=" M2.078000068664551,17.78700065612793 C16.51099967956543,16.865999221801758 23.570999145507812,13.192999839782715 27.023000717163086,9.75100040435791 C30.475000381469727,6.308000087738037 30.31800079345703,3.0980000495910645 30.31800079345703,3.0980000495910645 C16.990999221801758,0.14800000190734863 9.529999732971191,-5.303999900817871 5.400000095367432,-10.019000053405762 C1.2690000534057617,-14.732999801635742 0.47099998593330383,-18.709999084472656 0.47099998593330383,-18.709999084472656 C-0.9509999752044678,-11.657999992370605 -8.689000129699707,-5.760000228881836 -16.069000244140625,-1.6239999532699585 C-23.450000762939453,2.51200008392334 -30.475000381469727,4.885000228881836 -30.475000381469727,4.885000228881836 C-30.475000381469727,4.885000228881836 -29.554000854492188,8.571000099182129 -25.02400016784668,12.027000427246094 C-20.493999481201172,15.482999801635742 -12.354999542236328,18.708999633789062 2.078000068664551,17.78700065612793z"></path></g></g><g transform="matrix(1,0,0,1,278.6100158691406,394.4019775390625)" opacity="1" style="display: block;"><g opacity="1" transform="matrix(1,0,0,1,67.00299835205078,48.99800109863281)"><path fill="rgb(236,230,231)" fill-opacity="1" d=" M55.11600112915039,-22.17099952697754 C55.11600112915039,-22.17099952697754 55.11600112915039,-22.17099952697754 55.11600112915039,-22.17099952697754 C55.11600112915039,-22.17099952697754 -15.07699966430664,-39.94599914550781 -21.523000717163086,-41.209999084472656 C-21.523000717163086,-41.209999084472656 -21.523000717163086,-41.21099853515625 -21.52400016784668,-41.21099853515625 C-21.52400016784668,-41.21099853515625 -61.430999755859375,-48.74800109863281 -61.430999755859375,-48.74800109863281 C-61.430999755859375,-48.74800109863281 -64.11499786376953,-47.137001037597656 -64.11499786376953,-47.137001037597656 C-64.11499786376953,-47.137001037597656 -66.75299835205078,-40.41999816894531 -66.75299835205078,-40.41999816894531 C-66.75299835205078,-40.41999816894531 -66.75299835205078,-40.41899871826172 -66.75299835205078,-40.41899871826172 C-65.6760025024414,-37.099998474121094 -64.50800323486328,-33.11000061035156 -63.34199905395508,-28.385000228881836 C-60.73500061035156,-17.816999435424805 -58.15999984741211,-3.6610000133514404 -56.720001220703125,14.258000373840332 C-55.91699981689453,24.242000579833984 -55.459999084472656,35.37900161743164 -55.555999755859375,47.750999450683594 C-55.558998107910156,48.08000183105469 -55.569000244140625,48.41699981689453 -55.571998596191406,48.74800109863281 C-38.95899963378906,46.025001525878906 -22.913999557495117,41.61600112915039 -7.622000217437744,35.691001892089844 C-7.622000217437744,35.691001892089844 -7.622000217437744,35.69200134277344 -7.622000217437744,35.69200134277344 C26.534000396728516,23.332000732421875 52.95000076293945,1.4630000591278076 52.95000076293945,1.4630000591278076 C57.69300079345703,-2.2070000171661377 62.29899978637695,-6.047999858856201 66.75299835205078,-10.053999900817871 C61.229000091552734,-16.577999114990234 56.66899871826172,-20.91900062561035 55.11600112915039,-22.17099952697754z"></path></g></g><g transform="matrix(1,0,0,1,88.60000610351562,394.40301513671875)" opacity="1" style="display: block;"><g opacity="1" transform="matrix(1,0,0,1,66.50599670410156,48.999000549316406)"><path fill="rgb(236,230,231)" fill-opacity="1" d=" M66.25499725341797,-37.2400016784668 C65.09100341796875,-39.29199981689453 64.54399871826172,-41.10499954223633 64.177001953125,-42.53499984741211 C64.177001953125,-42.53499984741211 62.92499923706055,-45.72600173950195 62.92499923706055,-45.72600173950195 C62.92499923706055,-45.72600173950195 62.92399978637695,-45.72600173950195 62.92399978637695,-45.72700119018555 C61.744998931884766,-46.37200164794922 59.70399856567383,-48.749000549316406 59.70399856567383,-48.749000549316406 C59.70399856567383,-48.749000549316406 22.020999908447266,-41.209999084472656 22.020999908447266,-41.209999084472656 C22.007999420166016,-41.19200134277344 21.9950008392334,-41.17599868774414 21.98200035095215,-41.159000396728516 C21.9950008392334,-41.17599868774414 22.006999969482422,-41.194000244140625 22.020999908447266,-41.21200180053711 C22.020999908447266,-41.21200180053711 -11.217000007629395,-32.95399856567383 -11.217000007629395,-32.95399856567383 C-11.217000007629395,-32.95399856567383 -14.553000450134277,-32.124000549316406 -14.553000450134277,-32.124000549316406 C-14.553000450134277,-32.124000549316406 -33.0620002746582,-27.527000427246094 -33.0620002746582,-27.527000427246094 C-33.0620002746582,-27.527000427246094 -54.61899948120117,-22.17099952697754 -54.61899948120117,-22.17099952697754 C-56.137001037597656,-20.950000762939453 -60.689998626708984,-16.628999710083008 -66.25599670410156,-10.053000450134277 C-61.801998138427734,-6.047999858856201 -57.19599914550781,-2.2070000171661377 -52.45199966430664,1.4630000591278076 C-52.45199966430664,1.4630000591278076 -52.45199966430664,1.4579999446868896 -52.45199966430664,1.4579999446868896 C-52.45199966430664,1.4579999446868896 -52.45199966430664,1.4630000591278076 -52.45199966430664,1.4630000591278076 C-34.16299819946289,15.61400032043457 -13.795999526977539,27.201000213623047 8.119000434875488,35.691001892089844 C8.119000434875488,35.67499923706055 8.119999885559082,35.659000396728516 8.121000289916992,35.643001556396484 C8.119999885559082,35.659000396728516 8.119999885559082,35.67599868774414 8.119000434875488,35.69300079345703 C23.410999298095703,41.61600112915039 39.45600128173828,46.0260009765625 56.06999969482422,48.749000549316406 C56.066001892089844,48.417999267578125 56.055999755859375,48.08000183105469 56.053001403808594,47.750999450683594 C55.952999114990234,34.85200119018555 56.446998596191406,23.275999069213867 57.316001892089844,12.970999717712402 C58.775001525878906,-4.3470001220703125 61.29399871826172,-18.06599998474121 63.8390007019043,-28.385000228881836 C64.65399932861328,-31.68600082397461 65.46900177001953,-34.625999450683594 66.25599670410156,-37.237998962402344 C66.25599670410156,-37.237998962402344 66.25499725341797,-37.2400016784668 66.25499725341797,-37.2400016784668z"></path></g></g></g></svg>