<svg xmlns="http://www.w3.org/2000/svg" viewBox="0 0 500 500" width="500" height="500" preserveAspectRatio="xMidYMid meet" style="width: 100%; height: 100%; transform: translate3d(0px, 0px, 0px);"><defs><clipPath id="__lottie_element_213"><rect width="500" height="500" x="0" y="0"></rect></clipPath><clipPath id="__lottie_element_217"><path fill="#ffffff" clip-rule="nonzero" d=" M111.27100372314453,36.676998138427734 C56.03900146484375,36.676998138427734 -17.913000106811523,65.74099731445312 11.265000343322754,141.677001953125 C41.95899963378906,221.55999755859375 65.7509994506836,257.78900146484375 111.27100372314453,258.677001953125 C151.5050048828125,259.4620056152344 174.5330047607422,228.5019989013672 211.27699279785156,141.677001953125 C244.22300720214844,63.82600021362305 166.5030059814453,36.676998138427734 111.27100372314453,36.676998138427734" fill-opacity="1"></path></clipPath><linearGradient id="__lottie_element_227" spreadMethod="pad" gradientUnits="userSpaceOnUse" x1="0" y1="0" x2="100" y2="0"><stop offset="0%" stop-color="rgb(0,216,255)"></stop><stop offset="50%" stop-color="rgb(14,119,255)"></stop><stop offset="100%" stop-color="rgb(28,22,255)"></stop></linearGradient><linearGradient id="__lottie_element_231" spreadMethod="pad" gradientUnits="userSpaceOnUse" x1="0" y1="0" x2="100" y2="0"><stop offset="0%" stop-color="rgb(0,216,255)"></stop><stop offset="50%" stop-color="rgb(14,119,255)"></stop><stop offset="100%" stop-color="rgb(28,22,255)"></stop></linearGradient><linearGradient id="__lottie_element_235" spreadMethod="pad" gradientUnits="userSpaceOnUse" x1="0" y1="0" x2="100" y2="0"><stop offset="0%" stop-color="rgb(0,216,255)"></stop><stop offset="50%" stop-color="rgb(14,119,255)"></stop><stop offset="100%" stop-color="rgb(28,22,255)"></stop></linearGradient><linearGradient id="__lottie_element_239" spreadMethod="pad" gradientUnits="userSpaceOnUse" x1="0" y1="0" x2="100" y2="0"><stop offset="0%" stop-color="rgb(0,216,255)"></stop><stop offset="50%" stop-color="rgb(14,119,255)"></stop><stop offset="100%" stop-color="rgb(28,22,255)"></stop></linearGradient></defs><g clip-path="url(#__lottie_element_213)"><g transform="matrix(0.9975039958953857,-0.03216974437236786,0.15505802631378174,0.9975028038024902,152.99609375,222.98023986816406)" opacity="1" style="display: block;"><g opacity="1" transform="matrix(1,0,0,1,12.13599967956543,27.639999389648438)"><path fill="rgb(150,97,90)" fill-opacity="1" d=" M-11.154000282287598,-12.20300006866455 C-11.619000434875488,-9.34000015258789 -11.88599967956543,-6.111999988555908 -11.878999710083008,-2.424999952316284 C-11.87600040435791,-1.0240000486373901 -11.800000190734863,0.296999990940094 -11.692999839782715,1.5829999446868896 C-11.531999588012695,3.515000104904175 -11.267000198364258,5.328000068664551 -10.892000198364258,7.010000228881836 C-9.53499984741211,13.109000205993652 -6.86899995803833,17.601999282836914 -3.5429999828338623,20.79599952697754 C-3.4830000400543213,20.854000091552734 -3.427000045776367,20.920000076293945 -3.365999937057495,20.97800064086914 C-0.3919999897480011,23.77199935913086 3.0899999141693115,25.54599952697754 6.622000217437744,26.514999389648438 C8.383000373840332,26.99799919128418 10.156000137329102,27.280000686645508 11.88599967956543,27.389999389648438 C11.39799976348877,23.492000579833984 11.116999626159668,19.5310001373291 11.116999626159668,15.503000259399414 C11.116999626159668,15.503000259399414 11.116999626159668,12.218999862670898 11.116999626159668,12.218999862670898 C10.833999633789062,12.383999824523926 10.541000366210938,12.454000473022461 10.234999656677246,12.40999984741211 C7.927999973297119,12.07800006866455 6.501999855041504,5.968999862670898 5.625,-1.9769999980926514 C4.749000072479248,-9.923999786376953 4.421999931335449,-19.708999633789062 4.310999870300293,-27.389999389648438 C2.444999933242798,-26.41699981689453 -2.3459999561309814,-32.29899978637695 -4.581999778747559,-31.55900001525879 C-6.330999851226807,-30.981000900268555 -9.13700008392334,-28.309999465942383 -9.699000358581543,-25.575000762939453 C-10.13700008392334,-22.309999465942383 -10.63700008392334,-20.684999465942383 -10.645000457763672,-18.2549991607666 C-10.649999618530273,-16.54400062561035 -10.829999923706055,-14.194999694824219 -11.154000282287598,-12.20300006866455z"></path></g></g><g transform="matrix(-1.0008453130722046,-0.024753009900450706,-0.11875727027654648,0.9962124824523926,352.1701965332031,221.61029052734375)" opacity="1" style="display: block;"><g opacity="1" transform="matrix(1,0,0,1,12.13599967956543,27.639999389648438)"><path fill="rgb(150,97,90)" fill-opacity="1" d=" M-11.154000282287598,-12.20300006866455 C-11.619000434875488,-9.34000015258789 -11.88599967956543,-6.111999988555908 -11.878999710083008,-2.424999952316284 C-11.87600040435791,-1.0240000486373901 -11.800000190734863,0.296999990940094 -11.692999839782715,1.5829999446868896 C-11.531999588012695,3.515000104904175 -11.267000198364258,5.328000068664551 -10.892000198364258,7.010000228881836 C-9.53499984741211,13.109000205993652 -6.86899995803833,17.601999282836914 -3.5429999828338623,20.79599952697754 C-3.4830000400543213,20.854000091552734 -3.427000045776367,20.920000076293945 -3.365999937057495,20.97800064086914 C-0.3919999897480011,23.77199935913086 3.0899999141693115,25.54599952697754 6.622000217437744,26.514999389648438 C8.383000373840332,26.99799919128418 10.156000137329102,27.280000686645508 11.88599967956543,27.389999389648438 C11.39799976348877,23.492000579833984 11.116999626159668,19.5310001373291 11.116999626159668,15.503000259399414 C11.116999626159668,15.503000259399414 11.116999626159668,12.218999862670898 11.116999626159668,12.218999862670898 C10.833999633789062,12.383999824523926 10.541000366210938,12.454000473022461 10.234999656677246,12.40999984741211 C7.927999973297119,12.07800006866455 6.501999855041504,5.968999862670898 5.625,-1.9769999980926514 C4.749000072479248,-9.923999786376953 4.421999931335449,-19.708999633789062 4.310999870300293,-27.389999389648438 C2.444999933242798,-26.41699981689453 -2.3459999561309814,-32.29899978637695 -4.581999778747559,-31.55900001525879 C-6.330999851226807,-30.981000900268555 -9.13700008392334,-28.309999465942383 -9.699000358581543,-25.575000762939453 C-10.13700008392334,-22.309999465942383 -10.63700008392334,-20.684999465942383 -10.645000457763672,-18.2549991607666 C-10.649999618530273,-16.54400062561035 -10.829999923706055,-14.194999694824219 -11.154000282287598,-12.20300006866455z"></path></g></g><g transform="matrix(1,0,0,1,218.89199829101562,490.8289794921875)" opacity="1" style="display: block;"><g opacity="1" transform="matrix(1,0,0,1,7.794000148773193,0.9760000109672546)"><path fill="rgb(45,72,134)" fill-opacity="1" d=" M7.545000076293945,0.7250000238418579 C2.114000082015991,0.2540000081062317 -3.390000104904175,-0.2809999883174896 -7.545000076293945,-0.7250000238418579 C-0.7770000100135803,0.11299999803304672 1.253000020980835,0.6069999933242798 7.545000076293945,0.7250000238418579z"></path></g></g><g transform="matrix(1,0,0,1,291.20599365234375,489.6409912109375)" opacity="1" style="display: block;"><g opacity="1" transform="matrix(1,0,0,1,1.2790000438690186,0.44600000977516174)"><path fill="rgb(236,230,231)" fill-opacity="1" d=" M-1.0290000438690186,0.19599999487400055 C-0.34200000762939453,0.08299999684095383 0.34200000762939453,-0.035999998450279236 1.0290000438690186,-0.15600000321865082 C1.0290000438690186,-0.15600000321865082 1.024999976158142,-0.19599999487400055 1.024999976158142,-0.19599999487400055 C0.656000018119812,-0.1289999932050705 0.02199999988079071,-0.008999999612569809 -1.0290000438690186,0.19599999487400055z"></path></g></g><g transform="matrix(1,0,0,1,215.73699951171875,392.5369873046875)" opacity="1" style="display: block;"><g opacity="1" transform="matrix(1,0,0,1,0.36899998784065247,0.3619999885559082)"><path fill="rgb(236,230,231)" fill-opacity="1" d=" M0.11900000274181366,-0.1120000034570694 C0.11900000274181366,-0.1120000034570694 -0.09600000083446503,-0.06800000369548798 -0.09600000083446503,-0.06800000369548798 C-0.10400000214576721,-0.00800000037997961 -0.11100000143051147,0.052000001072883606 -0.11900000274181366,0.1120000034570694 C-0.11900000274181366,0.1120000034570694 0.11900000274181366,-0.1120000034570694 0.11900000274181366,-0.1120000034570694z"></path></g></g><g transform="matrix(1,0,0,1,252.34300231933594,390.4469909667969)" opacity="1" style="display: block;"><g opacity="1" transform="matrix(1,0,0,1,12.527999877929688,10.734000205993652)"><path fill="rgb(45,72,134)" fill-opacity="1" d=" M-12.277999877929688,10.475000381469727 C-12.277999877929688,10.475000381469727 -12.277999877929688,10.475000381469727 -12.277999877929688,10.475000381469727 C-3.1700000762939453,10.484000205993652 5.940000057220459,5.64300012588501 9.753000259399414,-4.057000160217285 C9.753000259399414,-4.057000160217285 12.277999877929688,-10.484000205993652 12.277999877929688,-10.484000205993652 C12.277999877929688,-10.484000205993652 9.753000259399414,-4.057000160217285 9.753000259399414,-4.057000160217285 C5.939000129699707,5.64300012588501 -3.1700000762939453,10.484000205993652 -12.277999877929688,10.475000381469727z"></path></g></g><g transform="matrix(1,0,0,1,293.2649841308594,489.6679992675781)" opacity="1" style="display: block;"><g opacity="1" transform="matrix(1,0,0,1,0.289000004529953,0.25999999046325684)"><path fill="rgb(45,72,134)" fill-opacity="1" d=" M-0.039000000804662704,0.009999999776482582 C-0.039000000804662704,0.009999999776482582 -0.00800000037997961,0.0010000000474974513 0.039000000804662704,-0.009999999776482582 C0.013000000268220901,-0.004999999888241291 -0.013000000268220901,0 -0.039000000804662704,0.004999999888241291 C-0.039000000804662704,0.004999999888241291 -0.039000000804662704,0.009999999776482582 -0.039000000804662704,0.009999999776482582z"></path></g></g><g transform="matrix(1,0,0,1,227.5449981689453,389.7690124511719)" opacity="1" style="display: block;"><g opacity="1" transform="matrix(1,0,0,1,12.64900016784668,11.069000244140625)"><path fill="rgb(45,72,134)" fill-opacity="1" d=" M-9.625,-3.753999948501587 C-9.625,-3.753999948501587 -12.39799976348877,-10.817999839782715 -12.39799976348877,-10.817999839782715 C-12.39799976348877,-10.817999839782715 -12.39900016784668,-10.817999839782715 -12.39900016784668,-10.817999839782715 C-12.39900016784668,-10.817999839782715 -9.625,-3.753000020980835 -9.625,-3.753000020980835 C-5.816999912261963,5.947999954223633 3.2899999618530273,10.809000015258789 12.39900016784668,10.817999839782715 C3.2909998893737793,10.809000015258789 -5.815999984741211,5.947999954223633 -9.625,-3.753999948501587z"></path></g></g><g transform="matrix(1,0,0,1,293.260986328125,489.49200439453125)" opacity="1" style="display: block;"><g opacity="1" transform="matrix(1,0,0,1,0.6700000166893005,0.3449999988079071)"><path fill="rgb(45,72,134)" fill-opacity="1" d=" M-0.41999998688697815,0.054999999701976776 C-0.41999998688697815,0.054999999701976776 -0.41600000858306885,0.0949999988079071 -0.41600000858306885,0.0949999988079071 C-0.38999998569488525,0.09000000357627869 -0.3630000054836273,0.0860000029206276 -0.3370000123977661,0.08100000023841858 C-0.11800000071525574,0.03200000151991844 0.41999998688697815,-0.0949999988079071 -0.41999998688697815,0.054999999701976776z"></path></g></g><g transform="matrix(1,0,0,1,90.01499938964844,389.7669982910156)" opacity="1" style="display: block;"><g opacity="1" transform="matrix(1,0,0,1,162.00799560546875,52.0880012512207)"><path fill="rgb(45,72,134)" fill-opacity="1" d=" M150.12100219726562,-22.490999221801758 C150.12100219726562,-22.490999221801758 79.927001953125,-40.26599884033203 73.48200225830078,-41.529998779296875 C73.48200225830078,-41.53099822998047 73.48100280761719,-41.53099822998047 73.48100280761719,-41.53099822998047 C73.48100280761719,-41.53099822998047 37.1870002746582,-48.38600158691406 37.1870002746582,-48.38600158691406 C37.1870002746582,-48.38600158691406 33.8849983215332,-49.0099983215332 33.8849983215332,-49.0099983215332 C33.8849983215332,-49.0099983215332 25.125999450683594,-51.15800094604492 25.125999450683594,-51.15800094604492 C25.125999450683594,-51.15800094604492 22.60099983215332,-44.731998443603516 22.60099983215332,-44.731998443603516 C18.788000106811523,-35.03200149536133 9.678000450134277,-30.19099998474121 0.5690000057220459,-30.200000762939453 C-8.539999961853027,-30.209999084472656 -17.64699935913086,-35.06999969482422 -21.454999923706055,-44.770999908447266 C-21.454999923706055,-44.770999908447266 -24.229000091552734,-51.8380012512207 -24.229000091552734,-51.8380012512207 C-24.229000091552734,-51.8380012512207 -35.79899978637695,-49.06800079345703 -35.79899978637695,-49.06800079345703 C-35.79899978637695,-49.06800079345703 -36.0369987487793,-48.845001220703125 -36.0369987487793,-48.845001220703125 C-36.02899932861328,-48.904998779296875 -36.02199935913086,-48.965999603271484 -36.013999938964844,-49.025001525878906 C-36.013999938964844,-49.025001525878906 -73.48200225830078,-41.529998779296875 -73.48200225830078,-41.529998779296875 C-73.49500274658203,-41.51300048828125 -73.50800323486328,-41.49599838256836 -73.52200317382812,-41.47800064086914 C-73.50800323486328,-41.49599838256836 -73.49500274658203,-41.51300048828125 -73.48200225830078,-41.53099822998047 C-73.48200225830078,-41.53099822998047 -106.71900177001953,-33.27299880981445 -106.71900177001953,-33.27299880981445 C-106.71900177001953,-33.27299880981445 -110.05599975585938,-32.44499969482422 -110.05599975585938,-32.44499969482422 C-110.05599975585938,-32.44499969482422 -128.56500244140625,-27.84600067138672 -128.56500244140625,-27.84600067138672 C-128.56500244140625,-27.84600067138672 -150.1219940185547,-22.490999221801758 -150.1219940185547,-22.490999221801758 C-151.63900756835938,-21.270000457763672 -156.1929931640625,-16.948999404907227 -161.75799560546875,-10.37399959564209 C-157.3040008544922,-6.368000030517578 -152.697998046875,-2.5280001163482666 -147.9550018310547,1.1430000066757202 C-147.9550018310547,1.1430000066757202 -147.9550018310547,1.1380000114440918 -147.9550018310547,1.1380000114440918 C-147.9550018310547,1.1380000114440918 -147.9550018310547,1.1419999599456787 -147.9550018310547,1.1419999599456787 C-129.66600036621094,15.293000221252441 -109.29900360107422,26.881000518798828 -87.38400268554688,35.37099838256836 C-87.38300323486328,35.35499954223633 -87.38200378417969,35.3380012512207 -87.38200378417969,35.321998596191406 C-87.38200378417969,35.3390007019043 -87.38300323486328,35.35599899291992 -87.38400268554688,35.37200164794922 C-72.09100341796875,41.29600143432617 -56.04600143432617,45.70500183105469 -39.43299865722656,48.42900085449219 C-38.48400115966797,48.59199905395508 -36.08300018310547,48.88100051879883 -32.882999420166016,49.2239990234375 C-28.726999282836914,49.667999267578125 -23.224000930786133,50.20399856567383 -17.79400062561035,50.67499923706055 C-10.37399959564209,51.31800079345703 -3.0920000076293945,51.8380012512207 0.4169999957084656,51.8380012512207 C8.473999977111816,51.8380012512207 35.47999954223633,49.198001861572266 39.43299865722656,48.428001403808594 C40.483001708984375,48.222999572753906 41.11800003051758,48.10300064086914 41.48699951171875,48.0359992980957 C42.32699966430664,47.88600158691406 41.78900146484375,48.01300048828125 41.56999969482422,48.0629997253418 C57.42300033569336,45.319000244140625 72.7490005493164,41.040000915527344 87.38300323486328,35.37099838256836 C121.53900146484375,23.011999130249023 147.9550018310547,1.1430000066757202 147.9550018310547,1.1430000066757202 C152.697998046875,-2.5280001163482666 157.3040008544922,-6.368000030517578 161.75799560546875,-10.37399959564209 C156.23399353027344,-16.89900016784668 151.6739959716797,-21.23900032043457 150.12100219726562,-22.490999221801758z"></path></g></g><g transform="matrix(1,0,0,1,220.1959991455078,385.49798583984375)" opacity="1" style="display: block;"><g opacity="1" transform="matrix(1,0,0,1,33.60599899291992,16.982999801635742)"><path fill="rgb(65,105,149)" fill-opacity="1" d=" M-33.35599899291992,-10.704000473022461 C-30.06800079345703,-1.6610000133514404 -24.22100067138672,8.52299976348877 -15.467000007629395,13.074000358581543 C-13.095000267028809,14.307999610900879 -10.53600025177002,15.161999702453613 -7.936999797821045,15.770999908447266 C-5.394999980926514,16.364999771118164 -2.7890000343322754,16.733999252319336 -0.17800000309944153,16.69300079345703 C4.931000232696533,16.613000869750977 9.878999710083008,14.972999572753906 14.652999877929688,13.149999618530273 C16.093000411987305,12.600000381469727 17.531999588012695,12.027999877929688 18.875,11.27299976348877 C23.174999237060547,8.852999687194824 25.722999572753906,4.5289998054504395 28.141000747680664,0.4090000092983246 C28.510000228881836,-0.2199999988079071 33.35599899291992,-9.39900016784668 32.97700119018555,-9.470999717712402 C32.10599899291992,-9.635000228881836 23.347000122070312,-11.782999992370605 23.347000122070312,-11.782999992370605 C23.347000122070312,-11.782999992370605 -5.458000183105469,-16.733999252319336 -5.458000183105469,-16.733999252319336 C-5.458000183105469,-16.733999252319336 -26.006999969482422,-12.46500015258789 -26.006999969482422,-12.46500015258789 C-26.006999969482422,-12.46500015258789 -33.35599899291992,-10.704000473022461 -33.35599899291992,-10.704000473022461z"></path></g></g><g transform="matrix(0.9671199917793274,0,0,1.219499945640564,213.69322204589844,296.0733642578125)" opacity="1" style="display: block;"><g opacity="1" transform="matrix(1,0,0,1,40.04499816894531,47.643001556396484)"><path fill="rgb(151,100,93)" fill-opacity="1" d=" M7.959000110626221,-41.88199996948242 C7.959000110626221,-41.88199996948242 0.012000000104308128,-41.88199996948242 0.012000000104308128,-41.88199996948242 C0.012000000104308128,-41.88199996948242 -7.935999870300293,-41.88199996948242 -7.935999870300293,-41.88199996948242 C-19.117000579833984,-41.88199996948242 -29.83799934387207,-43.83399963378906 -39.79600143432617,-47.393001556396484 C-39.79600143432617,-47.393001556396484 -38.702999114990234,-12.043000221252441 -38.702999114990234,-12.043000221252441 C-38.702999114990234,-12.043000221252441 -36.63999938964844,-4.380000114440918 -36.63999938964844,-4.380000114440918 C-36.63999938964844,-4.380000114440918 -33.874000549316406,2.6700000762939453 -33.874000549316406,2.6700000762939453 C-33.874000549316406,2.6700000762939453 -33.65399932861328,3.2300000190734863 -33.65399932861328,3.2300000190734863 C-33.65399932861328,3.2300000190734863 -33.65299987792969,3.2300000190734863 -33.65299987792969,3.2300000190734863 C-33.65299987792969,3.2300000190734863 -24.81800079345703,25.746000289916992 -24.81800079345703,25.746000289916992 C-24.81800079345703,25.746000289916992 -22.04400062561035,32.81100082397461 -22.04400062561035,32.81100082397461 C-18.236000061035156,42.513999938964844 -9.128999710083008,47.374000549316406 -0.019999999552965164,47.38399887084961 C9.088000297546387,47.391998291015625 18.19700050354004,42.553001403808594 22.011999130249023,32.85200119018555 C22.011999130249023,32.85200119018555 24.535999298095703,26.426000595092773 24.535999298095703,26.426000595092773 C24.535999298095703,26.426000595092773 33.87799835205078,2.6480000019073486 33.87799835205078,2.6480000019073486 C33.87799835205078,2.6480000019073486 33.893001556396484,2.609999895095825 33.893001556396484,2.609999895095825 C33.893001556396484,2.609999895095825 35.39799880981445,-1.2259999513626099 35.39799880981445,-1.2259999513626099 C35.39799880981445,-1.2259999513626099 38.698001861572266,-12.034000396728516 38.698001861572266,-12.034000396728516 C38.698001861572266,-12.034000396728516 39.79600143432617,-47.3849983215332 39.79600143432617,-47.3849983215332 C29.844999313354492,-43.83100128173828 19.131999969482422,-41.88199996948242 7.959000110626221,-41.88199996948242z"></path></g></g><g transform="matrix(1,0,0,1,250,250)" opacity="0.13" style="display: block;"><g opacity="1" transform="matrix(1,0,0,1,0,0)"><path fill="rgb(0,0,0)" fill-opacity="1" d=" M41.5,79 C46,46 -29,80.5 -29,80.5 C-29,80.5 -32,93.5 -32,93.5 C-32,93.5 -12,124 0.5,126 C13,128 37,112 41.5,79z"></path><path stroke-linecap="butt" stroke-linejoin="miter" fill-opacity="0" stroke-miterlimit="4" stroke="rgb(255,255,255)" stroke-opacity="1" stroke-width="2" d="M0 0"></path></g></g><g clip-path="url(#__lottie_element_217)" transform="matrix(0.851044237613678,0,0,1,157.0259246826172,98.32379913330078)" opacity="1" style="display: block;"><g opacity="1" transform="matrix(1,0,0,1,109.37000274658203,129.6439971923828)"><path fill="rgb(161,108,101)" fill-opacity="1" d=" M107.35900115966797,-12.354000091552734 C105.5989990234375,-15.87399959564209 105.13700103759766,-42.40399932861328 102.91500091552734,-46.80400085449219 C100.69200134277344,-51.20399856567383 94.4530029296875,-70.13999938964844 90.93299865722656,-76.00599670410156 C87.41300201416016,-81.87300109863281 79.78600311279297,-93.31300354003906 77.73300170898438,-95.66000366210938 C75.67900085449219,-98.00599670410156 61.89400100708008,-97.1259994506836 60.573001861572266,-113.25900268554688 C59.25299835205078,-129.39300537109375 -5.867000102996826,-120.59300231933594 -9.680999755859375,-120.29900360107422 C-13.494000434875488,-120.00599670410156 -43.119998931884766,-123.81900024414062 -52.2140007019043,-117.9530029296875 C-61.30699920654297,-112.08599853515625 -79.78700256347656,-98.98600006103516 -85.9469985961914,-93.8030014038086 C-92.10700225830078,-88.62000274658203 -103.25399780273438,-52.24599838256836 -106.18699645996094,-49.3129997253418 C-109.12000274658203,-46.37900161743164 -106.18699645996094,-12.354000091552734 -106.18699645996094,-12.354000091552734 C-106.18699645996094,-12.354000091552734 -102.66699981689453,-4.429999828338623 -102.66699981689453,-4.429999828338623 C-102.66699981689453,-4.429999828338623 -100.10199737548828,31.43600082397461 -100.10199737548828,31.43600082397461 C-100.10199737548828,31.43600082397461 -100.10099792480469,31.437999725341797 -100.10099792480469,31.437999725341797 C-100.10099792480469,31.437999725341797 -100.10099792480469,34.72100067138672 -100.10099792480469,34.72100067138672 C-100.10099792480469,38.750999450683594 -99.82099914550781,42.709999084472656 -99.33200073242188,46.606998443603516 C-96.6510009765625,67.99400329589844 -86.86399841308594,87.1729965209961 -72.37200164794922,101.66500091552734 C-70.08599853515625,103.94999694824219 -67.677001953125,106.10900115966797 -65.16899871826172,108.1520004272461 C-61.194000244140625,111.38999938964844 -56.94300079345703,114.29900360107422 -52.47100067138672,116.86699676513672 C-49.38100051879883,118.63899993896484 -46.189998626708984,120.25299835205078 -42.89400100708008,121.6760025024414 C-41.05400085449219,122.46900177001953 -39.185001373291016,123.20500183105469 -37.2869987487793,123.88300323486328 C-27.329999923706055,127.44100189208984 -16.608999252319336,129.39300537109375 -5.428999900817871,129.39300537109375 C-5.428999900817871,129.39300537109375 2.5199999809265137,129.39300537109375 2.5199999809265137,129.39300537109375 C2.5199999809265137,129.39300537109375 10.467000007629395,129.39300537109375 10.467000007629395,129.39300537109375 C21.639999389648438,129.39300537109375 32.35300064086914,127.44499969482422 42.30400085449219,123.89099884033203 C42.89799880981445,123.67900085449219 43.48500061035156,123.45800018310547 44.07400131225586,123.23400115966797 C53.61899948120117,119.60700225830078 62.426998138427734,114.48999786376953 70.20800018310547,108.1520004272461 C72.71600341796875,106.10900115966797 75.12699890136719,103.95099639892578 77.41200256347656,101.66500091552734 C91.90399932861328,87.1719970703125 101.69000244140625,67.99400329589844 104.37200164794922,46.606998443603516 C104.86000061035156,42.709999084472656 105.13999938964844,38.750999450683594 105.13999938964844,34.72100067138672 C105.13999938964844,34.72100067138672 107.35900115966797,11.406999588012695 107.35900115966797,11.406999588012695 C107.35900115966797,11.406999588012695 109.12000274658203,-8.833999633789062 107.35900115966797,-12.354000091552734z"></path></g></g><g transform="matrix(1.0000011920928955,0,0,1,194.32183837890625,226.45401000976562)" opacity="1" style="display: block;"><g opacity="1" transform="matrix(1,0,0,1,11.3100004196167,11.3100004196167)"><path fill="rgb(4,8,12)" fill-opacity="1" d=" M7.820000171661377,7.820000171661377 C9.821000099182129,5.818999767303467 11.0600004196167,3.055000066757202 11.0600004196167,0.0010000000474974513 C11.0600004196167,-3.052999973297119 9.821000099182129,-5.818999767303467 7.820000171661377,-7.821000099182129 C5.818999767303467,-9.821999549865723 3.053999900817871,-11.059000015258789 0,-11.059000015258789 C-3.055000066757202,-11.059000015258789 -5.820000171661377,-9.821999549865723 -7.821000099182129,-7.821000099182129 C-9.821999549865723,-5.818999767303467 -11.0600004196167,-3.052999973297119 -11.0600004196167,0.0010000000474974513 C-11.0600004196167,3.055000066757202 -9.821999549865723,5.818999767303467 -7.821000099182129,7.820000171661377 C-5.820000171661377,9.821000099182129 -3.055000066757202,11.059000015258789 0,11.059000015258789 C3.053999900817871,11.059000015258789 5.818999767303467,9.821000099182129 7.820000171661377,7.820000171661377z"></path></g></g><g transform="matrix(1.0000011920928955,0,0,1,288.30816650390625,226.4543914794922)" opacity="1" style="display: block;"><g opacity="1" transform="matrix(1,0,0,1,11.309000015258789,11.309000015258789)"><path fill="rgb(4,8,12)" fill-opacity="1" d=" M-7.820000171661377,-7.821000099182129 C-9.821000099182129,-5.820000171661377 -11.059000015258789,-3.053999900817871 -11.059000015258789,-0.0010000000474974513 C-11.059000015258789,3.053999900817871 -9.821999549865723,5.818999767303467 -7.820000171661377,7.820000171661377 C-5.818999767303467,9.821000099182129 -3.053999900817871,11.059000015258789 -0.0010000000474974513,11.059000015258789 C3.052999973297119,11.059000015258789 5.818999767303467,9.821000099182129 7.821000099182129,7.820000171661377 C9.821999549865723,5.817999839782715 11.059000015258789,3.053999900817871 11.059000015258789,-0.0010000000474974513 C11.059000015258789,-3.053999900817871 9.822999954223633,-5.820000171661377 7.821000099182129,-7.821000099182129 C5.818999767303467,-9.821999549865723 3.052999973297119,-11.059000015258789 -0.0010000000474974513,-11.059000015258789 C-3.053999900817871,-11.059000015258789 -5.818999767303467,-9.821999549865723 -7.820000171661377,-7.821000099182129z"></path></g></g><g transform="matrix(1.0000011920928955,0,0,1,278.19140625,201.54598999023438)" opacity="1" style="display: block;"><g opacity="1" transform="matrix(1,0,0,1,21.634000778198242,9.076000213623047)"><path fill="rgb(49,16,4)" fill-opacity="1" d=" M-18.090999603271484,8.29800033569336 C-17.349000930786133,8.64900016784668 -16.538999557495117,8.826000213623047 -15.72599983215332,8.826000213623047 C-15.121999740600586,8.826000213623047 -14.517000198364258,8.727999687194824 -13.9350004196167,8.527999877929688 C-13.352999687194824,8.329000473022461 -12.795000076293945,8.027999877929688 -12.28600025177002,7.623000144958496 C-6.080999851226807,2.686000108718872 -0.2370000034570694,2.1640000343322754 4.2129998207092285,2.994999885559082 C8.66100025177002,3.825000047683716 11.71399974822998,6.007999897003174 12.331000328063965,6.480000019073486 C13.529999732971191,7.410999774932861 14.994000434875488,7.7729997634887695 16.39299964904785,7.603000164031982 C17.792999267578125,7.432000160217285 19.128000259399414,6.730000019073486 20.06999969482422,5.534999847412109 C21.013999938964844,4.335999965667725 21.384000778198242,2.865999937057495 21.216999053955078,1.4609999656677246 C21.049999237060547,0.0560000017285347 20.347000122070312,-1.2860000133514404 19.14699935913086,-2.2309999465942383 C15.947999954223633,-4.75 10.286999702453613,-7.567999839782715 3.4670000076293945,-8.196999549865723 C-3.3550000190734863,-8.826000213623047 -11.335000038146973,-7.265999794006348 -19.17300033569336,-1.0299999713897705 C-20.368000030517578,-0.07900000363588333 -21.065000534057617,1.2660000324249268 -21.224000930786133,2.671999931335449 C-21.384000778198242,4.078000068664551 -21.006999969482422,5.546000003814697 -20.05699920654297,6.739999771118164 C-19.510000228881836,7.426000118255615 -18.833999633789062,7.947999954223633 -18.090999603271484,8.29800033569336z"></path></g></g><g transform="matrix(1.0000011920928955,0,0,1,183.99957275390625,201.54598999023438)" opacity="1" style="display: block;"><g opacity="1" transform="matrix(1,0,0,1,21.634000778198242,9.07699966430664)"><path fill="rgb(49,16,4)" fill-opacity="1" d=" M-18.091999053955078,8.29699993133545 C-17.350000381469727,8.64799976348877 -16.540000915527344,8.82699966430664 -15.72700023651123,8.82699966430664 C-15.123000144958496,8.82699966430664 -14.517000198364258,8.729000091552734 -13.9350004196167,8.529000282287598 C-13.354000091552734,8.329000473022461 -12.795000076293945,8.029000282287598 -12.286999702453613,7.624000072479248 C-6.079999923706055,2.686000108718872 -0.23499999940395355,2.1649999618530273 4.214000225067139,2.994999885559082 C8.661999702453613,3.8259999752044678 11.713000297546387,6.007999897003174 12.331999778747559,6.479000091552734 C13.532999992370605,7.410999774932861 14.996000289916992,7.7729997634887695 16.395999908447266,7.603000164031982 C17.795000076293945,7.433000087738037 19.128999710083008,6.730000019073486 20.070999145507812,5.534999847412109 C21.014999389648438,4.335000038146973 21.384000778198242,2.865999937057495 21.218000411987305,1.4609999656677246 C21.051000595092773,0.054999999701976776 20.347000122070312,-1.2860000133514404 19.148000717163086,-2.2320001125335693 C15.947999954223633,-4.75 10.286999702453613,-7.568999767303467 3.4660000801086426,-8.197999954223633 C-3.3550000190734863,-8.82699966430664 -11.335000038146973,-7.265999794006348 -19.17300033569336,-1.0299999713897705 C-20.368000030517578,-0.07999999821186066 -21.065000534057617,1.2660000324249268 -21.224000930786133,2.671999931335449 C-21.384000778198242,4.078000068664551 -21.007999420166016,5.545000076293945 -20.05699920654297,6.739999771118164 C-19.510000228881836,7.426000118255615 -18.834999084472656,7.947000026702881 -18.091999053955078,8.29699993133545z"></path></g></g><g transform="matrix(1.0000011920928955,0,0,1,194.6825408935547,273.6632080078125)" opacity="1" style="display: block;"><g opacity="1" transform="matrix(1,0,0,1,57.757999420166016,26.173999786376953)"><path fill="rgb(49,15,4)" fill-opacity="1" d=" M57.37699890136719,20.76799964904785 C55.23500061035156,0.30399999022483826 44.132999420166016,-11.140000343322754 32.95500183105469,-17.52199935913086 C27.32200050354004,-20.738000869750977 21.673999786376953,-22.66699981689453 17.139999389648438,-23.819000244140625 C17.11199951171875,-23.743000030517578 17.08300018310547,-23.670000076293945 17.05500030517578,-23.593000411987305 C14.265000343322754,-24.256000518798828 3.4089999198913574,-25.780000686645508 0,-25.850000381469727 C-3.5299999713897705,-25.923999786376953 -15.095999717712402,-24.09000015258789 -17.58099937438965,-23.360000610351562 C-17.58099937438965,-23.360000610351562 -17.638999938964844,-23.297000885009766 -17.638999938964844,-23.297000885009766 C-17.680999755859375,-23.416000366210938 -17.724000930786133,-23.533000946044922 -17.764999389648438,-23.652999877929688 C-22.18899917602539,-22.483999252319336 -27.575000762939453,-20.593000411987305 -32.95500183105469,-17.52199935913086 C-44.132999420166016,-11.138999938964844 -55.23400115966797,0.30399999022483826 -57.375,20.76799964904785 C-57.507999420166016,22.030000686645508 -57.09000015258789,23.214000701904297 -56.321998596191406,24.10099983215332 C-55.55400085449219,24.988000869750977 -54.4370002746582,25.577999114990234 -53.16999816894531,25.648000717163086 C-48.18600082397461,25.923999786376953 -39.64400100708008,25.70800018310547 -30.437999725341797,22.41200065612793 C-21.23200035095215,19.114999771118164 -11.359999656677246,12.736000061035156 -3.7160000801086426,0.6880000233650208 C-2.8610000610351562,-0.6600000262260437 -1.430999994277954,-1.3350000381469727 0.0010000000474974513,-1.3350000381469727 C1.4320000410079956,-1.3350000381469727 2.8610000610351562,-0.6600000262260437 3.7170000076293945,0.6880000233650208 C11.359999656677246,12.737000465393066 21.23200035095215,19.114999771118164 30.43899917602539,22.41200065612793 C39.645999908447266,25.70800018310547 48.1870002746582,25.923999786376953 53.16999816894531,25.64699935913086 C54.4370002746582,25.57699966430664 55.55400085449219,24.988000869750977 56.32099914550781,24.10099983215332 C57.0890007019043,23.21299934387207 57.50899887084961,22.02899932861328 57.37699890136719,20.76799964904785z"></path></g></g><g transform="matrix(1.0000011920928955,0,0,1,231.88584899902344,216.12399291992188)" opacity="1" style="display: block;"><g opacity="1" transform="matrix(1,0,0,1,20.32200050354004,37.57699966430664)"><path fill="rgb(150,97,90)" fill-opacity="1" d=" M-11.505999565124512,31.243000030517578 C-2.9539999961853027,37.04999923706055 4.940999984741211,37.32699966430664 10.696999549865723,32.84700012207031 C13.583999633789062,30.599000930786133 15.932999610900879,27.155000686645508 17.55699920654297,22.61199951171875 C19.172000885009766,18.097999572753906 20.07200050354004,12.498000144958496 20.07200050354004,5.9070000648498535 C20.07200050354004,5.9070000648498535 19.114999771118164,-4.485000133514404 16.260000228881836,-15.017999649047852 C13.406000137329102,-25.549999237060547 8.651000022888184,-36.220001220703125 1.0549999475479126,-36.77299880981445 C-6.541999816894531,-37.32600021362305 -13.958000183105469,-23.22599983215332 -17.336999893188477,-7.534999847412109 C-19.65399932861328,3.2260000705718994 -20.07200050354004,14.734999656677246 -17.347999572753906,22.777999877929688 C-16.099000930786133,26.46299934387207 -14.192999839782715,29.41900062561035 -11.505999565124512,31.243000030517578z"></path></g></g><g transform="matrix(1.0011013746261597,-0.01451326347887516,0.06972959637641907,0.9978906512260437,245.91221618652344,260.527587890625)" opacity="1" style="display: block;"><g opacity="1" transform="matrix(1,0,0,1,0,0)"><path fill="rgb(233,165,155)" fill-opacity="1" d="M0 0"></path><path stroke-linecap="round" stroke-linejoin="miter" fill-opacity="0" stroke-miterlimit="4" stroke="rgb(129,79,72)" stroke-opacity="1" stroke-width="4" d=" M-13,85 C-13,85 6,96.5 19.5,86.5"></path></g></g><g transform="matrix(0.27850061655044556,0.34355783462524414,-0.2881370782852173,0.32249367237091064,342.9900817871094,253.40167236328125)" opacity="1" style="display: block;"><g opacity="1" transform="matrix(1,0,0,1,0,0)"><path fill="rgb(255,0,0)" fill-opacity="1" d="M0 0"></path><path stroke-linecap="butt" stroke-linejoin="miter" fill-opacity="0" stroke-miterlimit="4" stroke="rgb(230,196,13)" stroke-opacity="1" stroke-width="2" d=" M11.25,30 C9.25,25 16.25,19.75 19.75,23.75 C23.25,27.75 28.937999725341797,37.28799819946289 16.312999725341797,34.53799819946289"></path></g></g><g transform="matrix(0.27850061655044556,0.34355783462524414,-0.2881370782852173,0.32249367237091064,347.66998291015625,248.31167602539062)" opacity="1" style="display: block;"><g opacity="1" transform="matrix(1,0,0,1,0,0)"><path fill="rgb(255,0,0)" fill-opacity="1" d="M0 0"></path><path stroke-linecap="butt" stroke-linejoin="miter" fill-opacity="0" stroke-miterlimit="4" stroke="rgb(230,196,13)" stroke-opacity="1" stroke-width="2" d=" M11.25,30 C9.25,25 16.25,19.75 19.75,23.75 C23.25,27.75 28.937999725341797,37.28799819946289 16.312999725341797,34.53799819946289"></path></g></g><g transform="matrix(0.27850061655044556,0.34355783462524414,-0.2881370782852173,0.32249367237091064,354.581298828125,215.1576690673828)" opacity="1" style="display: block;"><g opacity="1" transform="matrix(1,0,0,1,0,0)"><path fill="rgb(255,0,0)" fill-opacity="1" d="M0 0"></path><path stroke-linecap="butt" stroke-linejoin="miter" fill-opacity="0" stroke-miterlimit="4" stroke="rgb(230,196,13)" stroke-opacity="1" stroke-width="2" d=" M11.25,30 C9.25,25 16.25,19.75 19.75,23.75 C23.25,27.75 28.937999725341797,37.28799819946289 16.312999725341797,34.53799819946289"></path></g></g><g transform="matrix(0.7576481103897095,0.02645331621170044,-0.025281278416514397,0.999728798866272,252.94680786132812,249.9425811767578)" opacity="1" style="display: block;"><g opacity="1" transform="matrix(1,0,0,1,0,0)"><path fill="rgb(0,0,0)" fill-opacity="1" d="M0 0"></path><path stroke-linecap="butt" stroke-linejoin="miter" fill-opacity="0" stroke-miterlimit="4" stroke="rgb(220,145,1)" stroke-opacity="1" stroke-width="2" d=" M-39.082000732421875,-11 C-39.082000732421875,-11 -22.812999725341797,-12.187999725341797 -22.812999725341797,-12.187999725341797 C-22.812999725341797,-12.187999725341797 0.010999999940395355,-27.048999786376953 19.937999725341797,-13.937999725341797 C23.608999252319336,-13.75 37.77299880981445,-12.5 37.77299880981445,-12.5"></path></g></g><g transform="matrix(0.9993911981582642,0.034893784672021866,-0.025281278416514397,0.999728798866272,253.21266174316406,249.95181274414062)" opacity="1" style="display: block;"><g opacity="1" transform="matrix(1,0,0,1,0,0)"><path fill="rgb(255,0,0)" fill-opacity="1" d="M0 0"></path><path stroke-linecap="butt" stroke-linejoin="miter" fill-opacity="0" stroke-miterlimit="4" stroke="rgb(220,145,1)" stroke-opacity="1" stroke-width="2" d=" M-68.01000213623047,-11.75 C-68.01000213623047,-11.75 -90.98100280761719,-27.75 -92.98100280761719,-28.5"></path></g></g><g transform="matrix(0.9993911981582642,0.034893784672021866,-0.025281278416514397,0.999728798866272,253.21266174316406,249.95181274414062)" opacity="1" style="display: block;"><g opacity="1" transform="matrix(1,0,0,1,0,0)"><path fill="rgb(255,0,0)" fill-opacity="1" d="M0 0"></path><path stroke-linecap="butt" stroke-linejoin="miter" fill-opacity="0" stroke-miterlimit="4" stroke="rgb(220,145,1)" stroke-opacity="1" stroke-width="2" d=" M88.78099822998047,-36.25 C86.78099822998047,-34.5 65.25,-13 65.25,-13 C65.25,-13 90.78099822998047,-38 88.78099822998047,-36.25z"></path></g></g><g transform="matrix(0.9993911981582642,0.034893784672021866,-0.025281278416514397,0.999728798866272,253.30645751953125,249.9546661376953)" opacity="1" style="display: block;"><g opacity="1" transform="matrix(1,0,0,1,-49.25,-10)"><path fill="rgb(18,166,255)" fill-opacity="1" d=" M0,-19 C10.486100196838379,-19 19,-10.486100196838379 19,0 C19,10.486100196838379 10.486100196838379,19 0,19 C-10.486100196838379,19 -19,10.486100196838379 -19,0 C-19,-10.486100196838379 -10.486100196838379,-19 0,-19z"></path><path stroke-linecap="butt" stroke-linejoin="miter" fill-opacity="0" stroke-miterlimit="4" stroke="rgb(236,155,0)" stroke-opacity="1" stroke-width="2" d=" M0,-19 C10.486100196838379,-19 19,-10.486100196838379 19,0 C19,10.486100196838379 10.486100196838379,19 0,19 C-10.486100196838379,19 -19,10.486100196838379 -19,0 C-19,-10.486100196838379 -10.486100196838379,-19 0,-19z"></path></g></g><g transform="matrix(0.9993911981582642,0.034893784672021866,-0.025281278416514397,0.999728798866272,349.2735900878906,252.55567932128906)" opacity="1" style="display: block;"><g opacity="1" transform="matrix(1,0,0,1,-49.25,-10)"><path fill="rgb(18,166,255)" fill-opacity="1" d=" M0,-19 C10.486100196838379,-19 19,-10.486100196838379 19,0 C19,10.486100196838379 10.486100196838379,19 0,19 C-10.486100196838379,19 -19,10.486100196838379 -19,0 C-19,-10.486100196838379 -10.486100196838379,-19 0,-19z"></path><path stroke-linecap="butt" stroke-linejoin="miter" fill-opacity="0" stroke-miterlimit="4" stroke="rgb(236,155,0)" stroke-opacity="1" stroke-width="2" d=" M0,-19 C10.486100196838379,-19 19,-10.486100196838379 19,0 C19,10.486100196838379 10.486100196838379,19 0,19 C-10.486100196838379,19 -19,10.486100196838379 -19,0 C-19,-10.486100196838379 -10.486100196838379,-19 0,-19z"></path></g></g><g transform="matrix(0.9993911981582642,0.034893784672021866,-0.025281278416514397,0.999728798866272,253.21266174316406,249.95181274414062)" opacity="0.15" style="display: block;"><g opacity="1" transform="matrix(1,0,0,1,0,0)"><path fill="url(#__lottie_element_239)" fill-opacity="1" d="M0 0"></path><path stroke-linecap="butt" stroke-linejoin="miter" fill-opacity="0" stroke-miterlimit="4" stroke="rgb(255,255,255)" stroke-opacity="1" stroke-width="2" d=" M-66.25,-4.75 C-66.25,-4.75 -42.25,-26 -42.25,-26"></path></g></g><g transform="matrix(0.9698219895362854,0.033861372619867325,-0.025524191558361053,1.0093345642089844,255.37344360351562,252.52880859375)" opacity="0.15" style="display: block;"><g opacity="1" transform="matrix(1,0,0,1,0,0)"><path fill="url(#__lottie_element_235)" fill-opacity="1" d="M0 0"></path><path stroke-linecap="butt" stroke-linejoin="miter" fill-opacity="0" stroke-miterlimit="4" stroke="rgb(255,255,255)" stroke-opacity="1" stroke-width="2" d=" M-66.25,-4.75 C-66.25,-4.75 -42.25,-26 -42.25,-26"></path></g></g><g transform="matrix(0.9993911981582642,0.034893784672021866,-0.025281278416514397,0.999728798866272,350.6529541015625,253.3548126220703)" opacity="0.15" style="display: block;"><g opacity="1" transform="matrix(1,0,0,1,0,0)"><path fill="url(#__lottie_element_231)" fill-opacity="1" d="M0 0"></path><path stroke-linecap="butt" stroke-linejoin="miter" fill-opacity="0" stroke-miterlimit="4" stroke="rgb(255,255,255)" stroke-opacity="1" stroke-width="2" d=" M-66.25,-4.75 C-66.25,-4.75 -42.25,-26 -42.25,-26"></path></g></g><g transform="matrix(0.9993911981582642,0.034893784672021866,-0.025281278416514397,0.999728798866272,353.05462646484375,256.1897888183594)" opacity="0.15" style="display: block;"><g opacity="1" transform="matrix(1,0,0,1,0,0)"><path fill="url(#__lottie_element_227)" fill-opacity="1" d="M0 0"></path><path stroke-linecap="butt" stroke-linejoin="miter" fill-opacity="0" stroke-miterlimit="4" stroke="rgb(255,255,255)" stroke-opacity="1" stroke-width="2" d=" M-66.25,-4.75 C-66.25,-4.75 -42.25,-26 -42.25,-26"></path></g></g><g transform="matrix(0.9993911981582642,0.034893784672021866,-0.025281278416514397,0.999728798866272,251.45779418945312,242.88681030273438)" opacity="1" style="display: block;"><g opacity="1" transform="matrix(1,0,0,1,-2,-97.5)"><path fill="rgb(49,16,4)" fill-opacity="1" d=" M0,-9 C14.34939956665039,-9 26,-4.967100143432617 26,0 C26,4.967100143432617 14.34939956665039,9 0,9 C-14.34939956665039,9 -26,4.967100143432617 -26,0 C-26,-4.967100143432617 -14.34939956665039,-9 0,-9z"></path><path stroke-linecap="butt" stroke-linejoin="miter" fill-opacity="0" stroke-miterlimit="4" stroke="rgb(255,255,255)" stroke-opacity="1" stroke-width="2" d="M0 0"></path></g></g><g transform="matrix(0.9993911981582642,0.034893784672021866,-0.013369753025472164,0.5286966562271118,253.5463409423828,197.22906494140625)" opacity="1" style="display: block;"><g opacity="1" transform="matrix(1,0,0,1,0,0)"><path fill="rgb(49,16,4)" fill-opacity="1" d=" M-2,-201 C-2,-201 -27.5,-97.5 -27.5,-97.5 C-27.5,-97.5 23.5,-97 23.5,-97 C23.5,-97 -2,-201 -2,-201z"></path><path stroke-linecap="butt" stroke-linejoin="miter" fill-opacity="0" stroke-miterlimit="4" stroke="rgb(255,255,255)" stroke-opacity="1" stroke-width="2" d="M0 0"></path></g></g></g></svg>