<svg xmlns="http://www.w3.org/2000/svg" viewBox="0 0 500 500" width="500" height="500" preserveAspectRatio="xMidYMid meet" style="width: 100%; height: 100%; transform: translate3d(0px, 0px, 0px);"><defs><clipPath id="__lottie_element_136"><rect width="500" height="500" x="0" y="0"></rect></clipPath></defs><g clip-path="url(#__lottie_element_136)"><g transform="matrix(1,0,0,1,142.94000244140625,130.16598510742188)" opacity="1" style="display: block;"><g opacity="1" transform="matrix(1,0,0,1,99.24500274658203,127.9540023803711)"><path fill="rgb(207,144,71)" fill-opacity="1" d=" M-95.06900024414062,-82.82599639892578 C-95.06900024414062,-82.82599639892578 -98.99500274658203,28.433000564575195 -98.99500274658203,28.433000564575195 C-98.99500274658203,28.433000564575195 -81.1760025024414,83.08300018310547 -81.1760025024414,83.08300018310547 C-81.1760025024414,83.08300018310547 -39.97800064086914,113.95700073242188 -39.97800064086914,113.95700073242188 C-39.97800064086914,113.95700073242188 -5.9079999923706055,127.7040023803711 -5.9079999923706055,127.7040023803711 C-5.9079999923706055,127.7040023803711 39.308998107910156,113.95700073242188 39.308998107910156,113.95700073242188 C39.308998107910156,113.95700073242188 87.22000122070312,94.79000091552734 87.22000122070312,94.79000091552734 C87.22000122070312,94.79000091552734 98.99500274658203,54.965999603271484 98.99500274658203,54.965999603271484 C98.99500274658203,54.965999603271484 98.99500274658203,-35.96900177001953 98.99500274658203,-35.96900177001953 C98.99500274658203,-35.96900177001953 64.677001953125,-107.90499877929688 64.677001953125,-107.90499877929688 C64.677001953125,-107.90499877929688 -19.798999786376953,-127.7040023803711 -19.798999786376953,-127.7040023803711 C-19.798999786376953,-127.7040023803711 -77.5479965209961,-113.18399810791016 -77.5479965209961,-113.18399810791016 C-77.5479965209961,-113.18399810791016 -95.06900024414062,-82.82599639892578 -95.06900024414062,-82.82599639892578z"></path></g></g><g transform="matrix(1,0,0,1,287.093994140625,483.25)" opacity="1" style="display: block;"><g opacity="1" transform="matrix(1,0,0,1,0.28600001335144043,5.429999828338623)"><path fill="rgb(236,230,231)" fill-opacity="1" d=" M0.009999999776482582,4.6570000648498535 C0.035999998450279236,1.2829999923706055 0.017999999225139618,-1.9910000562667847 -0.035999998450279236,-5.179999828338623 C0.017000000923871994,-1.9900000095367432 0.03500000014901161,1.2829999923706055 0.008999999612569809,4.6570000648498535 C0.00800000037997961,4.829999923706055 0.003000000026077032,5.006999969482422 0.0010000000474974513,5.179999828338623 C0.0010000000474974513,5.179999828338623 0.0020000000949949026,5.179999828338623 0.0020000000949949026,5.179999828338623 C0.004000000189989805,5.006999969482422 0.008999999612569809,4.828999996185303 0.009999999776482582,4.6570000648498535z"></path></g></g><g transform="matrix(1,0,0,1,207.86399841308594,342.39300537109375)" opacity="1" style="display: block;"><g opacity="1" transform="matrix(1,0,0,1,40.965999603271484,73.87100219726562)"><path fill="rgb(244,155,143)" fill-opacity="1" d=" M39.834999084472656,53.44499969482422 C39.709999084472656,50.8489990234375 39.49300003051758,49.74599838256836 39.321998596191406,47.28499984741211 C35.68899917602539,26.634000778198242 34.89899826049805,9.888999938964844 33.308998107910156,-2.361999988555908 C31.770000457763672,-8.211000442504883 33.38999938964844,-11.411999702453613 32.13600158691406,-14.82800006866455 C32.13600158691406,-14.82800006866455 30.229000091552734,-16.075000762939453 30.229000091552734,-16.075000762939453 C30.229000091552734,-16.075000762939453 25.92099952697754,-16.569000244140625 25.92099952697754,-16.569000244140625 C25.92099952697754,-16.569000244140625 31.51099967956543,-35.95800018310547 31.51099967956543,-35.95800018310547 C31.549999237060547,-35.95000076293945 31.597999572753906,-35.93899917602539 31.641000747680664,-35.92900085449219 C31.641000747680664,-35.92900085449219 33.18299865722656,-41.27799987792969 33.18299865722656,-41.27799987792969 C33.18299865722656,-41.27799987792969 33.52299880981445,-42.45899963378906 33.52299880981445,-42.45899963378906 C33.52299880981445,-42.45899963378906 34.53799819946289,-73.61199951171875 34.53799819946289,-73.61199951171875 C23.54199981689453,-68.95899963378906 14.253999710083008,-65.72100067138672 1.7020000219345093,-65.72100067138672 C1.7020000219345093,-65.72100067138672 -1.0010000467300415,-66.4010009765625 -1.0010000467300415,-66.4010009765625 C-13.560999870300293,-66.4010009765625 -25.55900001525879,-68.96299743652344 -36.5620002746582,-73.62100219726562 C-36.5620002746582,-73.62100219726562 -36.30500030517578,-45.10200119018555 -36.30500030517578,-45.10200119018555 C-36.30500030517578,-45.10200119018555 -35.209999084472656,-41.297000885009766 -35.209999084472656,-41.297000885009766 C-35.209999084472656,-41.297000885009766 -34.24300003051758,-36.88800048828125 -34.24300003051758,-36.88800048828125 C-34.24300003051758,-36.88800048828125 -30.270999908447266,-21.062000274658203 -30.270999908447266,-21.062000274658203 C-30.29599952697754,-20.80699920654297 -29.391000747680664,-20.375999450683594 -29.41699981689453,-20.111000061035156 C-29.41699981689453,-20.111000061035156 -27.9060001373291,-14.861000061035156 -27.9060001373291,-14.861000061035156 C-27.9060001373291,-14.861000061035156 -28.26799964904785,-14.848999977111816 -28.26799964904785,-14.848999977111816 C-28.26799964904785,-14.848999977111816 -28.250999450683594,-14.793000221252441 -28.250999450683594,-14.793000221252441 C-29.27199935913086,-11.932999610900879 -30.43400001525879,-8.347999572753906 -31.6299991607666,-4.002999782562256 C-32.05699920654297,-2.453000068664551 -32.487998962402344,-0.8090000152587891 -32.91899871826172,0.9369999766349792 C-36.04999923706055,13.631999969482422 -39.13399887084961,31.496000289916992 -40.262001037597656,54.861000061035156 C-40.54600143432617,60.76499938964844 -40.71099853515625,67.00800323486328 -40.71500015258789,73.62100219726562 C-40.709999084472656,67.00800323486328 -40.547000885009766,60.76499938964844 -40.262001037597656,54.861000061035156 C-31.718000411987305,65.0999984741211 -19.423999786376953,72.62699890136719 -1.7259999513626099,72.66699981689453 C-1.6779999732971191,72.72899627685547 -1.63100004196167,72.79100036621094 -1.5850000381469727,72.85199737548828 C-1.5390000343322754,72.79100036621094 -1.4919999837875366,72.72899627685547 -1.4450000524520874,72.66699981689453 C16.711000442504883,72.62799835205078 29.4950008392334,65.69200134277344 38.57099914550781,54.25199890136719 C38.57099914550781,54.25199890136719 40.71500015258789,56.597999572753906 40.71500015258789,56.597999572753906 C40.7140007019043,56.5890007019043 39.83599853515625,53.45600128173828 39.834999084472656,53.44499969482422z"></path></g></g><g transform="matrix(1,0,0,1,208.23001098632812,427.2760009765625)" opacity="1" style="display: block;"><g opacity="1" transform="matrix(1,0,0,1,6.409999847412109,9.553999900817871)"><path fill="rgb(249,217,49)" fill-opacity="1" d=" M6.159999847412109,0.0010000000474974513 C6.159999847412109,3.4019999504089355 3.4019999504089355,6.159999847412109 0,6.159999847412109 C-3.4019999504089355,6.159999847412109 -6.159999847412109,3.4019999504089355 -6.159999847412109,0.0010000000474974513 C-6.159999847412109,-3.4010000228881836 -3.4019999504089355,-6.159999847412109 0,-6.159999847412109 C3.4019999504089355,-6.159999847412109 6.159999847412109,-3.4010000228881836 6.159999847412109,0.0010000000474974513z"></path></g><g opacity="1" transform="matrix(1,0,0,1,9.270999908447266,8.71500015258789)"><path fill="rgb(255,255,255)" fill-opacity="1" d=" M-0.6990000009536743,-2.305999994277954 C-0.017999999225139618,-1.715000033378601 0.5090000033378601,-0.9959999918937683 0.8309999704360962,-0.1889999955892563 C1.156000018119812,0.6159999966621399 1.2109999656677246,1.5190000534057617 0.9520000219345093,2.305999994277954 C1.065000057220459,1.4819999933242798 0.8529999852180481,0.6700000166893005 0.43700000643730164,0.007000000216066837 C0.02500000037252903,-0.6589999794960022 -0.5669999718666077,-1.2089999914169312 -1.2109999656677246,-1.5889999866485596 C-1.2109999656677246,-1.5889999866485596 -0.6990000009536743,-2.305999994277954 -0.6990000009536743,-2.305999994277954z"></path></g><g opacity="1" transform="matrix(1,0,0,1,77.76100158691406,6.408999919891357)"><path fill="rgb(249,217,49)" fill-opacity="1" d=" M6.159999847412109,-0.0010000000474974513 C6.159999847412109,3.4010000228881836 3.4010000228881836,6.159999847412109 0,6.159999847412109 C-3.4030001163482666,6.159999847412109 -6.159999847412109,3.4010000228881836 -6.159999847412109,-0.0010000000474974513 C-6.159999847412109,-3.4019999504089355 -3.4030001163482666,-6.159999847412109 0,-6.159999847412109 C3.4010000228881836,-6.159999847412109 6.159999847412109,-3.4019999504089355 6.159999847412109,-0.0010000000474974513z"></path></g><g opacity="1" transform="matrix(1,0,0,1,80.62100219726562,5.570000171661377)"><path fill="rgb(255,255,255)" fill-opacity="1" d=" M-0.6990000009536743,-2.305000066757202 C-0.017000000923871994,-1.715000033378601 0.5090000033378601,-0.9950000047683716 0.8309999704360962,-0.18799999356269836 C1.156000018119812,0.6159999966621399 1.2109999656677246,1.5190000534057617 0.9520000219345093,2.305000066757202 C1.065999984741211,1.4819999933242798 0.8529999852180481,0.6710000038146973 0.43799999356269836,0.00800000037997961 C0.02500000037252903,-0.6579999923706055 -0.5659999847412109,-1.2089999914169312 -1.2109999656677246,-1.5889999866485596 C-1.2109999656677246,-1.5889999866485596 -0.6990000009536743,-2.305000066757202 -0.6990000009536743,-2.305000066757202z"></path></g><g opacity="1" transform="matrix(1,0,0,1,17.884000778198242,14.03600025177002)"><path fill="rgb(249,217,49)" fill-opacity="1" d=" M6.159999847412109,0 C6.159999847412109,3.4019999504089355 3.4019999504089355,6.159999847412109 0,6.159999847412109 C-3.4019999504089355,6.159999847412109 -6.159999847412109,3.4019999504089355 -6.159999847412109,0 C-6.159999847412109,-3.4019999504089355 -3.4019999504089355,-6.159999847412109 0,-6.159999847412109 C3.4019999504089355,-6.159999847412109 6.159999847412109,-3.4019999504089355 6.159999847412109,0z"></path></g><g opacity="1" transform="matrix(1,0,0,1,20.7450008392334,13.196999549865723)"><path fill="rgb(255,255,255)" fill-opacity="1" d=" M-0.6990000009536743,-2.305000066757202 C-0.017999999225139618,-1.715000033378601 0.5090000033378601,-0.9959999918937683 0.8309999704360962,-0.1889999955892563 C1.156000018119812,0.6150000095367432 1.2109999656677246,1.5190000534057617 0.9520000219345093,2.305000066757202 C1.065000057220459,1.4809999465942383 0.8529999852180481,0.6700000166893005 0.43700000643730164,0.00800000037997961 C0.02500000037252903,-0.6579999923706055 -0.5669999718666077,-1.2079999446868896 -1.2109999656677246,-1.5889999866485596 C-1.2109999656677246,-1.5889999866485596 -0.6990000009536743,-2.305000066757202 -0.6990000009536743,-2.305000066757202z"></path></g><g opacity="1" transform="matrix(1,0,0,1,30.20400047302246,15.71399974822998)"><path fill="rgb(249,217,49)" fill-opacity="1" d=" M6.159999847412109,-0.0010000000474974513 C6.159999847412109,3.4010000228881836 3.4019999504089355,6.159999847412109 0,6.159999847412109 C-3.4019999504089355,6.159999847412109 -6.159999847412109,3.4010000228881836 -6.159999847412109,-0.0010000000474974513 C-6.159999847412109,-3.4019999504089355 -3.4019999504089355,-6.159999847412109 0,-6.159999847412109 C3.4019999504089355,-6.159999847412109 6.159999847412109,-3.4019999504089355 6.159999847412109,-0.0010000000474974513z"></path></g><g opacity="1" transform="matrix(1,0,0,1,33.064998626708984,14.875)"><path fill="rgb(255,255,255)" fill-opacity="1" d=" M-0.6990000009536743,-2.305000066757202 C-0.017999999225139618,-1.715000033378601 0.5080000162124634,-0.9959999918937683 0.8309999704360962,-0.1889999955892563 C1.1549999713897705,0.6150000095367432 1.2100000381469727,1.5190000534057617 0.9509999752044678,2.305000066757202 C1.0640000104904175,1.4819999933242798 0.8519999980926514,0.6710000038146973 0.4359999895095825,0.00800000037997961 C0.024000000208616257,-0.6579999923706055 -0.5659999847412109,-1.2089999914169312 -1.2100000381469727,-1.5889999866485596 C-1.2100000381469727,-1.5889999866485596 -0.6990000009536743,-2.305000066757202 -0.6990000009536743,-2.305000066757202z"></path></g><g opacity="1" transform="matrix(1,0,0,1,42.52299880981445,16.5939998626709)"><path fill="rgb(249,217,49)" fill-opacity="1" d=" M6.159999847412109,0.0010000000474974513 C6.159999847412109,3.4019999504089355 3.4019999504089355,6.159999847412109 0,6.159999847412109 C-3.4019999504089355,6.159999847412109 -6.159999847412109,3.4019999504089355 -6.159999847412109,0.0010000000474974513 C-6.159999847412109,-3.4010000228881836 -3.4019999504089355,-6.159999847412109 0,-6.159999847412109 C3.4019999504089355,-6.159999847412109 6.159999847412109,-3.4010000228881836 6.159999847412109,0.0010000000474974513z"></path></g><g opacity="1" transform="matrix(1,0,0,1,45.3849983215332,15.755000114440918)"><path fill="rgb(255,255,255)" fill-opacity="1" d=" M-0.6990000009536743,-2.305000066757202 C-0.017999999225139618,-1.7139999866485596 0.5090000033378601,-0.9959999918937683 0.8320000171661377,-0.1889999955892563 C1.156000018119812,0.6150000095367432 1.2109999656677246,1.5190000534057617 0.9520000219345093,2.305000066757202 C1.065999984741211,1.4819999933242798 0.8539999723434448,0.6710000038146973 0.43799999356269836,0.00800000037997961 C0.026000000536441803,-0.6579999923706055 -0.5659999847412109,-1.2089999914169312 -1.2109999656677246,-1.5889999866485596 C-1.2109999656677246,-1.5889999866485596 -0.6990000009536743,-2.305000066757202 -0.6990000009536743,-2.305000066757202z"></path></g><g opacity="1" transform="matrix(1,0,0,1,54.89099884033203,14.875)"><path fill="rgb(249,217,49)" fill-opacity="1" d=" M6.159999847412109,0 C6.159999847412109,3.4019999504089355 3.4010000228881836,6.159999847412109 0,6.159999847412109 C-3.4030001163482666,6.159999847412109 -6.159999847412109,3.4019999504089355 -6.159999847412109,0 C-6.159999847412109,-3.4010000228881836 -3.4030001163482666,-6.159999847412109 0,-6.159999847412109 C3.4010000228881836,-6.159999847412109 6.159999847412109,-3.4010000228881836 6.159999847412109,0z"></path></g><g opacity="1" transform="matrix(1,0,0,1,57.750999450683594,14.03600025177002)"><path fill="rgb(255,255,255)" fill-opacity="1" d=" M-0.6990000009536743,-2.305000066757202 C-0.017000000923871994,-1.715000033378601 0.5090000033378601,-0.9959999918937683 0.8309999704360962,-0.1889999955892563 C1.156000018119812,0.6150000095367432 1.2109999656677246,1.5190000534057617 0.9520000219345093,2.305000066757202 C1.065999984741211,1.4819999933242798 0.8529999852180481,0.6700000166893005 0.43799999356269836,0.00800000037997961 C0.02500000037252903,-0.6579999923706055 -0.5659999847412109,-1.2079999446868896 -1.2109999656677246,-1.5889999866485596 C-1.2109999656677246,-1.5889999866485596 -0.6990000009536743,-2.305000066757202 -0.6990000009536743,-2.305000066757202z"></path></g><g opacity="1" transform="matrix(1,0,0,1,66.31999969482422,10.890999794006348)"><path fill="rgb(249,217,49)" fill-opacity="1" d=" M6.159999847412109,0 C6.159999847412109,3.4019999504089355 3.4019999504089355,6.159999847412109 0,6.159999847412109 C-3.4030001163482666,6.159999847412109 -6.159999847412109,3.4019999504089355 -6.159999847412109,0 C-6.159999847412109,-3.4019999504089355 -3.4030001163482666,-6.159999847412109 0,-6.159999847412109 C3.4019999504089355,-6.159999847412109 6.159999847412109,-3.4019999504089355 6.159999847412109,0z"></path></g><g opacity="1" transform="matrix(1,0,0,1,69.18199920654297,10.052000045776367)"><path fill="rgb(255,255,255)" fill-opacity="1" d=" M-0.6990000009536743,-2.305000066757202 C-0.017000000923871994,-1.715000033378601 0.5080000162124634,-0.9959999918937683 0.8309999704360962,-0.1889999955892563 C1.1549999713897705,0.6150000095367432 1.2100000381469727,1.5190000534057617 0.9509999752044678,2.305000066757202 C1.065000057220459,1.4809999465942383 0.8539999723434448,0.6700000166893005 0.43799999356269836,0.007000000216066837 C0.02500000037252903,-0.6579999923706055 -0.5659999847412109,-1.2079999446868896 -1.2100000381469727,-1.5889999866485596 C-1.2100000381469727,-1.5889999866485596 -0.6990000009536743,-2.305000066757202 -0.6990000009536743,-2.305000066757202z"></path></g></g><g transform="matrix(1,0,0,1,208.22900390625,470.875)" opacity="1" style="display: block;"><g opacity="1" transform="matrix(1,0,0,1,39.71799850463867,13.13599967956543)"><path fill="rgb(255,255,255)" fill-opacity="1" d=" M39.39699935913086,-0.5109999775886536 C39.32600021362305,-4.78000020980835 39.191001892089844,-8.892999649047852 39.000999450683594,-12.848999977111816 C30.43400001525879,-2.680999994277954 17.959999084472656,4.88100004196167 -0.19599999487400055,4.920000076293945 C-0.24300000071525574,4.98199987411499 -0.28999999165534973,5.044000148773193 -0.335999995470047,5.105000019073486 C-0.38199999928474426,5.044000148773193 -0.42899999022483826,4.98199987411499 -0.47699999809265137,4.920000076293945 C-18.174999237060547,4.880000114440918 -30.4689998626709,-2.6470000743865967 -39.01300048828125,-12.88599967956543 C-39.29800033569336,-6.98199987411499 -39.46200180053711,-0.7390000224113464 -39.46699905395508,5.874000072479248 C-39.46799850463867,7.013999938964844 -39.46500015258789,8.163000106811523 -39.45600128173828,9.326000213623047 C-39.45600128173828,9.38599967956543 -39.45399856567383,9.447999954223633 -39.45399856567383,9.508999824523926 C-27.375,11.543000221252441 -14.994999885559082,12.678999900817871 -2.380000114440918,12.852999687194824 C-2.380000114440918,12.852999687194824 -0.007000000216066837,12.88599967956543 -0.007000000216066837,12.88599967956543 C-0.007000000216066837,12.88599967956543 1.7619999647140503,12.88599967956543 1.7619999647140503,12.88599967956543 C14.579999923706055,12.847999572753906 27.159000396728516,11.807000160217285 39.433998107910156,9.848999977111816 C39.43600082397461,9.675999641418457 39.441001892089844,9.49899959564209 39.44200134277344,9.326000213623047 C39.46799850463867,5.952000141143799 39.45000076293945,2.677999973297119 39.39699935913086,-0.5109999775886536z"></path></g></g><g transform="matrix(1,0,0,1,274.29901123046875,380.0559997558594)" opacity="1" style="display: block;"><g opacity="1" transform="matrix(1,0,0,1,30.631999969482422,57.027000427246094)"><path fill="rgb(236,230,231)" fill-opacity="1" d=" M-17.548999786376953,56.777000427246094 C-17.548999786376953,56.777000427246094 -17.551000595092773,56.777000427246094 -17.551000595092773,56.777000427246094 C-0.9490000009536743,54.12900161743164 15.086999893188477,49.79100036621094 30.381999969482422,43.946998596191406 C29.781999588012695,31.007999420166016 29.08099937438965,16.2189998626709 28.316999435424805,0.6990000009536743 C27.735000610351562,-11.142000198364258 24.207000732421875,-20.636999130249023 19.22100067138672,-28.229999542236328 C17.655000686645508,-30.61400032043457 15.947999954223633,-32.808998107910156 14.140000343322754,-34.82899856567383 C12.378999710083008,-36.79999923706055 10.524999618530273,-38.60599899291992 8.618000030517578,-40.25699996948242 C8.21500015258789,-40.606998443603516 7.808000087738037,-40.95100021362305 7.400000095367432,-41.2859992980957 C5.182000160217285,-43.1150016784668 2.9119999408721924,-44.74700164794922 0.6480000019073486,-46.19499969482422 C-10.545999526977539,-53.35300064086914 -21.511999130249023,-56.099998474121094 -24.461000442504883,-56.74700164794922 C-24.503999710083008,-56.75699996948242 -24.552000045776367,-56.768001556396484 -24.590999603271484,-56.777000427246094 C-24.590999603271484,-56.777000427246094 -30.18000030517578,-37.387001037597656 -30.18000030517578,-37.387001037597656 C-30.18000030517578,-37.387001037597656 -30.381999969482422,-36.68600082397461 -30.381999969482422,-36.68600082397461 C-29.12700080871582,-33.270999908447266 -27.614999771118164,-28.65999984741211 -26.076000213623047,-22.81100082397461 C-24.486000061035156,-10.560999870300293 -22.066999435424805,5.815000057220459 -18.433000564575195,26.46500015258789 C-18.261999130249023,28.926000595092773 -18.11199951171875,31.45199966430664 -17.986000061035156,34.04899978637695 C-17.986000061035156,34.05799865722656 -17.985000610351562,34.069000244140625 -17.985000610351562,34.07899856567383 C-17.985000610351562,34.07899856567383 -17.985000610351562,34.07899856567383 -17.985000610351562,34.07899856567383 C-17.985000610351562,34.077999114990234 -17.985000610351562,34.07899856567383 -17.983999252319336,34.07899856567383 C-17.792999267578125,38.0359992980957 -17.658000946044922,42.14699935913086 -17.58799934387207,46.41699981689453 C-17.534000396728516,49.60499954223633 -17.516000747680664,52.88100051879883 -17.54199981689453,56.255001068115234 C-17.542999267578125,56.42599868774414 -17.547000885009766,56.60300064086914 -17.548999786376953,56.777000427246094z"></path></g></g><g transform="matrix(1,0,0,1,286.6969909667969,470.9109802246094)" opacity="1" style="display: block;"><g opacity="1" transform="matrix(1,0,0,1,0.4480000138282776,6.419000148773193)"><path fill="rgb(236,230,231)" fill-opacity="1" d=" M-0.1979999989271164,-6.169000148773193 C-0.00800000037997961,-2.2130000591278076 0.12700000405311584,1.899999976158142 0.1979999989271164,6.169000148773193 C0.12800000607967377,1.8990000486373901 -0.007000000216066837,-2.2119998931884766 -0.19699999690055847,-6.169000148773193 C-0.1979999989271164,-6.169000148773193 -0.1979999989271164,-6.170000076293945 -0.1979999989271164,-6.169000148773193z"></path></g></g><g transform="matrix(1,0,0,1,160.35198974609375,379.12701416015625)" opacity="1" style="display: block;"><g opacity="1" transform="matrix(1,0,0,1,30.420000076293945,57.32099914550781)"><path fill="rgb(236,230,231)" fill-opacity="1" d=" M30.155000686645508,-35.03300094604492 C30.155000686645508,-35.03300094604492 28.641000747680664,-40.29399871826172 28.641000747680664,-40.29399871826172 C28.641000747680664,-40.29399871826172 23.81399917602539,-57.071998596191406 23.81399917602539,-57.071998596191406 C20.2450008392334,-56.15999984741211 9.913000106811523,-53.108001708984375 -0.6169999837875366,-46.112998962402344 C-3.0439999103546143,-44.500999450683594 -5.480000019073486,-42.678001403808594 -7.8470001220703125,-40.625999450683594 C-12.434000015258789,-36.64699935913086 -16.7549991607666,-31.79400062561035 -20.229000091552734,-25.915000915527344 C-24.582000732421875,-18.552000045776367 -27.606000900268555,-9.579000473022461 -28.14299964904785,1.3329999446868896 C-28.891000747680664,16.545000076293945 -29.57900047302246,31.062999725341797 -30.17099952697754,43.816001892089844 C-14.904000282287598,49.80699920654297 1.1230000257492065,54.27799987792969 17.7189998626709,57.071998596191406 C17.7189998626709,57.012001037597656 17.716999053955078,56.94900131225586 17.716999053955078,56.888999938964844 C17.70800018310547,55.72600173950195 17.704999923706055,54.577999114990234 17.70599937438965,53.4379997253418 C17.711000442504883,46.82500076293945 17.875999450683594,40.582000732421875 18.160999298095703,34.678001403808594 C19.288999557495117,11.312999725341797 22.371999740600586,-6.552000045776367 25.503999710083008,-19.246999740600586 C25.93400001525879,-20.993000030517578 26.364999771118164,-22.636999130249023 26.79199981689453,-24.187000274658203 C27.98900032043457,-28.531999588012695 29.150999069213867,-32.117000579833984 30.17099952697754,-34.97700119018555 C30.17099952697754,-34.97700119018555 30.155000686645508,-35.03300094604492 30.155000686645508,-35.03300094604492z"></path></g></g><g transform="matrix(1,0,0,1,350.5580139160156,237.3670196533203)" opacity="1" style="display: block;"><g opacity="1" transform="matrix(1,0,0,1,6.054999828338623,24.81599998474121)"><path fill="rgb(244,155,143)" fill-opacity="1" d=" M-5.804999828338623,-2.312999963760376 C-5.804999828338623,-2.312999963760376 -5.804999828338623,20.011999130249023 -5.804999828338623,20.011999130249023 C-5.804999828338623,20.011999130249023 -5.804999828338623,24.56599998474121 -5.804999828338623,24.56599998474121 C0.6790000200271606,20.586000442504883 5.743000030517578,13.111000061035156 5.770999908447266,0.5580000281333923 C5.804999828338623,-13.800999641418457 1.2130000591278076,-21.006999969482422 -4.054999828338623,-24.56599998474121 C-4.1620001792907715,-23.878999710083008 -4.2870001792907715,-23.194000244140625 -4.385000228881836,-22.5049991607666 C-5.335000038146973,-15.826000213623047 -5.804999828338623,-9.07800006866455 -5.804999828338623,-2.312999963760376z"></path></g></g><g transform="matrix(1,0,0,1,133.02301025390625,238.14999389648438)" opacity="1" style="display: block;"><g opacity="1" transform="matrix(1,0,0,1,4.658999919891357,23.42300033569336)"><path fill="rgb(244,155,143)" fill-opacity="1" d=" M1.284999966621399,-20.091999053955078 C-1.1540000438690186,-16.982999801635742 -3.0820000171661377,-12.550000190734863 -3.930000066757202,-6.307000160217285 C-4.1570000648498535,-4.631999969482422 -4.304999828338623,-2.8259999752044678 -4.363999843597412,-0.8790000081062317 C-4.383999824523926,-0.20499999821186066 -4.408999919891357,0.460999995470047 -4.4079999923706055,1.1679999828338623 C-4.3979997634887695,5.734000205993652 -3.703000068664551,9.607000350952148 -2.5339999198913574,12.906999588012695 C-1.819000005722046,14.927000045776367 -0.9359999895095825,16.743000030517578 0.10899999737739563,18.333999633789062 C1.3569999933242798,20.233999252319336 2.815999984741211,21.829999923706055 4.408999919891357,23.17300033569336 C4.408999919891357,23.17300033569336 4.408999919891357,11.89900016784668 4.408999919891357,11.89900016784668 C4.408999919891357,11.89900016784668 4.408999919891357,-19.148000717163086 4.408999919891357,-19.148000717163086 C4.408999919891357,-20.490999221801758 4.388999938964844,-21.832000732421875 4.3480000495910645,-23.17300033569336 C3.2739999294281006,-22.323999404907227 2.240999937057495,-21.31100082397461 1.284999966621399,-20.091999053955078z"></path></g></g><g transform="matrix(1,0,0,1,346.2030029296875,280.3389892578125)" opacity="1" style="display: block;"><g opacity="1" transform="matrix(1,0,0,1,6.409999847412109,6.409999847412109)"><path fill="rgb(249,217,49)" fill-opacity="1" d=" M6.159999847412109,0 C6.159999847412109,3.4019999504089355 3.4019999504089355,6.159999847412109 0,6.159999847412109 C-3.4030001163482666,6.159999847412109 -6.159999847412109,3.4019999504089355 -6.159999847412109,0 C-6.159999847412109,-3.4019999504089355 -3.4030001163482666,-6.159999847412109 0,-6.159999847412109 C3.4019999504089355,-6.159999847412109 6.159999847412109,-3.4019999504089355 6.159999847412109,0z"></path></g><g opacity="1" transform="matrix(1,0,0,1,9.270999908447266,5.571000099182129)"><path fill="rgb(255,255,255)" fill-opacity="1" d=" M-0.6990000009536743,-2.305999994277954 C-0.017000000923871994,-1.715999960899353 0.5090000033378601,-0.996999979019165 0.8309999704360962,-0.1889999955892563 C1.156000018119812,0.6150000095367432 1.2109999656677246,1.5199999809265137 0.9520000219345093,2.305999994277954 C1.065999984741211,1.4819999933242798 0.8529999852180481,0.6700000166893005 0.43799999356269836,0.007000000216066837 C0.02500000037252903,-0.6579999923706055 -0.5659999847412109,-1.2089999914169312 -1.2109999656677246,-1.590000033378601 C-1.2109999656677246,-1.590000033378601 -0.6990000009536743,-2.305999994277954 -0.6990000009536743,-2.305999994277954z"></path></g></g><g transform="matrix(1,0,0,1,135.68099975585938,278.33599853515625)" opacity="1" style="display: block;"><g opacity="1" transform="matrix(1,0,0,1,6.409999847412109,6.409999847412109)"><path fill="rgb(249,217,49)" fill-opacity="1" d=" M6.159999847412109,0 C6.159999847412109,3.4010000228881836 3.4019999504089355,6.159999847412109 0,6.159999847412109 C-3.4019999504089355,6.159999847412109 -6.159999847412109,3.4010000228881836 -6.159999847412109,0 C-6.159999847412109,-3.4019999504089355 -3.4019999504089355,-6.159999847412109 0,-6.159999847412109 C3.4019999504089355,-6.159999847412109 6.159999847412109,-3.4019999504089355 6.159999847412109,0z"></path></g><g opacity="1" transform="matrix(1,0,0,1,9.270999908447266,5.570000171661377)"><path fill="rgb(255,255,255)" fill-opacity="1" d=" M-0.6990000009536743,-2.305999994277954 C-0.017999999225139618,-1.715000033378601 0.5090000033378601,-0.9959999918937683 0.8309999704360962,-0.1889999955892563 C1.156000018119812,0.6150000095367432 1.2109999656677246,1.5199999809265137 0.9520000219345093,2.305999994277954 C1.065000057220459,1.4830000400543213 0.8529999852180481,0.6710000038146973 0.43700000643730164,0.00800000037997961 C0.02500000037252903,-0.6579999923706055 -0.5669999718666077,-1.2089999914169312 -1.2109999656677246,-1.5889999866485596 C-1.2109999656677246,-1.5889999866485596 -0.6990000009536743,-2.305999994277954 -0.6990000009536743,-2.305999994277954z"></path></g></g><g transform="matrix(1,0,0,1,152.7740020751953,157.17800903320312)" opacity="1" style="display: block;"><g opacity="1" transform="matrix(1,0,0,1,93.77400207519531,110.28099822998047)"><path fill="rgb(247,180,171)" fill-opacity="1" d=" M1.2829999923706055,110.03099822998047 C1.2829999923706055,110.03099822998047 1.2829999923706055,110.03099822998047 1.2829999923706055,110.03099822998047 C13.833999633789062,110.03099822998047 25.825000762939453,107.47200012207031 36.82099914550781,102.82099914550781 C49.13199996948242,97.61399841308594 60.19900131225586,89.78399658203125 69.40799713134766,79.9739990234375 C80.49700164794922,68.16100311279297 88.87999725341797,53.4739990234375 93.5250015258789,37.0620002746582 C93.5250015258789,37.0620002746582 93.5250015258789,0.3019999861717224 93.5250015258789,0.3019999861717224 C93.5250015258789,0.3019999861717224 93.5250015258789,-36.45600128173828 93.5250015258789,-36.45600128173828 C93.5250015258789,-36.45600128173828 86.88099670410156,-43.645999908447266 79.44300079345703,-56.4370002746582 C72.00399780273438,-69.22799682617188 63.770999908447266,-87.62200164794922 60.590999603271484,-110.03099822998047 C60.590999603271484,-110.03099822998047 51.54399871826172,-100.44000244140625 35.11600112915039,-92.3489990234375 C18.687999725341797,-84.25700378417969 -5.125,-77.66400146484375 -34.652000427246094,-83.66100311279297 C-34.652000427246094,-83.66100311279297 -38.263999938964844,-73.35399627685547 -47.43000030517578,-61.880001068115234 C-56.595001220703125,-50.40599822998047 -71.31500244140625,-37.76599884033203 -93.5250015258789,-33.099998474121094 C-93.5250015258789,-33.099998474121094 -93.5250015258789,1.9809999465942383 -93.5250015258789,1.9809999465942383 C-93.5250015258789,1.9809999465942383 -93.5250015258789,25.577999114990234 -93.5250015258789,25.577999114990234 C-89.99199676513672,46.63100051879883 -80.45999908447266,65.46900177001953 -66.84200286865234,79.9739990234375 C-57.638999938964844,89.7770004272461 -46.582000732421875,97.60299682617188 -34.27899932861328,102.81099700927734 C-23.277000427246094,107.46800231933594 -11.277999877929688,110.03099822998047 1.2829999923706055,110.03099822998047z"></path></g></g><g transform="matrix(1,0,0,1,189.5260009765625,246.5850067138672)" opacity="1" style="display: block;"><g opacity="1" transform="matrix(1,0,0,1,11.3100004196167,11.309000015258789)"><path fill="rgb(36,56,70)" fill-opacity="1" d=" M0,11.059000015258789 C3.055000066757202,11.059000015258789 5.818999767303467,9.821999549865723 7.821000099182129,7.820000171661377 C9.821999549865723,5.818999767303467 11.060999870300293,3.055000066757202 11.060999870300293,0.0010000000474974513 C11.060999870300293,-3.052999973297119 9.821999549865723,-5.818999767303467 7.821000099182129,-7.820000171661377 C5.818999767303467,-9.821999549865723 3.055000066757202,-11.059000015258789 0,-11.059000015258789 C-3.053999900817871,-11.059000015258789 -5.817999839782715,-9.821999549865723 -7.820000171661377,-7.820000171661377 C-9.821000099182129,-5.818999767303467 -11.060999870300293,-3.052999973297119 -11.060999870300293,0.0010000000474974513 C-11.060999870300293,3.055000066757202 -9.821999549865723,5.818999767303467 -7.820000171661377,7.820000171661377 C-5.818999767303467,9.821999549865723 -3.053999900817871,11.059000015258789 0,11.059000015258789z"></path></g></g><g transform="matrix(1,0,0,1,283.51300048828125,246.58401489257812)" opacity="1" style="display: block;"><g opacity="1" transform="matrix(1,0,0,1,11.3100004196167,11.3100004196167)"><path fill="rgb(36,56,70)" fill-opacity="1" d=" M0,-11.0600004196167 C-3.053999900817871,-11.0600004196167 -5.818999767303467,-9.821000099182129 -7.820000171661377,-7.820000171661377 C-9.821000099182129,-5.817999839782715 -11.060999870300293,-3.053999900817871 -11.060999870300293,0.0010000000474974513 C-11.060999870300293,3.055000066757202 -9.821000099182129,5.818999767303467 -7.820000171661377,7.820000171661377 C-5.818999767303467,9.821999549865723 -3.053999900817871,11.0600004196167 0,11.0600004196167 C3.055000066757202,11.0600004196167 5.818999767303467,9.821999549865723 7.820000171661377,7.820000171661377 C9.821999549865723,5.818999767303467 11.060999870300293,3.055000066757202 11.060999870300293,0.0010000000474974513 C11.060999870300293,-3.053999900817871 9.821999549865723,-5.817999839782715 7.820000171661377,-7.820000171661377 C5.818999767303467,-9.821000099182129 3.055000066757202,-11.0600004196167 0,-11.0600004196167z"></path></g></g><g transform="matrix(1,0,0,1,273.3970031738281,221.6750030517578)" opacity="1" style="display: block;"><g opacity="1" transform="matrix(1,0,0,1,21.634000778198242,9.07699966430664)"><path fill="rgb(207,144,71)" fill-opacity="1" d=" M-18.090999603271484,8.29800033569336 C-17.349000930786133,8.64799976348877 -16.538999557495117,8.82699966430664 -15.72599983215332,8.82699966430664 C-15.121999740600586,8.82699966430664 -14.517000198364258,8.729000091552734 -13.9350004196167,8.529000282287598 C-13.352999687194824,8.329999923706055 -12.793999671936035,8.029000282287598 -12.28499984741211,7.624000072479248 C-6.080999851226807,2.687000036239624 -0.23600000143051147,2.1649999618530273 4.2129998207092285,2.996000051498413 C8.66100025177002,3.8259999752044678 11.71399974822998,6.007999897003174 12.331999778747559,6.480000019073486 C13.529999732971191,7.410999774932861 14.994000434875488,7.77400016784668 16.39299964904785,7.603000164031982 C17.792999267578125,7.433000087738037 19.128000259399414,6.730999946594238 20.06999969482422,5.535999774932861 C21.013999938964844,4.336999893188477 21.384000778198242,2.867000102996826 21.218000411987305,1.4620000123977661 C21.049999237060547,0.0560000017285347 20.347000122070312,-1.284999966621399 19.14699935913086,-2.2300000190734863 C15.947999954223633,-4.749000072479248 10.288000106811523,-7.567999839782715 3.4670000076293945,-8.196999549865723 C-3.3540000915527344,-8.82699966430664 -11.333999633789062,-7.264999866485596 -19.17300033569336,-1.0290000438690186 C-20.367000579833984,-0.07800000160932541 -21.065000534057617,1.2669999599456787 -21.224000930786133,2.6730000972747803 C-21.384000778198242,4.078999996185303 -21.006999969482422,5.546999931335449 -20.055999755859375,6.741000175476074 C-19.510000228881836,7.427000045776367 -18.833999633789062,7.947999954223633 -18.090999603271484,8.29800033569336z"></path></g></g><g transform="matrix(1,0,0,1,179.2050018310547,221.6750030517578)" opacity="1" style="display: block;"><g opacity="1" transform="matrix(1,0,0,1,21.634000778198242,9.076000213623047)"><path fill="rgb(207,144,71)" fill-opacity="1" d=" M-21.225000381469727,2.671999931335449 C-21.385000228881836,4.078000068664551 -21.007999420166016,5.545000076293945 -20.05699920654297,6.739999771118164 C-19.511999130249023,7.426000118255615 -18.834999084472656,7.947000026702881 -18.091999053955078,8.29699993133545 C-17.350000381469727,8.64799976348877 -16.540000915527344,8.826000213623047 -15.72700023651123,8.826000213623047 C-15.123000144958496,8.826000213623047 -14.517000198364258,8.727999687194824 -13.9350004196167,8.527999877929688 C-13.354000091552734,8.329000473022461 -12.795000076293945,8.027999877929688 -12.286999702453613,7.623000144958496 C-6.079999923706055,2.686000108718872 -0.23399999737739563,2.1640000343322754 4.215000152587891,2.994999885559082 C8.663000106811523,3.825000047683716 11.71399974822998,6.007999897003174 12.333000183105469,6.480000019073486 C13.532999992370605,7.410999774932861 14.996000289916992,7.7729997634887695 16.395999908447266,7.603000164031982 C17.795000076293945,7.432000160217285 19.1299991607666,6.730000019073486 20.070999145507812,5.534999847412109 C21.016000747680664,4.335999965667725 21.385000228881836,2.865999937057495 21.218000411987305,1.4609999656677246 C21.051000595092773,0.0560000017285347 20.347999572753906,-1.2860000133514404 19.14900016784668,-2.2309999465942383 C15.949000358581543,-4.75 10.288000106811523,-7.567999839782715 3.4670000076293945,-8.196999549865723 C-3.3540000915527344,-8.826000213623047 -11.335000038146973,-7.265999794006348 -19.17300033569336,-1.0299999713897705 C-20.368999481201172,-0.07900000363588333 -21.065000534057617,1.2660000324249268 -21.225000381469727,2.671999931335449z"></path></g></g><g transform="matrix(1,0,0,1,122.78900146484375,79.75900268554688)" opacity="1" style="display: block;"><g opacity="1" transform="matrix(1,0,0,1,123.40699768066406,150.3990020751953)"><path fill="rgb(211,166,80)" fill-opacity="1" d=" M109.03700256347656,-61.67100143432617 C108.49099731445312,-63.08399963378906 107.91600036621094,-64.42400360107422 107.33000183105469,-65.73300170898438 C106.4729995727539,-67.64700317382812 105.5770034790039,-69.45700073242188 104.64900207519531,-71.16000366210938 C101.56900024414062,-76.81300354003906 98.1510009765625,-81.33300018310547 94.69200134277344,-84.94499969482422 C92.68099975585938,-87.0459976196289 90.66000366210938,-88.84200286865234 88.68299865722656,-90.37300109863281 C87.28700256347656,-91.4530029296875 85.91400146484375,-92.41500091552734 84.58699798583984,-93.24800109863281 C76.51000213623047,-98.322998046875 70.08999633789062,-99.11100006103516 70.08999633789062,-99.11100006103516 C70.08999633789062,-99.11100006103516 68.93599700927734,-101.0739974975586 66.63200378417969,-104.15799713134766 C65.46900177001953,-105.71600341796875 64.01000213623047,-107.55999755859375 62.25600051879883,-109.58599853515625 C58.667999267578125,-113.73300170898438 53.84000015258789,-118.63099670410156 47.775001525878906,-123.37200164794922 C45.40399932861328,-125.2239990234375 42.847999572753906,-127.0510025024414 40.097999572753906,-128.7989959716797 C39.965999603271484,-128.88299560546875 39.8380012512207,-128.97000122070312 39.70399856567383,-129.0540008544922 C19.41200065612793,-141.81300354003906 -11.076000213623047,-150.1490020751953 -51.86199951171875,-132.4530029296875 C-83.47799682617188,-112.9280014038086 -98.71299743652344,-90.4729995727539 -105.41300201416016,-70.04499816894531 C-110.0009994506836,-56.058998107910156 -110.58499908447266,-43.0260009765625 -109.68900299072266,-32.52899932861328 C-109.5260009765625,-30.634000778198242 -109.31700134277344,-28.822999954223633 -109.072998046875,-27.101999282836914 C-108.69400024414062,-24.434999465942383 -108.23699951171875,-21.983999252319336 -107.75299835205078,-19.795000076293945 C-107.2770004272461,-17.643999099731445 -106.85600280761719,-15.482999801635742 -106.46700286865234,-13.317000389099121 C-106.14299774169922,-11.51200008392334 -105.83899688720703,-9.70300006866455 -105.5790023803711,-7.888999938964844 C-105.38700103759766,-6.547999858856201 -105.21199798583984,-5.204999923706055 -105.05599975585938,-3.8589999675750732 C-104.68000030517578,-0.6179999709129333 -104.42500305175781,2.635999917984009 -104.27200317382812,5.895999908447266 C-104.23500061035156,6.678999900817871 -104.19100189208984,7.460000038146973 -104.16699981689453,8.243000030517578 C-104.12699890136719,9.583000183105469 -104.10600280761719,10.925000190734863 -104.10600280761719,12.267000198364258 C-104.10600280761719,12.267000198364258 -104.10600280761719,43.314998626708984 -104.10600280761719,43.314998626708984 C-104.10600280761719,43.314998626708984 -104.10600280761719,54.58700180053711 -104.10600280761719,54.58700180053711 C-104.10600280761719,54.58700180053711 -104.10600280761719,62.0629997253418 -104.10600280761719,62.0629997253418 C-104.24500274658203,62.5620002746582 -104.38700103759766,63.04800033569336 -104.52999877929688,63.53499984741211 C-105.08799743652344,65.43699645996094 -105.6709976196289,67.24600219726562 -106.27400207519531,68.96199798583984 C-106.44000244140625,69.43399810791016 -106.60800170898438,69.89800262451172 -106.7760009765625,70.35600280761719 C-107.21600341796875,71.54900360107422 -107.66200256347656,72.70700073242188 -108.11799621582031,73.80999755859375 C-108.89299774169922,75.68199920654297 -109.68699645996094,77.41699981689453 -110.48999786376953,79.03900146484375 C-111.13999938964844,80.35199737548828 -111.7959976196289,81.58999633789062 -112.45099639892578,82.74700164794922 C-113.6050033569336,84.78399658203125 -114.75700378417969,86.58599853515625 -115.87699890136719,88.17500305175781 C-117.8290023803711,90.94400024414062 -119.68099975585938,93.06800079345703 -121.26100158691406,94.65599822998047 C-122.53099822998047,95.93199920654297 -123.15699768066406,97.6050033569336 -123.1449966430664,99.27300262451172 C-123.13800048828125,100.19499969482422 -122.91600036621094,101.10900115966797 -122.5199966430664,101.95999908447266 C-122.197998046875,102.6510009765625 -121.7699966430664,103.30400085449219 -121.19400024414062,103.86900329589844 C-120.12899780273438,104.91400146484375 -118.87699890136719,106.10399627685547 -117.48300170898438,107.38800048828125 C-116.78600311279297,108.02999877929688 -116.0479965209961,108.6969985961914 -115.27100372314453,109.38800048828125 C-112.3290023803711,112.00800323486328 -108.83300018310547,114.9520034790039 -104.77899932861328,118.072998046875 C-98.76699829101562,122.70099639892578 -91.552001953125,127.69000244140625 -83.26599884033203,132.48899841308594 C-81.61299896240234,133.4459991455078 -79.93399810791016,134.3979949951172 -78.19499969482422,135.3350067138672 C-76.91400146484375,136.0260009765625 -75.60900115966797,136.70899963378906 -74.28299713134766,137.38499450683594 C-66.51000213623047,141.34500122070312 -57.94499969482422,145.0070037841797 -48.68000030517578,148.03700256347656 C-48.202999114990234,148.1929931640625 -47.737998962402344,148.35899353027344 -47.257999420166016,148.51100158691406 C-43.00199890136719,145.5959930419922 -38.45500183105469,143.0780029296875 -33.67100143432617,141.0030059814453 C-33.67100143432617,141.0030059814453 -33.926998138427734,140.11199951171875 -33.926998138427734,140.11199951171875 C-46.22999954223633,134.9040069580078 -57.28799819946289,127.0780029296875 -66.49099731445312,117.2750015258789 C-80.10900115966797,102.7699966430664 -89.63999938964844,83.93199920654297 -93.1729965209961,62.87900161743164 C-93.1729965209961,62.87900161743164 -93.1729965209961,39.28200149536133 -93.1729965209961,39.28200149536133 C-93.1729965209961,39.28200149536133 -93.1729965209961,4.201000213623047 -93.1729965209961,4.201000213623047 C-70.96299743652344,-0.4650000035762787 -56.24399948120117,-13.105999946594238 -47.077999114990234,-24.57900047302246 C-37.91299819946289,-36.053001403808594 -34.29999923706055,-46.36000061035156 -34.29999923706055,-46.36000061035156 C-4.7729997634887695,-40.362998962402344 19.038999557495117,-46.95600128173828 35.46699905395508,-55.04800033569336 C51.89500045776367,-63.138999938964844 60.94200134277344,-72.73100280761719 60.94200134277344,-72.73100280761719 C64.12200164794922,-50.32099914550781 72.3550033569336,-31.92799949645996 79.79399871826172,-19.13599967956543 C87.23200225830078,-6.343999862670898 93.8759994506836,0.8450000286102295 93.8759994506836,0.8450000286102295 C93.8759994506836,0.8450000286102295 93.8759994506836,37.60300064086914 93.8759994506836,37.60300064086914 C93.8759994506836,37.60300064086914 93.8759994506836,74.36299896240234 93.8759994506836,74.36299896240234 C89.23200225830078,90.7760009765625 80.8479995727539,105.46199798583984 69.75800323486328,117.2750015258789 C60.54800033569336,127.08399963378906 48.40700149536133,135.36199951171875 36.09700012207031,140.56900024414062 C36.09700012207031,140.56900024414062 36.15599822998047,143.64700317382812 36.15599822998047,143.64700317382812 C39.78799819946289,145.55799865722656 43.2599983215332,147.72999572753906 46.54100036621094,150.1490020751953 C59.12799835205078,146.67100524902344 70.36799621582031,142.00100708007812 80.13999938964844,136.9290008544922 C100.31300354003906,126.45700073242188 114.27400207519531,114.31400299072266 121.12999725341797,107.62999725341797 C122.39900207519531,106.39199829101562 123.06300354003906,104.76699829101562 123.11100006103516,103.1259994506836 C123.15699768066406,101.48500061035156 122.58799743652344,99.8270034790039 121.38700103759766,98.52200317382812 C113.18399810791016,89.60900115966797 107.927001953125,74.02400207519531 104.61100006103516,59.48400115966797 C104.61100006103516,59.48400115966797 104.61100006103516,56.59000015258789 104.61100006103516,56.59000015258789 C104.61100006103516,56.59000015258789 104.61100006103516,52.0369987487793 104.61100006103516,52.0369987487793 C104.61100006103516,52.0369987487793 104.61100006103516,29.711999893188477 104.61100006103516,29.711999893188477 C104.61100006103516,22.94700050354004 105.08200073242188,16.198999404907227 106.03199768066406,9.520000457763672 C106.12999725341797,8.831000328063965 106.25599670410156,8.145999908447266 106.36399841308594,7.459000110626221 C107.30400085449219,1.4819999933242798 108.60700225830078,-4.438000202178955 110.32599639892578,-10.256999969482422 C112.15799713134766,-16.46500015258789 113.76799774169922,-24.32699966430664 113.95500183105469,-33.13199996948242 C114.04399871826172,-37.400001525878906 113.79000091552734,-41.89099884033203 113.0739974975586,-46.52000045776367 C112.7979965209961,-48.308998107910156 112.43499755859375,-50.12099838256836 112.01100158691406,-51.948001861572266 C111.26599884033203,-55.14799880981445 110.30599975585938,-58.39500045776367 109.03700256347656,-61.67100143432617z"></path></g></g><g transform="matrix(1,0,0,1,236.60800170898438,254.51800537109375)" opacity="1" style="display: block;"><g opacity="1" transform="matrix(1,0,0,1,16.187999725341797,22.92300033569336)"><path fill="rgb(244,155,143)" fill-opacity="1" d=" M-9.428999900817871,18.165000915527344 C-2.9200000762939453,22.67300033569336 2.996999979019165,22.672000885009766 7.4019999504089355,21.13599967956543 C11.805999755859375,19.600000381469727 14.696999549865723,16.525999069213867 15.156000137329102,14.888999938964844 C15.156000137329102,14.888999938964844 15.824000358581543,13.51200008392334 15.880999565124512,11.444999694824219 C15.939000129699707,9.380000114440918 15.38599967956543,6.625 12.944999694824219,3.869999885559082 C10.503999710083008,1.1160000562667847 7.7230000495910645,0.3490000069141388 5.552999973297119,0.27000001072883606 C3.382999897003174,0.19200000166893005 1.8240000009536743,0.8019999861717224 1.8240000009536743,0.8019999861717224 C1.8240000009536743,0.8019999861717224 2.2019999027252197,-4.315000057220459 1.8589999675750732,-9.684000015258789 C1.5149999856948853,-15.052000045776367 0.44999998807907104,-20.670000076293945 -2.436000108718872,-21.672000885009766 C-5.322999954223633,-22.67300033569336 -10.324999809265137,-14.968000411987305 -12.979000091552734,-5.885000228881836 C-15.633000373840332,3.197000026702881 -15.937999725341797,13.657999992370605 -9.428999900817871,18.165000915527344z"></path></g></g><g transform="matrix(1,0,0,1,250,250)" opacity="1" style="display: block;"><g opacity="1" transform="matrix(1,0,0,1,0,0)"><path fill="rgb(255,0,0)" fill-opacity="1" d="M0 0"></path><path stroke-linecap="round" stroke-linejoin="miter" fill-opacity="0" stroke-miterlimit="4" stroke="rgb(244,114,143)" stroke-opacity="1" stroke-width="8" d=" M-27.5,73 C-22.631000518798828,73.94999694824219 -15.166000366210938,75.01300048828125 -6.632999897003174,75.35800170898438 C2.7950000762939453,75.73899841308594 13.526000022888184,75.24299621582031 23.5,72.75"></path></g></g><g transform="matrix(1,0,0,1,233.0399932861328,331.8320007324219)" opacity="1" style="display: block;"><g opacity="1" transform="matrix(1,0,0,1,15.211999893188477,3.9119999408721924)"><path fill="rgb(244,155,143)" fill-opacity="1" d=" M10.725000381469727,-3.569000005722046 C7.1539998054504395,-3.234999895095825 3.571000099182129,-3.061000108718872 -0.012000000104308128,-3.0490000247955322 C-3.5940001010894775,-3.0369999408721924 -7.177000045776367,-3.184999942779541 -10.75100040435791,-3.494999885559082 C-11.765000343322754,-3.5829999446868896 -12.732999801635742,-3.302000045776367 -13.475000381469727,-2.7730000019073486 C-14.217000007629395,-2.243000030517578 -14.734000205993652,-1.4630000591278076 -14.848999977111816,-0.5479999780654907 C-14.961999893188477,0.3659999966621399 -14.62399959564209,1.2519999742507935 -13.986000061035156,1.9320000410079956 C-13.348999977111816,2.611999988555908 -12.411999702453613,3.0869998931884766 -11.329000473022461,3.180000066757202 C-7.556000232696533,3.506999969482422 -3.7720000743865967,3.6630001068115234 0.010999999940395355,3.6510000228881836 C3.7939999103546143,3.63700008392334 7.577000141143799,3.4539999961853027 11.347999572753906,3.1019999980926514 C12.430000305175781,3.000999927520752 13.36400032043457,2.5199999809265137 13.996000289916992,1.8350000381469727 C14.628999710083008,1.1519999504089355 14.961999893188477,0.2630000114440918 14.843000411987305,-0.6499999761581421 C14.723999977111816,-1.5640000104904175 14.20199966430664,-2.3399999141693115 13.454000473022461,-2.865999937057495 C12.708999633789062,-3.390000104904175 11.739999771118164,-3.6630001068115234 10.725000381469727,-3.569000005722046z"></path></g></g><g transform="matrix(1,0,0,1,383.2330017089844,440.7569885253906)" opacity="1" style="display: block;"><g opacity="1" transform="matrix(1,0,0,1,5.304999828338623,7.806000232696533)"><path fill="rgb(236,230,231)" fill-opacity="1" d=" M-2.805999994277954,-7.556000232696533 C-2.890000104904175,-7.4029998779296875 -2.9730000495910645,-7.235000133514404 -3.055999994277954,-7.077000141143799 C-3.2669999599456787,-5.550000190734863 -3.9790000915527344,-0.36500000953674316 -5.056000232696533,7.556000232696533 C-1.6230000257492065,5.251999855041504 1.7519999742507935,2.865999937057495 5.056000232696533,0.3919999897480011 C0.4909999966621399,-4.896999835968018 -2.805999994277954,-7.556000232696533 -2.805999994277954,-7.556000232696533z"></path></g></g><g transform="matrix(1,0,0,1,323.90301513671875,408.6020202636719)" opacity="1" style="display: block;"><g opacity="1" transform="matrix(1,0,0,1,31.05900001525879,36.3390007019043)"><path fill="rgb(255,255,255)" fill-opacity="1" d=" M30.743999481201172,-3.625999927520752 C30.78700065612793,-3.937000036239624 30.80900001525879,-4.105000019073486 30.80900001525879,-4.105000019073486 C30.80900001525879,-4.105000019073486 30.506999969482422,-4.26200008392334 30.506999969482422,-4.26200008392334 C30.506999969482422,-4.26200008392334 20.051000595092773,-9.689000129699707 20.051000595092773,-9.689000129699707 C20.051000595092773,-9.689000129699707 -6.507999897003174,-23.475000381469727 -6.507999897003174,-23.475000381469727 C-6.507999897003174,-23.475000381469727 -11.27299976348877,-25.94700050354004 -11.27299976348877,-25.94700050354004 C-11.27299976348877,-25.94700050354004 -16.96500015258789,-28.902000427246094 -16.96500015258789,-28.902000427246094 C-16.96500015258789,-28.902000427246094 -30.80900001525879,-36.0890007019043 -30.80900001525879,-36.0890007019043 C-25.82200050354004,-28.4950008392334 -22.295000076293945,-19 -21.71299934387207,-7.159999847412109 C-20.948999404907227,8.359999656677246 -20.249000549316406,23.149999618530273 -19.64900016784668,36.0890007019043 C-2.496999979019165,29.53499984741211 13.722999572753906,21.09600067138672 28.743999481201172,11.008000373840332 C29.820999145507812,3.0869998931884766 30.534000396728516,-2.0989999771118164 30.743999481201172,-3.625999927520752z"></path></g></g><g transform="matrix(1,0,0,1,103.86499786376953,440.89801025390625)" opacity="1" style="display: block;"><g opacity="1" transform="matrix(1,0,0,1,5.306000232696533,7.650000095367432)"><path fill="rgb(236,230,231)" fill-opacity="1" d=" M2.996999979019165,-7.3460001945495605 C2.996999979019165,-7.3460001945495605 3.059999942779541,-7.400000095367432 2.996999979019165,-7.3460001945495605 C2.4200000762939453,-6.867000102996826 -0.9490000009536743,-4.521999835968018 -5.056000232696533,0.23600000143051147 C-1.7510000467300415,2.7100000381469727 1.6230000257492065,5.09499979019165 5.056000232696533,7.400000095367432 C3.9790000915527344,-0.5210000276565552 3.2660000324249268,-5.705999851226807 3.055999994277954,-7.234000205993652 C3.061000108718872,-7.2179999351501465 3.117000102996826,-7.125 2.996999979019165,-7.3460001945495605z"></path></g></g><g transform="matrix(1,0,0,1,111.91799926757812,410.2820129394531)" opacity="1" style="display: block;"><g opacity="1" transform="matrix(1,0,0,1,29.437999725341797,35.1150016784668)"><path fill="rgb(255,255,255)" fill-opacity="1" d=" M12.887999534606934,-26.40399932861328 C12.887999534606934,-26.40399932861328 -21.81399917602539,-8.392999649047852 -21.81399917602539,-8.392999649047852 C-21.81399917602539,-8.392999649047852 -29.18899917602539,-4.195000171661377 -29.18899917602539,-4.195000171661377 C-29.16900062561035,-4.1579999923706055 -29.149999618530273,-4.119999885559082 -29.1299991607666,-4.083000183105469 C-28.920000076293945,-2.555000066757202 -28.207000732421875,2.630000114440918 -27.1299991607666,10.550999641418457 C-12.696000099182129,20.243999481201172 2.8380000591278076,28.426000595092773 19.246999740600586,34.8650016784668 C19.839000701904297,22.11199951171875 20.527000427246094,7.59499979019165 21.274999618530273,-7.617000102996826 C21.812000274658203,-18.527999877929688 24.836000442504883,-27.50200080871582 29.18899917602539,-34.8650016784668 C29.18899917602539,-34.8650016784668 12.887999534606934,-26.40399932861328 12.887999534606934,-26.40399932861328z"></path></g></g></g></svg>