<svg xmlns="http://www.w3.org/2000/svg" viewBox="0 0 500 500" width="500" height="500" preserveAspectRatio="xMidYMid meet" style="width: 100%; height: 100%; transform: translate3d(0px, 0px, 0px);"><defs><clipPath id="__lottie_element_2"><rect width="500" height="500" x="0" y="0"></rect></clipPath><clipPath id="__lottie_element_4"><path d="M0,0 L300,0 L300,300 L0,300z"></path></clipPath><clipPath id="__lottie_element_14"><path fill="#ffffff" clip-rule="nonzero" d=" M184.01800537109375,174.39500427246094 C178.9550018310547,138.9510040283203 137.8509979248047,149.67300415039062 119.68199920654297,127.33399963378906 C110.447998046875,115.71800231933594 111.63999938964844,84.14600372314453 115.21399688720703,69.8479995727539 C129.21299743652344,14.446999549865723 184.01800537109375,0.4480000138282776 236.14300537109375,8.788000106811523 C289.4590148925781,17.426000595092773 331.48199462890625,52.88999938964844 293.0329895019531,104.39900207519531 C277.24700927734375,125.5469970703125 260.26800537109375,128.822998046875 237.03599548339844,133.58900451660156 C207.8470001220703,139.24899291992188 203.97500610351562,149.67300415039062 184.01800537109375,174.39500427246094" fill-opacity="1"></path></clipPath></defs><g clip-path="url(#__lottie_element_2)"><g transform="matrix(1,0,0,1,250,250)" opacity="1" style="display: block;"><g opacity="1" transform="matrix(1,0,0,1,-2,2.5)"><path fill="rgb(50,166,226)" fill-opacity="1" d=" M253,-256.5 C253,-256.5 253,256.5 253,256.5 C253,256.5 -253,256.5 -253,256.5 C-253,256.5 -253,-256.5 -253,-256.5 C-253,-256.5 253,-256.5 253,-256.5z"></path><path stroke-linecap="butt" stroke-linejoin="miter" fill-opacity="0" stroke-miterlimit="4" stroke="rgb(255,255,255)" stroke-opacity="1" stroke-width="2" d="M0 0"></path></g></g><g transform="matrix(1,0,0,1,-11.261993408203125,328.8370056152344)" opacity="1" style="display: block;"><g opacity="1" transform="matrix(1,0,0,1,261.26300048828125,89.76300048828125)"><path fill="rgb(26,26,26)" fill-opacity="1" d=" M180.60000610351562,-21.700000762939453 C180.60000610351562,-21.700000762939453 60.4010009765625,-78.9000015258789 60.4010009765625,-78.9000015258789 C60.4010009765625,-78.9000015258789 4.401000022888184,-78.9000015258789 4.401000022888184,-78.9000015258789 C4.401000022888184,-78.9000015258789 -4.199999809265137,-78.9000015258789 -4.199999809265137,-78.9000015258789 C-4.199999809265137,-78.9000015258789 -60.20000076293945,-78.9000015258789 -60.20000076293945,-78.9000015258789 C-60.20000076293945,-78.9000015258789 -180.2989959716797,-21.700000762939453 -180.2989959716797,-21.700000762939453 C-180.2989959716797,-21.700000762939453 -250.39999389648438,3.999000072479248 -244.6999969482422,78.9000015258789 C-244.6999969482422,78.9000015258789 -4.099999904632568,78.9000015258789 -4.099999904632568,78.9000015258789 C-4.099999904632568,78.9000015258789 4.5,78.9000015258789 4.5,78.9000015258789 C4.5,78.9000015258789 245,78.9000015258789 245,78.9000015258789 C252.10000610351562,4.698999881744385 180.60000610351562,-21.700000762939453 180.60000610351562,-21.700000762939453z"></path></g><g opacity="1" transform="matrix(1,0,0,1,262.1130065917969,89.76300048828125)"><path stroke-linecap="butt" stroke-linejoin="round" fill-opacity="0" stroke="rgb(26,26,26)" stroke-opacity="1" stroke-width="4.345" d=" M179.75,-21.700000762939453 C179.75,-21.700000762939453 59.55099868774414,-78.9000015258789 59.55099868774414,-78.9000015258789 C59.55099868774414,-78.9000015258789 3.5510001182556152,-78.9000015258789 3.5510001182556152,-78.9000015258789 C3.5510001182556152,-78.9000015258789 -5.050000190734863,-78.9000015258789 -5.050000190734863,-78.9000015258789 C-5.050000190734863,-78.9000015258789 -61.04999923706055,-78.9000015258789 -61.04999923706055,-78.9000015258789 C-61.04999923706055,-78.9000015258789 -181.1490020751953,-21.700000762939453 -181.1490020751953,-21.700000762939453 C-181.1490020751953,-21.700000762939453 -251.25,3.999000072479248 -245.5500030517578,78.9000015258789 C-245.5500030517578,78.9000015258789 -4.949999809265137,78.9000015258789 -4.949999809265137,78.9000015258789 C-4.949999809265137,78.9000015258789 3.6500000953674316,78.9000015258789 3.6500000953674316,78.9000015258789 C3.6500000953674316,78.9000015258789 244.14999389648438,78.9000015258789 244.14999389648438,78.9000015258789 C251.25,4.698999881744385 179.75,-21.700000762939453 179.75,-21.700000762939453z"></path></g></g><g transform="matrix(1,0,0,1,148.93699645996094,200.7370147705078)" opacity="1" style="display: block;"><g opacity="1" transform="matrix(1,0,0,1,106.31199645996094,111.71299743652344)"><path fill="rgb(255,190,162)" fill-opacity="1" d=" M56.25,27.25 C56.25,27.25 56.25,27.25 56.25,27.25 C56.25,27.25 56.25,-100.8499984741211 56.25,-100.8499984741211 C56.25,-100.8499984741211 -65.3499984741211,-100.8499984741211 -65.3499984741211,-100.8499984741211 C-65.3499984741211,-100.8499984741211 -65.3499984741211,27.25 -65.3499984741211,27.25 C-65.3499984741211,27.25 -95.44999694824219,41.54999923706055 -95.44999694824219,41.54999923706055 C-95.44999694824219,41.54999923706055 -93.05000305175781,98.44999694824219 -3.3499999046325684,99.64900207519531 C86.44999694824219,100.8499984741211 95.44999694824219,46.45000076293945 95.44999694824219,46.45000076293945 C95.44999694824219,46.45000076293945 56.25,27.25 56.25,27.25z"></path></g><g opacity="1" transform="matrix(1,0,0,1,106.31199645996094,111.71299743652344)"><path stroke-linecap="butt" stroke-linejoin="round" fill-opacity="0" stroke="rgb(26,26,26)" stroke-opacity="1" stroke-width="4.345" d=" M56.25,27.25 C56.25,27.25 56.25,27.25 56.25,27.25 C56.25,27.25 56.25,-100.8499984741211 56.25,-100.8499984741211 C56.25,-100.8499984741211 -65.3499984741211,-100.8499984741211 -65.3499984741211,-100.8499984741211 C-65.3499984741211,-100.8499984741211 -65.3499984741211,27.25 -65.3499984741211,27.25 C-65.3499984741211,27.25 -95.44999694824219,41.54999923706055 -95.44999694824219,41.54999923706055 C-95.44999694824219,41.54999923706055 -93.05000305175781,98.44999694824219 -3.3499999046325684,99.64900207519531 C86.44999694824219,100.8499984741211 95.44999694824219,46.45000076293945 95.44999694824219,46.45000076293945 C95.44999694824219,46.45000076293945 56.25,27.25 56.25,27.25z"></path></g></g><g transform="matrix(0.9996833205223083,0.02516499161720276,-0.02516499161720276,0.9996833205223083,191.552490234375,250.10562133789062)" opacity="1" style="display: block;"><g opacity="1" transform="matrix(1,0,0,1,60.29999923706055,29.055999755859375)"><path fill="rgb(26,26,26)" fill-opacity="1" d=" M-60.29999923706055,-29.05699920654297 C-60.29999923706055,-29.05699920654297 -50.099998474121094,22.64299964904785 -5.199999809265137,28.54400062561035 C46.5,35.34299850463867 60.30099868774414,-27.756000518798828 60.30099868774414,-27.756000518798828 C60.30099868774414,-27.756000518798828 37.400001525878906,0.9430000185966492 1.3009999990463257,0.9430000185966492 C-39,0.9430000185966492 -60.29999923706055,-29.05699920654297 -60.29999923706055,-29.05699920654297z"></path></g></g><g transform="matrix(0.9996833205223083,0.02516499161720276,-0.02516499161720276,0.9996833205223083,322.6546325683594,145.80877685546875)" opacity="1" style="display: block;"><g opacity="1" transform="matrix(1,0,0,1,35.46200180053711,41.41299819946289)"><path fill="rgb(255,190,162)" fill-opacity="1" d=" M-17.399999618530273,-17.549999237060547 C-17.399999618530273,-17.549999237060547 -9.199999809265137,-30.549999237060547 7.701000213623047,-24.149999618530273 C24.600000381469727,-17.75 17,23.350000381469727 -8.399999618530273,28.549999237060547 C-8.399999618530273,28.549999237060547 -17.5,30.549999237060547 -24.600000381469727,24.350000381469727 C-24.600000381469727,24.350000381469727 -18.399999618530273,-5.949999809265137 -17.399999618530273,-17.549999237060547z"></path></g><g opacity="1" transform="matrix(1,0,0,1,35.46200180053711,41.41299819946289)"><path stroke-linecap="butt" stroke-linejoin="round" fill-opacity="0" stroke="rgb(26,26,26)" stroke-opacity="1" stroke-width="4.345" d=" M-17.399999618530273,-17.549999237060547 C-17.399999618530273,-17.549999237060547 -9.199999809265137,-30.549999237060547 7.701000213623047,-24.149999618530273 C24.600000381469727,-17.75 17,23.350000381469727 -8.399999618530273,28.549999237060547 C-8.399999618530273,28.549999237060547 -17.5,30.549999237060547 -24.600000381469727,24.350000381469727 C-24.600000381469727,24.350000381469727 -18.399999618530273,-5.949999809265137 -17.399999618530273,-17.549999237060547z"></path></g><g opacity="1" transform="matrix(1,0,0,1,27.663000106811523,37.46200180053711)"><path fill="rgb(255,190,162)" fill-opacity="1" d=" M12.100000381469727,-5.699999809265137 C12.100000381469727,-5.699999809265137 -2.0999999046325684,-10.399999618530273 -12.100000381469727,10.399999618530273"></path></g><g opacity="1" transform="matrix(1,0,0,1,27.663000106811523,37.46200180053711)"><path stroke-linecap="butt" stroke-linejoin="round" fill-opacity="0" stroke="rgb(26,26,26)" stroke-opacity="1" stroke-width="4.345" d=" M12.100000381469727,-5.699999809265137 C12.100000381469727,-5.699999809265137 -2.0999999046325684,-10.399999618530273 -12.100000381469727,10.399999618530273"></path></g><g opacity="1" transform="matrix(1,0,0,1,30.16200065612793,47.9630012512207)"><path fill="rgb(255,190,162)" fill-opacity="1" d=" M-7.698999881744385,-10.300000190734863 C-7.698999881744385,-10.300000190734863 7.698999881744385,-2.0999999046325684 -2.5,10.300000190734863"></path></g><g opacity="1" transform="matrix(1,0,0,1,30.16200065612793,47.9630012512207)"><path stroke-linecap="butt" stroke-linejoin="round" fill-opacity="0" stroke="rgb(26,26,26)" stroke-opacity="1" stroke-width="4.345" d=" M-7.698999881744385,-10.300000190734863 C-7.698999881744385,-10.300000190734863 7.698999881744385,-2.0999999046325684 -2.5,10.300000190734863"></path></g></g><g transform="matrix(0.9996833205223083,0.02516499161720276,-0.02516499161720276,0.9996833205223083,114.82147216796875,140.57699584960938)" opacity="1" style="display: block;"><g opacity="1" transform="matrix(1,0,0,1,35.4630012512207,41.41299819946289)"><path fill="rgb(255,190,162)" fill-opacity="1" d=" M17.399999618530273,-17.549999237060547 C17.399999618530273,-17.549999237060547 9.199999809265137,-30.549999237060547 -7.699999809265137,-24.149999618530273 C-24.600000381469727,-17.75 -17,23.350000381469727 8.399999618530273,28.549999237060547 C8.399999618530273,28.549999237060547 17.5,30.549999237060547 24.600000381469727,24.350000381469727 C24.600000381469727,24.350000381469727 18.399999618530273,-5.949999809265137 17.399999618530273,-17.549999237060547z"></path></g><g opacity="1" transform="matrix(1,0,0,1,35.4630012512207,41.41299819946289)"><path stroke-linecap="butt" stroke-linejoin="round" fill-opacity="0" stroke="rgb(26,26,26)" stroke-opacity="1" stroke-width="4.345" d=" M17.399999618530273,-17.549999237060547 C17.399999618530273,-17.549999237060547 9.199999809265137,-30.549999237060547 -7.699999809265137,-24.149999618530273 C-24.600000381469727,-17.75 -17,23.350000381469727 8.399999618530273,28.549999237060547 C8.399999618530273,28.549999237060547 17.5,30.549999237060547 24.600000381469727,24.350000381469727 C24.600000381469727,24.350000381469727 18.399999618530273,-5.949999809265137 17.399999618530273,-17.549999237060547z"></path></g><g opacity="1" transform="matrix(1,0,0,1,43.262001037597656,37.46200180053711)"><path fill="rgb(255,190,162)" fill-opacity="1" d=" M-12.100000381469727,-5.699999809265137 C-12.100000381469727,-5.699999809265137 2.0999999046325684,-10.399999618530273 12.100000381469727,10.399999618530273"></path></g><g opacity="1" transform="matrix(1,0,0,1,43.262001037597656,37.46200180053711)"><path stroke-linecap="butt" stroke-linejoin="round" fill-opacity="0" stroke="rgb(26,26,26)" stroke-opacity="1" stroke-width="4.345" d=" M-12.100000381469727,-5.699999809265137 C-12.100000381469727,-5.699999809265137 2.0999999046325684,-10.399999618530273 12.100000381469727,10.399999618530273"></path></g><g opacity="1" transform="matrix(1,0,0,1,40.762001037597656,47.9630012512207)"><path fill="rgb(255,190,162)" fill-opacity="1" d=" M7.699999809265137,-10.300000190734863 C7.699999809265137,-10.300000190734863 -7.699999809265137,-2.0999999046325684 2.5,10.300000190734863"></path></g><g opacity="1" transform="matrix(1,0,0,1,40.762001037597656,47.9630012512207)"><path stroke-linecap="butt" stroke-linejoin="round" fill-opacity="0" stroke="rgb(26,26,26)" stroke-opacity="1" stroke-width="4.345" d=" M7.699999809265137,-10.300000190734863 C7.699999809265137,-10.300000190734863 -7.699999809265137,-2.0999999046325684 2.5,10.300000190734863"></path></g></g><g transform="matrix(0.9996833205223083,0.02516499161720276,-0.02516499161720276,0.9996833205223083,156.87535095214844,27.699539184570312)" opacity="1" style="display: block;"><g opacity="1" transform="matrix(1,0,0,1,101.01200103759766,131.61300659179688)"><path fill="rgb(255,190,162)" fill-opacity="1" d=" M87.44999694824219,-32.75 C87.44999694824219,-7.949999809265137 85.05000305175781,43.75 69.8499984741211,74.55000305175781 C55.54999923706055,103.44999694824219 31.950000762939453,118.94999694824219 0.949999988079071,119.8499984741211 C-30.049999237060547,120.75 -53.150001525878906,108.8499984741211 -71.6500015258789,71.3499984741211 C-90.1500015258789,33.849998474121094 -89.25,-32.349998474121094 -89.25,-32.349998474121094 C-89.25,-32.349998474121094 -89.25,-120.75 -1.850000023841858,-120.75 C90.1500015258789,-120.75 87.44999694824219,-32.75 87.44999694824219,-32.75z"></path></g><g opacity="1" transform="matrix(1,0,0,1,101.01200103759766,131.61300659179688)"><path stroke-linecap="butt" stroke-linejoin="round" fill-opacity="0" stroke="rgb(26,26,26)" stroke-opacity="1" stroke-width="4.345" d=" M87.44999694824219,-32.75 C87.44999694824219,-7.949999809265137 85.05000305175781,43.75 69.8499984741211,74.55000305175781 C55.54999923706055,103.44999694824219 31.950000762939453,118.94999694824219 0.949999988079071,119.8499984741211 C-30.049999237060547,120.75 -53.150001525878906,108.8499984741211 -71.6500015258789,71.3499984741211 C-90.1500015258789,33.849998474121094 -89.25,-32.349998474121094 -89.25,-32.349998474121094 C-89.25,-32.349998474121094 -89.25,-120.75 -1.850000023841858,-120.75 C90.1500015258789,-120.75 87.44999694824219,-32.75 87.44999694824219,-32.75z"></path></g></g><g transform="matrix(0.9996833205223083,0.02516499161720276,-0.02516499161720276,0.9996833205223083,240.5718231201172,130.70138549804688)" opacity="1" style="display: block;"><g opacity="1" transform="matrix(1,0,0,1,15.199999809265137,39.25)"><path fill="rgb(255,190,162)" fill-opacity="1" d=" M-7.599999904632568,-31.649999618530273 C-7.599999904632568,-31.649999618530273 -7.599999904632568,24.649999618530273 -7.599999904632568,24.649999618530273 C-7.599999904632568,25.549999237060547 -7.400000095367432,26.350000381469727 -7.099999904632568,27.149999618530273 C-5.900000095367432,30.149999618530273 -2.4000000953674316,31.649999618530273 0.800000011920929,30.75 C0.800000011920929,30.75 7.599999904632568,28.950000762939453 7.599999904632568,28.950000762939453"></path></g><g opacity="1" transform="matrix(1,0,0,1,15.199999809265137,39.25)"><path stroke-linecap="butt" stroke-linejoin="round" fill-opacity="0" stroke="rgb(26,26,26)" stroke-opacity="1" stroke-width="3.04" d=" M-7.599999904632568,-31.649999618530273 C-7.599999904632568,-31.649999618530273 -7.599999904632568,24.649999618530273 -7.599999904632568,24.649999618530273 C-7.599999904632568,25.549999237060547 -7.400000095367432,26.350000381469727 -7.099999904632568,27.149999618530273 C-5.900000095367432,30.149999618530273 -2.4000000953674316,31.649999618530273 0.800000011920929,30.75 C0.800000011920929,30.75 7.599999904632568,28.950000762939453 7.599999904632568,28.950000762939453"></path></g></g><g transform="matrix(0.9996833205223083,0.02516499161720276,-0.02516499161720276,0.9996833205223083,205.5426025390625,153.2770233154297)" opacity="1" style="display: block;"><g opacity="1" transform="matrix(1,0,0,1,7.050000190734863,7.050000190734863)"><path fill="rgb(26,26,26)" fill-opacity="1" d=" M0,-6.800000190734863 C3.75600004196167,-6.800000190734863 6.800000190734863,-3.75600004196167 6.800000190734863,0 C6.800000190734863,3.755000114440918 3.75600004196167,6.800000190734863 0,6.800000190734863 C-3.755000114440918,6.800000190734863 -6.800000190734863,3.755000114440918 -6.800000190734863,0 C-6.800000190734863,-3.75600004196167 -3.755000114440918,-6.800000190734863 0,-6.800000190734863z"></path></g></g><g transform="matrix(0.9996833205223083,0.02516499161720276,-0.02516499161720276,0.9996833205223083,283.2179870605469,155.2323455810547)" opacity="1" style="display: block;"><g opacity="1" transform="matrix(1,0,0,1,7.050000190734863,7.050000190734863)"><path fill="rgb(26,26,26)" fill-opacity="1" d=" M0,-6.800000190734863 C3.75600004196167,-6.800000190734863 6.801000118255615,-3.75600004196167 6.801000118255615,0 C6.801000118255615,3.755000114440918 3.75600004196167,6.800000190734863 0,6.800000190734863 C-3.755000114440918,6.800000190734863 -6.801000118255615,3.755000114440918 -6.801000118255615,0 C-6.801000118255615,-3.75600004196167 -3.755000114440918,-6.800000190734863 0,-6.800000190734863z"></path></g></g><g transform="matrix(0.9996833205223083,0.02516499161720276,-0.02516499161720276,0.9996833205223083,207.22048950195312,167.2506561279297)" opacity="1" style="display: block;"><g opacity="1" transform="matrix(1,0,0,1,8.92199993133545,6.072000026702881)"><path stroke-linecap="round" stroke-linejoin="round" fill-opacity="0" stroke="rgb(26,26,26)" stroke-opacity="1" stroke-width="1.045" d=" M8.399999618530273,-5.550000190734863 C8.399999618530273,-5.550000190734863 -8.399999618530273,5.550000190734863 -8.399999618530273,5.550000190734863"></path></g></g><g transform="matrix(0.9996833205223083,0.02516499161720276,-0.02516499161720276,0.9996833205223083,278.6993713378906,168.94996643066406)" opacity="1" style="display: block;"><g opacity="1" transform="matrix(1,0,0,1,7.9720001220703125,6.122000217437744)"><path stroke-linecap="round" stroke-linejoin="round" fill-opacity="0" stroke="rgb(26,26,26)" stroke-opacity="1" stroke-width="1.045" d=" M-7.448999881744385,-5.599999904632568 C-7.448999881744385,-5.599999904632568 7.448999881744385,5.599999904632568 7.448999881744385,5.599999904632568"></path></g></g><g transform="matrix(0.9996833205223083,0.02516499161720276,-0.02516499161720276,0.9996833205223083,235.22702026367188,227.3874969482422)" opacity="1" style="display: block;"><g opacity="1" transform="matrix(1,0,0,1,16.959999084472656,6.460000038146973)"><path stroke-linecap="round" stroke-linejoin="round" fill-opacity="0" stroke="rgb(26,26,26)" stroke-opacity="1" stroke-width="1.804" d=" M-12.449999809265137,1.9500000476837158 C-12.449999809265137,1.9500000476837158 5.050000190734863,1.350000023841858 12.449999809265137,-1.9500000476837158"></path></g></g><g transform="matrix(0.9996833205223083,0.02516499161720276,-0.02516499161720276,0.9996833205223083,269.38330078125,120.67324829101562)" opacity="1" style="display: block;"><g opacity="1" transform="matrix(1,0,0,1,27,13.199999809265137)"><path fill="rgb(26,26,26)" fill-opacity="1" d=" M-26.75,-0.8500000238418579 C-26.75,-0.8500000238418579 26.75,12.949999809265137 26.75,12.949999809265137 C26.75,12.949999809265137 24.35099983215332,-2.049999952316284 2.450000047683716,-7.550000190734863 C-19.448999404907227,-12.949999809265137 -26.75,-0.8500000238418579 -26.75,-0.8500000238418579z"></path></g></g><g transform="matrix(0.9996833205223083,0.02516499161720276,-0.02516499161720276,0.9996833205223083,184.1103057861328,118.52667999267578)" opacity="1" style="display: block;"><g opacity="1" transform="matrix(1,0,0,1,27,13.199999809265137)"><path fill="rgb(26,26,26)" fill-opacity="1" d=" M26.75,-0.8500000238418579 C26.75,-0.8500000238418579 -26.75,12.949999809265137 -26.75,12.949999809265137 C-26.75,12.949999809265137 -24.350000381469727,-2.049999952316284 -2.450000047683716,-7.550000190734863 C19.450000762939453,-12.949999809265137 26.75,-0.8500000238418579 26.75,-0.8500000238418579z"></path></g></g><g transform="matrix(0.9996833205223083,0.02516499161720276,-0.02516499161720276,0.9996833205223083,154.53024291992188,-9.758338928222656)" opacity="1" style="display: block;"><g opacity="1" transform="matrix(1,0,0,1,103.94999694824219,88.6500015258789)"><path fill="rgb(26,26,26)" fill-opacity="1" d=" M100.69999694824219,-15.399999618530273 C94.39900207519531,-33 77.0989990234375,-64.30000305175781 32.5,-74.30000305175781 C-30.799999237060547,-88.4000015258789 -48.70000076293945,-50.20000076293945 -48.70000076293945,-50.20000076293945 C-74.30000305175781,-59.20000076293945 -93.5,-27 -100.19999694824219,-12.5 C-102.9010009765625,-6.699999809265137 -103.69999694824219,-0.30000001192092896 -102.9010009765625,6.099999904632568 C-102.9010009765625,6.099999904632568 -89.0999984741211,81.4000015258789 -89.0999984741211,81.4000015258789 C-89.0999984741211,81.4000015258789 -87.69999694824219,39.20000076293945 -87.69999694824219,39.20000076293945 C-65.4010009765625,21.700000762939453 -52.099998474121094,0.6000000238418579 -46,-11 C-27.799999237060547,3.799999952316284 6.598999977111816,25.399999618530273 57.0989990234375,30.600000381469727 C57.0989990234375,30.600000381469727 88.39900207519531,78.30000305175781 88.39900207519531,78.30000305175781 C88.39900207519531,78.30000305175781 102.5,5.599999904632568 102.5,5.599999904632568 C103.69999694824219,-1.5 103.0989990234375,-8.699999809265137 100.69999694824219,-15.399999618530273z"></path></g></g><g transform="matrix(0.9996833205223083,0.02516499161720276,-0.02516499161720276,0.9996833205223083,170.7650604248047,129.73338317871094)" opacity="1" style="display: block;"><g opacity="1" transform="matrix(1,0,0,1,37.11000061035156,37.11000061035156)"><path stroke-linecap="round" stroke-linejoin="round" fill-opacity="0" stroke="rgb(26,26,26)" stroke-opacity="1" stroke-width="1.804" d=" M0,-32.599998474121094 C18.003999710083008,-32.599998474121094 32.599998474121094,-18.003999710083008 32.599998474121094,0 C32.599998474121094,18.003999710083008 18.003999710083008,32.599998474121094 0,32.599998474121094 C-18.003999710083008,32.599998474121094 -32.599998474121094,18.003999710083008 -32.599998474121094,0 C-32.599998474121094,-18.003999710083008 -18.003999710083008,-32.599998474121094 0,-32.599998474121094z"></path></g><g opacity="1" transform="matrix(1,0,0,1,129.41000366210938,37.11000061035156)"><path stroke-linecap="round" stroke-linejoin="round" fill-opacity="0" stroke="rgb(26,26,26)" stroke-opacity="1" stroke-width="1.804" d=" M0.0010000000474974513,-32.599998474121094 C18.0049991607666,-32.599998474121094 32.599998474121094,-18.003999710083008 32.599998474121094,0 C32.599998474121094,18.003999710083008 18.0049991607666,32.599998474121094 0.0010000000474974513,32.599998474121094 C-18.003999710083008,32.599998474121094 -32.599998474121094,18.003999710083008 -32.599998474121094,0 C-32.599998474121094,-18.003999710083008 -18.003999710083008,-32.599998474121094 0.0010000000474974513,-32.599998474121094z"></path></g><g opacity="1" transform="matrix(1,0,0,1,83.26000213623047,30.959999084472656)"><path stroke-linecap="round" stroke-linejoin="round" fill-opacity="0" stroke="rgb(26,26,26)" stroke-opacity="1" stroke-width="1.804" d=" M-13.550000190734863,8.850000381469727 C-13.550000190734863,8.850000381469727 -2.049999952316284,-8.850000381469727 13.550000190734863,8.850000381469727"></path></g></g><g transform="matrix(0.9996833205223083,0.02516499161720276,-0.02516499161720276,0.9996833205223083,250.7740020751953,249.99591064453125)" opacity="1" style="display: block;"><g opacity="1" transform="matrix(1,0,0,1,0,0)"><path fill="rgb(255,0,0)" fill-opacity="1" d="M0 0"></path><path stroke-linecap="butt" stroke-linejoin="miter" fill-opacity="0" stroke-miterlimit="4" stroke="rgb(26,26,26)" stroke-opacity="1" stroke-width="2" d=" M-28.75,-31.25 C-15.25,-24.75 20,-24 29.25,-31.75"></path></g></g><g clip-path="url(#__lottie_element_4)" transform="matrix(0.8866699934005737,0,0,0.8866699934005737,114.99949645996094,437.99951171875)" opacity="0.2" style="display: block;"><g transform="matrix(1,0,0,1,43.05998992919922,4.095001220703125)" opacity="1" style="display: block;"><g opacity="1" transform="matrix(1,0,0,1,117.9520034790039,94.4209976196289)"><path stroke-linecap="butt" stroke-linejoin="miter" fill-opacity="0" stroke-miterlimit="10" stroke="rgb(255,255,255)" stroke-opacity="1" stroke-width="2.979" d=" M-36.933998107910156,86.9739990234375 C-41.99700164794922,51.529998779296875 -83.10099792480469,62.25199890136719 -101.2699966430664,39.91299819946289 C-110.50399780273438,28.297000885009766 -109.31199645996094,-3.2760000228881836 -105.73799896240234,-17.573999404907227 C-91.73899841308594,-72.9749984741211 -36.933998107910156,-86.9729995727539 15.190999984741211,-78.63300323486328 C68.50700378417969,-69.99500274658203 110.50399780273438,-34.54999923706055 72.08100128173828,16.97800064086914 C56.29499816894531,38.125999450683594 39.316001892089844,41.402000427246094 16.083999633789062,46.167999267578125 C-13.104999542236328,51.827999114990234 -16.976999282836914,62.25199890136719 -36.933998107910156,86.9739990234375z"></path></g></g><g clip-path="url(#__lottie_element_14)" transform="matrix(1,0,0,1,-59.10301208496094,11.732994079589844)" opacity="1" style="display: block;"><g opacity="1" transform="matrix(1,0,0,1,0,0)"><path stroke-linecap="butt" stroke-linejoin="miter" fill-opacity="0" stroke-miterlimit="10" stroke="rgb(255,255,255)" stroke-opacity="1" stroke-width="1.407" d=" M240.66600036621094,7.553999900817871 C240.66600036621094,7.553999900817871 141.4810028076172,7.553999900817871 141.4810028076172,7.553999900817871"></path></g><g opacity="1" transform="matrix(1,0,0,1,0,0)"><path stroke-linecap="butt" stroke-linejoin="miter" fill-opacity="0" stroke-miterlimit="10" stroke="rgb(255,255,255)" stroke-opacity="1" stroke-width="1.407" d=" M348.7869873046875,7.8520002365112305 C348.7869873046875,7.8520002365112305 249.6009979248047,7.8520002365112305 249.6009979248047,7.8520002365112305"></path></g><g opacity="1" transform="matrix(1,0,0,1,0,0)"><path stroke-linecap="butt" stroke-linejoin="miter" fill-opacity="0" stroke-miterlimit="10" stroke="rgb(255,255,255)" stroke-opacity="1" stroke-width="1.407" d=" M266.5790100097656,13.213000297546387 C266.5790100097656,13.213000297546387 366.06298828125,13.213000297546387 366.06298828125,13.213000297546387"></path></g><g opacity="1" transform="matrix(1,0,0,1,208.79600524902344,13.064000129699707)"><path stroke-linecap="butt" stroke-linejoin="miter" fill-opacity="0" stroke-miterlimit="10" stroke="rgb(255,255,255)" stroke-opacity="1" stroke-width="1.407" d=" M-49.742000579833984,-0.14900000393390656 C-49.742000579833984,-0.14900000393390656 49.742000579833984,0.14900000393390656 49.742000579833984,0.14900000393390656"></path></g><g opacity="1" transform="matrix(1,0,0,1,0,0)"><path stroke-linecap="butt" stroke-linejoin="miter" fill-opacity="0" stroke-miterlimit="10" stroke="rgb(255,255,255)" stroke-opacity="1" stroke-width="1.407" d=" M135.2259979248047,12.914999961853027 C135.2259979248047,12.914999961853027 150.11900329589844,12.914999961853027 150.11900329589844,12.914999961853027"></path></g><g opacity="1" transform="matrix(1,0,0,1,244.68699645996094,18.426000595092773)"><path stroke-linecap="butt" stroke-linejoin="miter" fill-opacity="0" stroke-miterlimit="10" stroke="rgb(255,255,255)" stroke-opacity="1" stroke-width="1.407" d=" M116.31199645996094,0.14900000393390656 C116.31199645996094,0.14900000393390656 -116.31199645996094,-0.14900000393390656 -116.31199645996094,-0.14900000393390656"></path></g><g opacity="1" transform="matrix(1,0,0,1,0,0)"><path stroke-linecap="butt" stroke-linejoin="miter" fill-opacity="0" stroke-miterlimit="10" stroke="rgb(255,255,255)" stroke-opacity="1" stroke-width="1.407" d=" M219.8159942626953,25.128000259399414 C219.8159942626953,25.128000259399414 120.33300018310547,25.128000259399414 120.33300018310547,25.128000259399414"></path></g><g opacity="1" transform="matrix(1,0,0,1,277.45098876953125,25.277000427246094)"><path stroke-linecap="butt" stroke-linejoin="miter" fill-opacity="0" stroke-miterlimit="10" stroke="rgb(255,255,255)" stroke-opacity="1" stroke-width="1.407" d=" M49.59299850463867,0.14900000393390656 C49.59299850463867,0.14900000393390656 -49.59299850463867,-0.14900000393390656 -49.59299850463867,-0.14900000393390656"></path></g><g opacity="1" transform="matrix(1,0,0,1,0,0)"><path stroke-linecap="butt" stroke-linejoin="miter" fill-opacity="0" stroke-miterlimit="10" stroke="rgb(255,255,255)" stroke-opacity="1" stroke-width="1.407" d=" M211.4770050048828,60.869998931884766 C211.4770050048828,60.869998931884766 286.8340148925781,60.869998931884766 286.8340148925781,60.869998931884766"></path></g><g opacity="1" transform="matrix(1,0,0,1,187.6479949951172,30.63800048828125)"><path stroke-linecap="butt" stroke-linejoin="miter" fill-opacity="0" stroke-miterlimit="10" stroke="rgb(255,255,255)" stroke-opacity="1" stroke-width="1.407" d=" M-49.742000579833984,-0.14900000393390656 C-49.742000579833984,-0.14900000393390656 49.742000579833984,0.14900000393390656 49.742000579833984,0.14900000393390656"></path></g><g opacity="1" transform="matrix(1,0,0,1,0,0)"><path stroke-linecap="butt" stroke-linejoin="miter" fill-opacity="0" stroke-miterlimit="10" stroke="rgb(255,255,255)" stroke-opacity="1" stroke-width="1.407" d=" M114.0780029296875,30.48900032043457 C114.0780029296875,30.48900032043457 128.9709930419922,30.48900032043457 128.9709930419922,30.48900032043457"></path></g><g opacity="1" transform="matrix(1,0,0,1,212.5189971923828,37.48899841308594)"><path stroke-linecap="butt" stroke-linejoin="miter" fill-opacity="0" stroke-miterlimit="10" stroke="rgb(255,255,255)" stroke-opacity="1" stroke-width="1.407" d=" M107.0780029296875,0.14900000393390656 C107.0780029296875,0.14900000393390656 -107.0780029296875,-0.14900000393390656 -107.0780029296875,-0.14900000393390656"></path></g><g opacity="1" transform="matrix(1,0,0,1,146.99099731445312,44.04100036621094)"><path stroke-linecap="butt" stroke-linejoin="miter" fill-opacity="0" stroke-miterlimit="10" stroke="rgb(255,255,255)" stroke-opacity="1" stroke-width="1.407" d=" M49.59299850463867,0.14900000393390656 C49.59299850463867,0.14900000393390656 -49.59299850463867,-0.14900000393390656 -49.59299850463867,-0.14900000393390656"></path></g><g opacity="1" transform="matrix(1,0,0,1,0,0)"><path stroke-linecap="butt" stroke-linejoin="miter" fill-opacity="0" stroke-miterlimit="10" stroke="rgb(255,255,255)" stroke-opacity="1" stroke-width="1.407" d=" M114.97200012207031,49.551998138427734 C114.97200012207031,49.551998138427734 214.4550018310547,49.551998138427734 214.4550018310547,49.551998138427734"></path></g><g opacity="1" transform="matrix(1,0,0,1,0,0)"><path stroke-linecap="butt" stroke-linejoin="miter" fill-opacity="0" stroke-miterlimit="10" stroke="rgb(255,255,255)" stroke-opacity="1" stroke-width="1.407" d=" M267.47198486328125,30.48900032043457 C267.47198486328125,30.48900032043457 332.4049987792969,30.48900032043457 332.4049987792969,30.48900032043457"></path></g><g opacity="1" transform="matrix(1,0,0,1,0,0)"><path stroke-linecap="butt" stroke-linejoin="miter" fill-opacity="0" stroke-miterlimit="10" stroke="rgb(255,255,255)" stroke-opacity="1" stroke-width="1.407" d=" M254.6649932861328,49.551998138427734 C254.6649932861328,49.551998138427734 285.3450012207031,49.551998138427734 285.3450012207031,49.551998138427734"></path></g><g opacity="1" transform="matrix(1,0,0,1,200.45599365234375,55.0620002746582)"><path stroke-linecap="butt" stroke-linejoin="miter" fill-opacity="0" stroke-miterlimit="10" stroke="rgb(255,255,255)" stroke-opacity="1" stroke-width="1.407" d=" M116.16300201416016,0.14900000393390656 C116.16300201416016,0.14900000393390656 -116.16300201416016,-0.14900000393390656 -116.16300201416016,-0.14900000393390656"></path></g><g opacity="1" transform="matrix(1,0,0,1,126.14099884033203,61.6150016784668)"><path stroke-linecap="butt" stroke-linejoin="miter" fill-opacity="0" stroke-miterlimit="10" stroke="rgb(255,255,255)" stroke-opacity="1" stroke-width="1.407" d=" M49.59199905395508,0.14900000393390656 C49.59199905395508,0.14900000393390656 -49.59199905395508,-0.14900000393390656 -49.59199905395508,-0.14900000393390656"></path></g><g opacity="1" transform="matrix(1,0,0,1,0,0)"><path stroke-linecap="butt" stroke-linejoin="miter" fill-opacity="0" stroke-miterlimit="10" stroke="rgb(255,255,255)" stroke-opacity="1" stroke-width="1.407" d=" M93.5270004272461,67.125 C93.5270004272461,67.125 193.00999450683594,67.125 193.00999450683594,67.125"></path></g><g opacity="1" transform="matrix(1,0,0,1,0,0)"><path stroke-linecap="butt" stroke-linejoin="miter" fill-opacity="0" stroke-miterlimit="10" stroke="rgb(255,255,255)" stroke-opacity="1" stroke-width="1.407" d=" M234.70799255371094,67.125 C234.70799255371094,67.125 295.7699890136719,67.125 295.7699890136719,67.125"></path></g><g opacity="1" transform="matrix(1,0,0,1,0,0)"><path stroke-linecap="butt" stroke-linejoin="miter" fill-opacity="0" stroke-miterlimit="10" stroke="rgb(255,255,255)" stroke-opacity="1" stroke-width="1.407" d=" M233.218994140625,49.551998138427734 C233.218994140625,49.551998138427734 248.11199951171875,49.551998138427734 248.11199951171875,49.551998138427734"></path></g><g opacity="1" transform="matrix(1,0,0,1,0,0)"><path stroke-linecap="butt" stroke-linejoin="miter" fill-opacity="0" stroke-miterlimit="10" stroke="rgb(255,255,255)" stroke-opacity="1" stroke-width="1.407" d=" M211.4759979248047,66.8270034790039 C211.4759979248047,66.8270034790039 226.36900329589844,66.8270034790039 226.36900329589844,66.8270034790039"></path></g><g opacity="1" transform="matrix(1,0,0,1,227.55999755859375,73.8270034790039)"><path stroke-linecap="butt" stroke-linejoin="miter" fill-opacity="0" stroke-miterlimit="10" stroke="rgb(255,255,255)" stroke-opacity="1" stroke-width="1.407" d=" M116.16300201416016,0.14900000393390656 C116.16300201416016,0.14900000393390656 -116.16300201416016,-0.14900000393390656 -116.16300201416016,-0.14900000393390656"></path></g><g opacity="1" transform="matrix(1,0,0,1,0,0)"><path stroke-linecap="butt" stroke-linejoin="miter" fill-opacity="0" stroke-miterlimit="10" stroke="rgb(255,255,255)" stroke-opacity="1" stroke-width="1.407" d=" M202.54100036621094,80.52899932861328 C202.54100036621094,80.52899932861328 103.05799865722656,80.52899932861328 103.05799865722656,80.52899932861328"></path></g><g opacity="1" transform="matrix(1,0,0,1,0,0)"><path stroke-linecap="butt" stroke-linejoin="miter" fill-opacity="0" stroke-miterlimit="10" stroke="rgb(255,255,255)" stroke-opacity="1" stroke-width="1.407" d=" M310.6619873046875,80.82599639892578 C310.6619873046875,80.82599639892578 211.4759979248047,80.82599639892578 211.4759979248047,80.82599639892578"></path></g><g opacity="1" transform="matrix(1,0,0,1,0,0)"><path stroke-linecap="butt" stroke-linejoin="miter" fill-opacity="0" stroke-miterlimit="10" stroke="rgb(255,255,255)" stroke-opacity="1" stroke-width="1.407" d=" M228.75100708007812,86.18800354003906 C228.75100708007812,86.18800354003906 327.93798828125,86.18800354003906 327.93798828125,86.18800354003906"></path></g><g opacity="1" transform="matrix(1,0,0,1,170.67100524902344,86.03900146484375)"><path stroke-linecap="butt" stroke-linejoin="miter" fill-opacity="0" stroke-miterlimit="10" stroke="rgb(255,255,255)" stroke-opacity="1" stroke-width="1.407" d=" M-49.742000579833984,-0.14900000393390656 C-49.742000579833984,-0.14900000393390656 49.742000579833984,0.14900000393390656 49.742000579833984,0.14900000393390656"></path></g><g opacity="1" transform="matrix(1,0,0,1,0,0)"><path stroke-linecap="butt" stroke-linejoin="miter" fill-opacity="0" stroke-miterlimit="10" stroke="rgb(255,255,255)" stroke-opacity="1" stroke-width="1.407" d=" M97.0999984741211,85.88999938964844 C97.0999984741211,85.88999938964844 111.99299621582031,85.88999938964844 111.99299621582031,85.88999938964844"></path></g><g opacity="1" transform="matrix(1,0,0,1,206.26400756835938,91.4000015258789)"><path stroke-linecap="butt" stroke-linejoin="miter" fill-opacity="0" stroke-miterlimit="10" stroke="rgb(255,255,255)" stroke-opacity="1" stroke-width="1.407" d=" M116.31199645996094,0.14900000393390656 C116.31199645996094,0.14900000393390656 -116.31199645996094,-0.14900000393390656 -116.31199645996094,-0.14900000393390656"></path></g><g opacity="1" transform="matrix(1,0,0,1,0,0)"><path stroke-linecap="butt" stroke-linejoin="miter" fill-opacity="0" stroke-miterlimit="10" stroke="rgb(255,255,255)" stroke-opacity="1" stroke-width="1.407" d=" M181.6909942626953,98.10199737548828 C181.6909942626953,98.10199737548828 82.50599670410156,98.10199737548828 82.50599670410156,98.10199737548828"></path></g><g opacity="1" transform="matrix(1,0,0,1,239.62399291992188,98.2509994506836)"><path stroke-linecap="butt" stroke-linejoin="miter" fill-opacity="0" stroke-miterlimit="10" stroke="rgb(255,255,255)" stroke-opacity="1" stroke-width="1.407" d=" M49.59299850463867,0.14900000393390656 C49.59299850463867,0.14900000393390656 -49.59299850463867,-0.14900000393390656 -49.59299850463867,-0.14900000393390656"></path></g><g opacity="1" transform="matrix(1,0,0,1,0,0)"><path stroke-linecap="butt" stroke-linejoin="miter" fill-opacity="0" stroke-miterlimit="10" stroke="rgb(255,255,255)" stroke-opacity="1" stroke-width="1.407" d=" M173.6490020751953,133.843994140625 C173.6490020751953,133.843994140625 248.70799255371094,133.843994140625 248.70799255371094,133.843994140625"></path></g><g opacity="1" transform="matrix(1,0,0,1,149.22500610351562,103.61199951171875)"><path stroke-linecap="butt" stroke-linejoin="miter" fill-opacity="0" stroke-miterlimit="10" stroke="rgb(255,255,255)" stroke-opacity="1" stroke-width="1.407" d=" M-49.742000579833984,-0.14900000393390656 C-49.742000579833984,-0.14900000393390656 49.742000579833984,0.14900000393390656 49.742000579833984,0.14900000393390656"></path></g><g opacity="1" transform="matrix(1,0,0,1,174.2449951171875,110.46299743652344)"><path stroke-linecap="butt" stroke-linejoin="miter" fill-opacity="0" stroke-miterlimit="10" stroke="rgb(255,255,255)" stroke-opacity="1" stroke-width="1.407" d=" M106.93000030517578,0.14900000393390656 C106.93000030517578,0.14900000393390656 -106.93000030517578,-0.14900000393390656 -106.93000030517578,-0.14900000393390656"></path></g><g opacity="1" transform="matrix(1,0,0,1,109.01399993896484,117.01599884033203)"><path stroke-linecap="butt" stroke-linejoin="miter" fill-opacity="0" stroke-miterlimit="10" stroke="rgb(255,255,255)" stroke-opacity="1" stroke-width="1.407" d=" M49.742000579833984,0.14900000393390656 C49.742000579833984,0.14900000393390656 -49.742000579833984,-0.14900000393390656 -49.742000579833984,-0.14900000393390656"></path></g><g opacity="1" transform="matrix(1,0,0,1,0,0)"><path stroke-linecap="butt" stroke-linejoin="miter" fill-opacity="0" stroke-miterlimit="10" stroke="rgb(255,255,255)" stroke-opacity="1" stroke-width="1.407" d=" M76.54900360107422,122.5260009765625 C76.54900360107422,122.5260009765625 176.3300018310547,122.5260009765625 176.3300018310547,122.5260009765625"></path></g><g opacity="1" transform="matrix(1,0,0,1,0,0)"><path stroke-linecap="butt" stroke-linejoin="miter" fill-opacity="0" stroke-miterlimit="10" stroke="rgb(255,255,255)" stroke-opacity="1" stroke-width="1.407" d=" M228.7519989013672,103.46299743652344 C228.7519989013672,103.46299743652344 293.98199462890625,103.46299743652344 293.98199462890625,103.46299743652344"></path></g><g opacity="1" transform="matrix(1,0,0,1,0,0)"><path stroke-linecap="butt" stroke-linejoin="miter" fill-opacity="0" stroke-miterlimit="10" stroke="rgb(255,255,255)" stroke-opacity="1" stroke-width="1.407" d=" M216.5399932861328,122.5260009765625 C216.5399932861328,122.5260009765625 247.218994140625,122.5260009765625 247.218994140625,122.5260009765625"></path></g><g opacity="1" transform="matrix(1,0,0,1,162.1820068359375,128.03599548339844)"><path stroke-linecap="butt" stroke-linejoin="miter" fill-opacity="0" stroke-miterlimit="10" stroke="rgb(255,255,255)" stroke-opacity="1" stroke-width="1.407" d=" M116.01499938964844,0.14900000393390656 C116.01499938964844,0.14900000393390656 -116.01499938964844,-0.14900000393390656 -116.01499938964844,-0.14900000393390656"></path></g><g opacity="1" transform="matrix(1,0,0,1,87.4209976196289,134.58900451660156)"><path stroke-linecap="butt" stroke-linejoin="miter" fill-opacity="0" stroke-miterlimit="10" stroke="rgb(255,255,255)" stroke-opacity="1" stroke-width="1.407" d=" M49.59299850463867,0.14900000393390656 C49.59299850463867,0.14900000393390656 -49.59299850463867,-0.14900000393390656 -49.59299850463867,-0.14900000393390656"></path></g><g opacity="1" transform="matrix(1,0,0,1,0,0)"><path stroke-linecap="butt" stroke-linejoin="miter" fill-opacity="0" stroke-miterlimit="10" stroke="rgb(255,255,255)" stroke-opacity="1" stroke-width="1.407" d=" M55.4010009765625,140.0989990234375 C55.4010009765625,140.0989990234375 154.88400268554688,140.0989990234375 154.88400268554688,140.0989990234375"></path></g><g opacity="1" transform="matrix(1,0,0,1,0,0)"><path stroke-linecap="butt" stroke-linejoin="miter" fill-opacity="0" stroke-miterlimit="10" stroke="rgb(255,255,255)" stroke-opacity="1" stroke-width="1.407" d=" M196.58299255371094,140.0989990234375 C196.58299255371094,140.0989990234375 257.64300537109375,140.0989990234375 257.64300537109375,140.0989990234375"></path></g><g opacity="1" transform="matrix(1,0,0,1,0,0)"><path stroke-linecap="butt" stroke-linejoin="miter" fill-opacity="0" stroke-miterlimit="10" stroke="rgb(255,255,255)" stroke-opacity="1" stroke-width="1.407" d=" M194.49899291992188,122.5260009765625 C194.49899291992188,122.5260009765625 209.39199829101562,122.5260009765625 209.39199829101562,122.5260009765625"></path></g><g opacity="1" transform="matrix(1,0,0,1,0,0)"><path stroke-linecap="butt" stroke-linejoin="miter" fill-opacity="0" stroke-miterlimit="10" stroke="rgb(255,255,255)" stroke-opacity="1" stroke-width="1.407" d=" M173.6490020751953,139.802001953125 C173.6490020751953,139.802001953125 188.54200744628906,139.802001953125 188.54200744628906,139.802001953125"></path></g><g opacity="1" transform="matrix(1,0,0,1,195.83900451660156,146.20599365234375)"><path stroke-linecap="butt" stroke-linejoin="miter" fill-opacity="0" stroke-miterlimit="10" stroke="rgb(255,255,255)" stroke-opacity="1" stroke-width="1.407" d=" M116.31199645996094,0.14900000393390656 C116.31199645996094,0.14900000393390656 -116.31199645996094,-0.14900000393390656 -116.31199645996094,-0.14900000393390656"></path></g><g opacity="1" transform="matrix(1,0,0,1,0,0)"><path stroke-linecap="butt" stroke-linejoin="miter" fill-opacity="0" stroke-miterlimit="10" stroke="rgb(255,255,255)" stroke-opacity="1" stroke-width="1.407" d=" M171.26600646972656,152.90699768066406 C171.26600646972656,152.90699768066406 71.78299713134766,152.90699768066406 71.78299713134766,152.90699768066406"></path></g><g opacity="1" transform="matrix(1,0,0,1,0,0)"><path stroke-linecap="butt" stroke-linejoin="miter" fill-opacity="0" stroke-miterlimit="10" stroke="rgb(255,255,255)" stroke-opacity="1" stroke-width="1.407" d=" M278.7919921875,153.2050018310547 C278.7919921875,153.2050018310547 179.6060028076172,153.2050018310547 179.6060028076172,153.2050018310547"></path></g><g opacity="1" transform="matrix(1,0,0,1,0,0)"><path stroke-linecap="butt" stroke-linejoin="miter" fill-opacity="0" stroke-miterlimit="10" stroke="rgb(255,255,255)" stroke-opacity="1" stroke-width="1.407" d=" M302.9179992675781,153.2050018310547 C302.9179992675781,153.2050018310547 288.0249938964844,153.2050018310547 288.0249938964844,153.2050018310547"></path></g><g opacity="1" transform="matrix(1,0,0,1,0,0)"><path stroke-linecap="butt" stroke-linejoin="miter" fill-opacity="0" stroke-miterlimit="10" stroke="rgb(255,255,255)" stroke-opacity="1" stroke-width="1.407" d=" M196.58399963378906,158.5659942626953 C196.58399963378906,158.5659942626953 296.0669860839844,158.5659942626953 296.0669860839844,158.5659942626953"></path></g><g opacity="1" transform="matrix(1,0,0,1,138.8000030517578,158.41700744628906)"><path stroke-linecap="butt" stroke-linejoin="miter" fill-opacity="0" stroke-miterlimit="10" stroke="rgb(255,255,255)" stroke-opacity="1" stroke-width="1.407" d=" M-49.742000579833984,-0.14900000393390656 C-49.742000579833984,-0.14900000393390656 49.742000579833984,0.14900000393390656 49.742000579833984,0.14900000393390656"></path></g><g opacity="1" transform="matrix(1,0,0,1,174.69200134277344,163.7790069580078)"><path stroke-linecap="butt" stroke-linejoin="miter" fill-opacity="0" stroke-miterlimit="10" stroke="rgb(255,255,255)" stroke-opacity="1" stroke-width="1.407" d=" M116.31300354003906,0.14900000393390656 C116.31300354003906,0.14900000393390656 -116.31300354003906,-0.14900000393390656 -116.31300354003906,-0.14900000393390656"></path></g><g opacity="1" transform="matrix(1,0,0,1,0,0)"><path stroke-linecap="butt" stroke-linejoin="miter" fill-opacity="0" stroke-miterlimit="10" stroke="rgb(255,255,255)" stroke-opacity="1" stroke-width="1.407" d=" M149.8209991455078,170.47999572753906 C149.8209991455078,170.47999572753906 50.6349983215332,170.47999572753906 50.6349983215332,170.47999572753906"></path></g><g opacity="1" transform="matrix(1,0,0,1,207.90199279785156,170.62899780273438)"><path stroke-linecap="butt" stroke-linejoin="miter" fill-opacity="0" stroke-miterlimit="10" stroke="rgb(255,255,255)" stroke-opacity="1" stroke-width="1.407" d=" M49.742000579833984,0.14900000393390656 C49.742000579833984,0.14900000393390656 -49.742000579833984,-0.14900000393390656 -49.742000579833984,-0.14900000393390656"></path></g></g><g transform="matrix(1,0,0,1,62.47100067138672,208.9980010986328)" opacity="1" style="display: block;"><g opacity="1" transform="matrix(1,0,0,1,13.206999778747559,14.39799976348877)"><path fill="rgb(255,255,255)" fill-opacity="1" d=" M-5.809000015258789,12.062999725341797 C-8.192000389099121,10.871999740600586 -9.680000305175781,9.083999633789062 -11.168999671936035,7 C-12.361000061035156,4.914999961853027 -12.956000328063965,2.5320000648498535 -12.956000328063965,-0.14900000393390656 C-12.956000328063965,-2.8299999237060547 -12.361000061035156,-5.211999893188477 -11.168999671936035,-7.296999931335449 C-9.977999687194824,-9.381999969482422 -8.192000389099121,-11.168999671936035 -5.809000015258789,-12.361000061035156 C-3.4260001182556152,-13.552000045776367 -1.0420000553131104,-14.14799976348877 1.6390000581741333,-14.14799976348877 C4.021999835968018,-14.14799976348877 6.105999946594238,-13.850000381469727 8.190999984741211,-12.956999778747559 C9.977999687194824,-12.062999725341797 11.765000343322754,-10.871999740600586 12.956000328063965,-9.381999969482422 C12.956000328063965,-9.381999969482422 8.78600025177002,-5.510000228881836 8.78600025177002,-5.510000228881836 C6.999000072479248,-7.59499979019165 4.616000175476074,-8.786999702453613 1.9359999895095825,-8.786999702453613 C0.14900000393390656,-8.786999702453613 -1.340999960899353,-8.48900032043457 -2.5320000648498535,-7.59499979019165 C-3.7239999771118164,-6.999000072479248 -4.914000034332275,-5.808000087738037 -5.510000228881836,-4.617000102996826 C-6.105999946594238,-3.424999952316284 -6.702000141143799,-1.6380000114440918 -6.702000141143799,-0.14900000393390656 C-6.702000141143799,1.6380000114440918 -6.4039998054504395,3.127000093460083 -5.510000228881836,4.318999767303467 C-4.914000034332275,5.510000228881836 -3.7239999771118164,6.702000141143799 -2.5320000648498535,7.296999931335449 C-1.340999960899353,7.89300012588501 0.44600000977516174,8.48900032043457 1.9359999895095825,8.48900032043457 C4.616000175476074,8.48900032043457 6.999000072479248,7.296999931335449 8.78600025177002,5.211999893188477 C8.78600025177002,5.211999893188477 12.956000328063965,9.083999633789062 12.956000328063965,9.083999633789062 C11.765000343322754,10.574000358581543 9.977999687194824,11.765999794006348 8.190999984741211,12.65999984741211 C6.4029998779296875,13.553000450134277 4.021999835968018,13.85099983215332 1.6390000581741333,13.85099983215332 C-1.0420000553131104,14.14799976348877 -3.7239999771118164,13.552000045776367 -5.809000015258789,12.062999725341797z"></path></g><g opacity="1" transform="matrix(1,0,0,1,43.290000915527344,14.24899959564209)"><path fill="rgb(255,255,255)" fill-opacity="1" d=" M-7.89300012588501,12.211999893188477 C-10.276000022888184,11.020000457763672 -12.064000129699707,9.232999801635742 -13.255000114440918,7.1479997634887695 C-14.446999549865723,5.063000202178955 -15.041999816894531,2.680999994277954 -15.041999816894531,0 C-15.041999816894531,-2.680999994277954 -14.446999549865723,-5.064000129699707 -13.255000114440918,-7.14900016784668 C-12.064000129699707,-9.234000205993652 -10.276000022888184,-11.020999908447266 -7.89300012588501,-12.211999893188477 C-5.510000228881836,-13.402999877929688 -3.128000020980835,-13.99899959564209 -0.15000000596046448,-13.99899959564209 C2.8289999961853027,-13.99899959564209 5.210999965667725,-13.402999877929688 7.593999862670898,-12.211999893188477 C9.97700023651123,-11.020999908447266 11.763999938964844,-9.234000205993652 12.956000328063965,-7.14900016784668 C14.147000312805176,-5.064000129699707 15.041999816894531,-2.680999994277954 15.041999816894531,0 C15.041999816894531,2.680999994277954 14.444999694824219,5.063000202178955 12.956000328063965,7.1479997634887695 C11.763999938964844,9.232999801635742 9.97700023651123,11.020000457763672 7.593999862670898,12.211999893188477 C5.210999965667725,13.402999877929688 2.8289999961853027,13.99899959564209 -0.15000000596046448,13.99899959564209 C-3.128000020980835,13.99899959564209 -5.510000228881836,13.701000213623047 -7.89300012588501,12.211999893188477z M4.020999908447266,7.74399995803833 C5.211999893188477,7.1479997634887695 6.4029998779296875,5.956999778747559 6.999000072479248,4.764999866485596 C7.593999862670898,3.5739998817443848 8.190999984741211,1.7869999408721924 8.190999984741211,0.2980000078678131 C8.190999984741211,-1.4889999628067017 7.892000198364258,-2.9790000915527344 6.999000072479248,-4.170000076293945 C6.4029998779296875,-5.361000061035156 5.211999893188477,-6.552999973297119 4.020999908447266,-7.14900016784668 C2.8299999237060547,-7.74399995803833 1.340000033378601,-8.34000015258789 -0.44699999690055847,-8.34000015258789 C-2.2339999675750732,-8.34000015258789 -3.424999952316284,-8.041999816894531 -4.914999961853027,-7.14900016784668 C-6.105999946594238,-6.552999973297119 -7.296999931335449,-5.361000061035156 -7.89300012588501,-4.170000076293945 C-8.48900032043457,-2.9790000915527344 -9.085000038146973,-1.1920000314712524 -9.085000038146973,0.2980000078678131 C-9.085000038146973,2.0850000381469727 -8.786999702453613,3.5739998817443848 -7.89300012588501,4.764999866485596 C-7.296999931335449,5.956999778747559 -6.105999946594238,7.1479997634887695 -4.914999961853027,7.74399995803833 C-3.7230000495910645,8.34000015258789 -2.2339999675750732,8.9350004196167 -0.44699999690055847,8.9350004196167 C1.340000033378601,8.9350004196167 2.8299999237060547,8.34000015258789 4.020999908447266,7.74399995803833z"></path></g><g opacity="1" transform="matrix(1,0,0,1,75.01100158691406,14.24899959564209)"><path fill="rgb(255,255,255)" fill-opacity="1" d=" M5.064000129699707,13.701000213623047 C5.064000129699707,13.701000213623047 0.0010000000474974513,5.955999851226807 0.0010000000474974513,5.955999851226807 C0.0010000000474974513,5.955999851226807 -0.2980000078678131,5.955999851226807 -0.2980000078678131,5.955999851226807 C-0.2980000078678131,5.955999851226807 -5.955999851226807,5.955999851226807 -5.955999851226807,5.955999851226807 C-5.955999851226807,5.955999851226807 -5.955999851226807,13.701000213623047 -5.955999851226807,13.701000213623047 C-5.955999851226807,13.701000213623047 -12.211999893188477,13.701000213623047 -12.211999893188477,13.701000213623047 C-12.211999893188477,13.701000213623047 -12.211999893188477,-13.701000213623047 -12.211999893188477,-13.701000213623047 C-12.211999893188477,-13.701000213623047 -0.2980000078678131,-13.701000213623047 -0.2980000078678131,-13.701000213623047 C2.0850000381469727,-13.701000213623047 4.171000003814697,-13.404000282287598 5.958000183105469,-12.510000228881836 C7.744999885559082,-11.616999626159668 9.234000205993652,-10.425000190734863 10.128000259399414,-8.935999870300293 C11.020999908447266,-7.447000026702881 11.616999626159668,-5.658999919891357 11.616999626159668,-3.5739998817443848 C11.616999626159668,-1.4889999628067017 11.020999908447266,0.2980000078678131 10.128000259399414,1.7879999876022339 C9.234000205993652,3.2769999504089355 7.744999885559082,4.4679999351501465 5.958000183105469,5.064000129699707 C5.958000183105469,5.064000129699707 12.211999893188477,13.701000213623047 12.211999893188477,13.701000213623047 C12.211999893188477,13.701000213623047 5.064000129699707,13.701000213623047 5.064000129699707,13.701000213623047z M3.575000047683716,-7.1479997634887695 C2.680999994277954,-8.041999816894531 1.1920000314712524,-8.33899974822998 -0.8930000066757202,-8.33899974822998 C-0.8930000066757202,-8.33899974822998 -5.955999851226807,-8.33899974822998 -5.955999851226807,-8.33899974822998 C-5.955999851226807,-8.33899974822998 -5.955999851226807,1.190999984741211 -5.955999851226807,1.190999984741211 C-5.955999851226807,1.190999984741211 -0.8930000066757202,1.190999984741211 -0.8930000066757202,1.190999984741211 C0.8939999938011169,1.190999984741211 2.384000062942505,0.8930000066757202 3.575000047683716,-0.0010000000474974513 C4.468999862670898,-0.8939999938011169 5.064000129699707,-2.0850000381469727 5.064000129699707,-3.5739998817443848 C5.064000129699707,-5.361000061035156 4.468999862670898,-6.552000045776367 3.575000047683716,-7.1479997634887695z"></path></g><g opacity="1" transform="matrix(1,0,0,1,100.02999877929688,14.39799976348877)"><path fill="rgb(255,255,255)" fill-opacity="1" d=" M-3.2760000228881836,-8.48900032043457 C-3.2760000228881836,-8.48900032043457 -11.913999557495117,-8.48900032043457 -11.913999557495117,-8.48900032043457 C-11.913999557495117,-8.48900032043457 -11.913999557495117,-13.552000045776367 -11.913999557495117,-13.552000045776367 C-11.913999557495117,-13.552000045776367 11.913999557495117,-13.552000045776367 11.913999557495117,-13.552000045776367 C11.913999557495117,-13.552000045776367 11.913999557495117,-8.48900032043457 11.913999557495117,-8.48900032043457 C11.913999557495117,-8.48900032043457 3.2769999504089355,-8.48900032043457 3.2769999504089355,-8.48900032043457 C3.2769999504089355,-8.48900032043457 3.2769999504089355,13.552000045776367 3.2769999504089355,13.552000045776367 C3.2769999504089355,13.552000045776367 -2.9779999256134033,13.552000045776367 -2.9779999256134033,13.552000045776367 C-2.9779999256134033,13.552000045776367 -2.9779999256134033,-8.48900032043457 -2.9779999256134033,-8.48900032043457 C-2.9779999256134033,-8.48900032043457 -3.2760000228881836,-8.48900032043457 -3.2760000228881836,-8.48900032043457z"></path></g><g opacity="1" transform="matrix(1,0,0,1,125.79499816894531,14.24899959564209)"><path fill="rgb(255,255,255)" fill-opacity="1" d=" M10.574000358581543,8.637999534606934 C10.574000358581543,8.637999534606934 10.574000358581543,13.701000213623047 10.574000358581543,13.701000213623047 C10.574000358581543,13.701000213623047 -10.574000358581543,13.701000213623047 -10.574000358581543,13.701000213623047 C-10.574000358581543,13.701000213623047 -10.574000358581543,-13.701000213623047 -10.574000358581543,-13.701000213623047 C-10.574000358581543,-13.701000213623047 9.97700023651123,-13.701000213623047 9.97700023651123,-13.701000213623047 C9.97700023651123,-13.701000213623047 9.97700023651123,-8.63700008392334 9.97700023651123,-8.63700008392334 C9.97700023651123,-8.63700008392334 -4.320000171661377,-8.63700008392334 -4.320000171661377,-8.63700008392334 C-4.320000171661377,-8.63700008392334 -4.320000171661377,-2.680000066757202 -4.320000171661377,-2.680000066757202 C-4.320000171661377,-2.680000066757202 8.48799991607666,-2.680000066757202 8.48799991607666,-2.680000066757202 C8.48799991607666,-2.680000066757202 8.48799991607666,2.382999897003174 8.48799991607666,2.382999897003174 C8.48799991607666,2.382999897003174 -4.320000171661377,2.382999897003174 -4.320000171661377,2.382999897003174 C-4.320000171661377,2.382999897003174 -4.320000171661377,8.637999534606934 -4.320000171661377,8.637999534606934 C-4.320000171661377,8.637999534606934 10.574000358581543,8.637999534606934 10.574000358581543,8.637999534606934z"></path></g><g opacity="1" transform="matrix(1,0,0,1,151.85699462890625,14.24899959564209)"><path fill="rgb(255,255,255)" fill-opacity="1" d=" M6.552999973297119,13.701000213623047 C6.552999973297119,13.701000213623047 0,4.170000076293945 0,4.170000076293945 C0,4.170000076293945 -6.552999973297119,13.701000213623047 -6.552999973297119,13.701000213623047 C-6.552999973297119,13.701000213623047 -13.70199966430664,13.701000213623047 -13.70199966430664,13.701000213623047 C-13.70199966430664,13.701000213623047 -3.575000047683716,-0.2980000078678131 -3.575000047683716,-0.2980000078678131 C-3.575000047683716,-0.2980000078678131 -13.105999946594238,-13.701000213623047 -13.105999946594238,-13.701000213623047 C-13.105999946594238,-13.701000213623047 -5.958000183105469,-13.701000213623047 -5.958000183105469,-13.701000213623047 C-5.958000183105469,-13.701000213623047 0.2980000078678131,-4.765999794006348 0.2980000078678131,-4.765999794006348 C0.2980000078678131,-4.765999794006348 6.552999973297119,-13.701000213623047 6.552999973297119,-13.701000213623047 C6.552999973297119,-13.701000213623047 13.404000282287598,-13.701000213623047 13.404000282287598,-13.701000213623047 C13.404000282287598,-13.701000213623047 3.5739998817443848,-0.2980000078678131 3.5739998817443848,-0.2980000078678131 C3.5739998817443848,-0.2980000078678131 13.701000213623047,13.701000213623047 13.701000213623047,13.701000213623047 C13.701000213623047,13.701000213623047 6.552999973297119,13.701000213623047 6.552999973297119,13.701000213623047z"></path></g></g><g transform="matrix(1,0,0,1,61.87300109863281,246.2310028076172)" opacity="1" style="display: block;"><g opacity="1" transform="matrix(1,0,0,1,7.696000099182129,9.1850004196167)"><path fill="rgb(255,255,255)" fill-opacity="1" d=" M-2.9790000915527344,7.447000026702881 C-4.170000076293945,6.552999973297119 -5.361999988555908,5.658999919891357 -6.255000114440918,4.4670000076293945 C-7.14900016784668,3.2760000228881836 -7.447000026702881,1.7879999876022339 -7.447000026702881,0.0010000000474974513 C-7.447000026702881,-1.4889999628067017 -7.14900016784668,-2.9779999256134033 -6.255000114440918,-4.4670000076293945 C-5.361999988555908,-5.955999851226807 -4.4679999351501465,-6.85099983215332 -2.9790000915527344,-7.447000026702881 C-1.7879999876022339,-8.34000015258789 0.0010000000474974513,-8.63700008392334 1.4900000095367432,-8.63700008392334 C2.680999994277954,-8.63700008392334 3.871999979019165,-8.34000015258789 4.765999794006348,-8.041999816894531 C5.658999919891357,-7.74399995803833 6.553999900817871,-7.14900016784668 7.447000026702881,-6.255000114440918 C7.447000026702881,-6.255000114440918 6.552999973297119,-5.361000061035156 6.552999973297119,-5.361000061035156 C5.063000202178955,-6.849999904632568 3.5739998817443848,-7.447000026702881 1.190999984741211,-7.447000026702881 C-0.2980000078678131,-7.447000026702881 -1.4889999628067017,-7.14900016784668 -2.680000066757202,-6.552999973297119 C-3.871999979019165,-5.956999778747559 -4.764999866485596,-5.064000129699707 -5.361000061035156,-3.871999979019165 C-5.956999778747559,-2.680999994277954 -6.255000114440918,-1.4889999628067017 -6.255000114440918,0.0010000000474974513 C-6.255000114440918,1.4900000095367432 -5.956999778747559,2.680000066757202 -5.361000061035156,3.871999979019165 C-4.764999866485596,5.063000202178955 -3.871999979019165,5.958000183105469 -2.680000066757202,6.552999973297119 C-1.4889999628067017,7.14900016784668 -0.2980000078678131,7.447000026702881 1.190999984741211,7.447000026702881 C3.2760000228881836,7.447000026702881 5.063000202178955,6.849999904632568 6.552999973297119,5.361000061035156 C6.552999973297119,5.361000061035156 7.447000026702881,6.25600004196167 7.447000026702881,6.25600004196167 C6.8520002365112305,7.14900016784668 5.956999778747559,7.74399995803833 4.765999794006348,8.041999816894531 C3.5739998817443848,8.34000015258789 2.680999994277954,8.63700008392334 1.4900000095367432,8.63700008392334 C0.0010000000474974513,8.63700008392334 -1.4900000095367432,8.043000221252441 -2.9790000915527344,7.447000026702881z"></path></g><g opacity="1" transform="matrix(1,0,0,1,26.461000442504883,9.1850004196167)"><path fill="rgb(255,255,255)" fill-opacity="1" d=" M-4.4670000076293945,7.446000099182129 C-5.955999851226807,6.552999973297119 -6.849999904632568,5.658999919891357 -7.743000030517578,4.4679999351501465 C-8.63700008392334,3.2760000228881836 -8.935999870300293,1.7869999408721924 -8.935999870300293,0 C-8.935999870300293,-1.7869999408721924 -8.63700008392334,-2.9779999256134033 -7.743000030517578,-4.4679999351501465 C-6.849999904632568,-5.956999778747559 -5.955999851226807,-6.849999904632568 -4.4670000076293945,-7.446000099182129 C-2.9779999256134033,-8.34000015258789 -1.4880000352859497,-8.637999534606934 0.0010000000474974513,-8.637999534606934 C1.7879999876022339,-8.637999534606934 3.2769999504089355,-8.34000015258789 4.468999862670898,-7.446000099182129 C5.958000183105469,-6.552999973297119 6.8520002365112305,-5.658999919891357 7.744999885559082,-4.4679999351501465 C8.638999938964844,-3.2760000228881836 8.935999870300293,-1.7869999408721924 8.935999870300293,0 C8.935999870300293,1.7869999408721924 8.638999938964844,2.9790000915527344 7.744999885559082,4.4679999351501465 C6.8520002365112305,5.956999778747559 5.958000183105469,6.85099983215332 4.468999862670898,7.446000099182129 C2.9790000915527344,8.34000015258789 1.4900000095367432,8.637999534606934 0.0010000000474974513,8.637999534606934 C-1.7860000133514404,8.637999534606934 -3.2750000953674316,8.041999816894531 -4.4670000076293945,7.446000099182129z M3.872999906539917,6.255000114440918 C5.064000129699707,5.658999919891357 5.958000183105469,4.765999794006348 6.553999900817871,3.5739998817443848 C7.14900016784668,2.382999897003174 7.447000026702881,1.1920000314712524 7.447000026702881,-0.2980000078678131 C7.447000026702881,-1.7869999408721924 7.14900016784668,-2.9779999256134033 6.553999900817871,-4.170000076293945 C5.958000183105469,-5.361000061035156 5.064000129699707,-6.255000114440918 3.872999906539917,-6.849999904632568 C2.681999921798706,-7.446000099182129 1.4900000095367432,-7.74399995803833 0.0010000000474974513,-7.74399995803833 C-1.4880000352859497,-7.74399995803833 -2.680999994277954,-7.446000099182129 -3.871999979019165,-6.849999904632568 C-5.064000129699707,-6.255000114440918 -5.956999778747559,-5.361000061035156 -6.552999973297119,-4.170000076293945 C-7.14900016784668,-2.9779999256134033 -7.445000171661377,-1.7869999408721924 -7.445000171661377,-0.2980000078678131 C-7.445000171661377,1.1920000314712524 -7.14900016784668,2.382999897003174 -6.552999973297119,3.5739998817443848 C-5.956999778747559,4.765999794006348 -5.064000129699707,5.658999919891357 -3.871999979019165,6.255000114440918 C-2.680999994277954,6.85099983215332 -1.4880000352859497,7.14900016784668 0.0010000000474974513,7.14900016784668 C1.4900000095367432,7.446000099182129 2.681999921798706,7.14900016784668 3.872999906539917,6.255000114440918z"></path></g><g opacity="1" transform="matrix(1,0,0,1,46.26900100708008,9.03600025177002)"><path fill="rgb(255,255,255)" fill-opacity="1" d=" M4.617000102996826,-6.999000072479248 C5.808000087738037,-6.105999946594238 6.4039998054504395,-4.616000175476074 6.4039998054504395,-2.8289999961853027 C6.4039998054504395,-1.0420000553131104 5.808000087738037,0.44600000977516174 4.617000102996826,1.340000033378601 C3.424999952316284,2.2330000400543213 1.6380000114440918,2.8289999961853027 -0.44699999690055847,2.8289999961853027 C-0.44699999690055847,2.8289999961853027 -5.2129998207092285,2.8289999961853027 -5.2129998207092285,2.8289999961853027 C-5.2129998207092285,2.8289999961853027 -5.2129998207092285,8.48799991607666 -5.2129998207092285,8.48799991607666 C-5.2129998207092285,8.48799991607666 -6.4039998054504395,8.48799991607666 -6.4039998054504395,8.48799991607666 C-6.4039998054504395,8.48799991607666 -6.4039998054504395,-8.48799991607666 -6.4039998054504395,-8.48799991607666 C-6.4039998054504395,-8.48799991607666 -0.44699999690055847,-8.48799991607666 -0.44699999690055847,-8.48799991607666 C1.6380000114440918,-8.48799991607666 3.127000093460083,-7.89300012588501 4.617000102996826,-6.999000072479248z M3.7230000495910645,0.7440000176429749 C4.617000102996826,-0.15000000596046448 5.211999893188477,-1.0420000553131104 5.211999893188477,-2.5309998989105225 C5.211999893188477,-4.020999908447266 4.617000102996826,-5.2129998207092285 3.7230000495910645,-5.809000015258789 C2.8289999961853027,-6.702000141143799 1.340000033378601,-6.999000072479248 -0.44699999690055847,-6.999000072479248 C-0.44699999690055847,-6.999000072479248 -5.2129998207092285,-6.999000072479248 -5.2129998207092285,-6.999000072479248 C-5.2129998207092285,-6.999000072479248 -5.2129998207092285,2.2339999675750732 -5.2129998207092285,2.2339999675750732 C-5.2129998207092285,2.2339999675750732 -0.44699999690055847,2.2339999675750732 -0.44699999690055847,2.2339999675750732 C1.340000033378601,1.9359999895095825 2.5320000648498535,1.340000033378601 3.7230000495910645,0.7440000176429749z"></path></g><g opacity="1" transform="matrix(1,0,0,1,61.45899963378906,8.88700008392334)"><path fill="rgb(255,255,255)" fill-opacity="1" d=" M0.44699999690055847,2.680000066757202 C0.44699999690055847,2.680000066757202 0.44699999690055847,8.63700008392334 0.44699999690055847,8.63700008392334 C0.44699999690055847,8.63700008392334 -0.7440000176429749,8.63700008392334 -0.7440000176429749,8.63700008392334 C-0.7440000176429749,8.63700008392334 -0.7440000176429749,2.680000066757202 -0.7440000176429749,2.680000066757202 C-0.7440000176429749,2.680000066757202 -7.59499979019165,-8.63700008392334 -7.59499979019165,-8.63700008392334 C-7.59499979019165,-8.63700008392334 -6.105999946594238,-8.63700008392334 -6.105999946594238,-8.63700008392334 C-6.105999946594238,-8.63700008392334 0.14800000190734863,1.4900000095367432 0.14800000190734863,1.4900000095367432 C0.14800000190734863,1.4900000095367432 6.4039998054504395,-8.63700008392334 6.4039998054504395,-8.63700008392334 C6.4039998054504395,-8.63700008392334 7.59499979019165,-8.63700008392334 7.59499979019165,-8.63700008392334 C7.59499979019165,-8.63700008392334 0.44699999690055847,2.680000066757202 0.44699999690055847,2.680000066757202z"></path></g><g opacity="1" transform="matrix(1,0,0,1,82.01100158691406,9.036999702453613)"><path fill="rgb(255,255,255)" fill-opacity="1" d=" M12.361000061035156,-8.48900032043457 C12.361000061035156,-8.48900032043457 6.702000141143799,8.48900032043457 6.702000141143799,8.48900032043457 C6.702000141143799,8.48900032043457 5.510000228881836,8.48900032043457 5.510000228881836,8.48900032043457 C5.510000228881836,8.48900032043457 0.14900000393390656,-6.702000141143799 0.14900000393390656,-6.702000141143799 C0.14900000393390656,-6.702000141143799 -5.211999893188477,8.48900032043457 -5.211999893188477,8.48900032043457 C-5.211999893188477,8.48900032043457 -6.4039998054504395,8.48900032043457 -6.4039998054504395,8.48900032043457 C-6.4039998054504395,8.48900032043457 -12.361000061035156,-8.48900032043457 -12.361000061035156,-8.48900032043457 C-12.361000061035156,-8.48900032043457 -11.168999671936035,-8.48900032043457 -11.168999671936035,-8.48900032043457 C-11.168999671936035,-8.48900032043457 -6.105999946594238,6.999000072479248 -6.105999946594238,6.999000072479248 C-6.105999946594238,6.999000072479248 -0.7440000176429749,-8.48900032043457 -0.7440000176429749,-8.48900032043457 C-0.7440000176429749,-8.48900032043457 0.44699999690055847,-8.48900032043457 0.44699999690055847,-8.48900032043457 C0.44699999690055847,-8.48900032043457 5.808000087738037,6.999000072479248 5.808000087738037,6.999000072479248 C5.808000087738037,6.999000072479248 11.170000076293945,-8.48900032043457 11.170000076293945,-8.48900032043457 C11.170000076293945,-8.48900032043457 12.361000061035156,-8.48900032043457 12.361000061035156,-8.48900032043457z"></path></g><g opacity="1" transform="matrix(1,0,0,1,104.64800262451172,9.03600025177002)"><path fill="rgb(255,255,255)" fill-opacity="1" d=" M5.211999893188477,8.48900032043457 C5.211999893188477,8.48900032043457 1.0420000553131104,2.8299999237060547 1.0420000553131104,2.8299999237060547 C1.0420000553131104,2.8299999237060547 -0.7450000047683716,2.8299999237060547 -0.7450000047683716,2.8299999237060547 C-0.7450000047683716,2.8299999237060547 -5.511000156402588,2.8299999237060547 -5.511000156402588,2.8299999237060547 C-5.511000156402588,2.8299999237060547 -5.511000156402588,8.48900032043457 -5.511000156402588,8.48900032043457 C-5.511000156402588,8.48900032043457 -6.702000141143799,8.48900032043457 -6.702000141143799,8.48900032043457 C-6.702000141143799,8.48900032043457 -6.702000141143799,-8.48900032043457 -6.702000141143799,-8.48900032043457 C-6.702000141143799,-8.48900032043457 -0.44699999690055847,-8.48900032043457 -0.44699999690055847,-8.48900032043457 C1.6380000114440918,-8.48900032043457 3.4260001182556152,-7.89300012588501 4.617000102996826,-7 C5.809000015258789,-6.105999946594238 6.4039998054504395,-4.617000102996826 6.4039998054504395,-2.8299999237060547 C6.4039998054504395,-1.340000033378601 6.105999946594238,-0.44699999690055847 5.510000228881836,0.44699999690055847 C4.914000034332275,1.340000033378601 3.7230000495910645,1.9359999895095825 2.5309998989105225,2.2339999675750732 C2.5309998989105225,2.2339999675750732 6.702000141143799,8.190999984741211 6.702000141143799,8.190999984741211 C6.702000141143799,8.190999984741211 5.211999893188477,8.190999984741211 5.211999893188477,8.190999984741211 C5.211999893188477,8.190999984741211 5.211999893188477,8.48900032043457 5.211999893188477,8.48900032043457z M-0.7450000047683716,1.9359999895095825 C1.0420000553131104,1.9359999895095825 2.5320000648498535,1.6380000114440918 3.4260001182556152,0.7450000047683716 C4.318999767303467,-0.14900000393390656 4.914999961853027,-1.340000033378601 4.914999961853027,-2.5320000648498535 C4.914999961853027,-3.7230000495910645 4.318999767303467,-5.211999893188477 3.4260001182556152,-5.808000087738037 C2.5320000648498535,-6.702000141143799 1.0420000553131104,-7 -0.7450000047683716,-7 C-0.7450000047683716,-7 -5.511000156402588,-7 -5.511000156402588,-7 C-5.511000156402588,-7 -5.511000156402588,2.2339999675750732 -5.511000156402588,2.2339999675750732 C-5.511000156402588,2.2339999675750732 -0.7450000047683716,2.2339999675750732 -0.7450000047683716,2.2339999675750732 C-0.7450000047683716,2.2339999675750732 -0.7450000047683716,1.9359999895095825 -0.7450000047683716,1.9359999895095825z"></path></g><g opacity="1" transform="matrix(1,0,0,1,116.11599731445312,9.036999702453613)"><path fill="rgb(255,255,255)" fill-opacity="1" d="M0 0"></path></g><g opacity="1" transform="matrix(1,0,0,1,126.39099884033203,9.03600025177002)"><path fill="rgb(255,255,255)" fill-opacity="1" d=" M-0.44699999690055847,-7.297999858856201 C-0.44699999690055847,-7.297999858856201 -6.702000141143799,-7.297999858856201 -6.702000141143799,-7.297999858856201 C-6.702000141143799,-7.297999858856201 -6.702000141143799,-8.48799991607666 -6.702000141143799,-8.48799991607666 C-6.702000141143799,-8.48799991607666 6.702000141143799,-8.48799991607666 6.702000141143799,-8.48799991607666 C6.702000141143799,-8.48799991607666 6.702000141143799,-7.297999858856201 6.702000141143799,-7.297999858856201 C6.702000141143799,-7.297999858856201 0.4480000138282776,-7.297999858856201 0.4480000138282776,-7.297999858856201 C0.4480000138282776,-7.297999858856201 0.4480000138282776,8.48799991607666 0.4480000138282776,8.48799991607666 C0.4480000138282776,8.48799991607666 -0.7450000047683716,8.48799991607666 -0.7450000047683716,8.48799991607666 C-0.7450000047683716,8.48799991607666 -0.7450000047683716,-7.297999858856201 -0.7450000047683716,-7.297999858856201 C-0.7450000047683716,-7.297999858856201 -0.44699999690055847,-7.297999858856201 -0.44699999690055847,-7.297999858856201z"></path></g><g opacity="1" transform="matrix(1,0,0,1,142.17799377441406,9.03600025177002)"><path fill="rgb(255,255,255)" fill-opacity="1" d=" M5.808000087738037,7.297999858856201 C5.808000087738037,7.297999858856201 5.808000087738037,8.48799991607666 5.808000087738037,8.48799991607666 C5.808000087738037,8.48799991607666 -5.808000087738037,8.48799991607666 -5.808000087738037,8.48799991607666 C-5.808000087738037,8.48799991607666 -5.808000087738037,-8.48799991607666 -5.808000087738037,-8.48799991607666 C-5.808000087738037,-8.48799991607666 5.510000228881836,-8.48799991607666 5.510000228881836,-8.48799991607666 C5.510000228881836,-8.48799991607666 5.510000228881836,-7.297999858856201 5.510000228881836,-7.297999858856201 C5.510000228881836,-7.297999858856201 -4.617000102996826,-7.297999858856201 -4.617000102996826,-7.297999858856201 C-4.617000102996826,-7.297999858856201 -4.617000102996826,-0.44699999690055847 -4.617000102996826,-0.44699999690055847 C-4.617000102996826,-0.44699999690055847 4.318999767303467,-0.44699999690055847 4.318999767303467,-0.44699999690055847 C4.318999767303467,-0.44699999690055847 4.318999767303467,0.7450000047683716 4.318999767303467,0.7450000047683716 C4.318999767303467,0.7450000047683716 -4.617000102996826,0.7450000047683716 -4.617000102996826,0.7450000047683716 C-4.617000102996826,0.7450000047683716 -4.617000102996826,7.5960001945495605 -4.617000102996826,7.5960001945495605 C-4.617000102996826,7.5960001945495605 5.808000087738037,7.5960001945495605 5.808000087738037,7.5960001945495605 C5.808000087738037,7.5960001945495605 5.808000087738037,7.297999858856201 5.808000087738037,7.297999858856201z"></path></g><g opacity="1" transform="matrix(1,0,0,1,159.156005859375,9.03600025177002)"><path fill="rgb(255,255,255)" fill-opacity="1" d=" M5.211999893188477,8.48900032043457 C5.211999893188477,8.48900032043457 1.0420000553131104,2.8299999237060547 1.0420000553131104,2.8299999237060547 C1.0420000553131104,2.8299999237060547 -0.7450000047683716,2.8299999237060547 -0.7450000047683716,2.8299999237060547 C-0.7450000047683716,2.8299999237060547 -5.510000228881836,2.8299999237060547 -5.510000228881836,2.8299999237060547 C-5.510000228881836,2.8299999237060547 -5.510000228881836,8.48900032043457 -5.510000228881836,8.48900032043457 C-5.510000228881836,8.48900032043457 -6.702000141143799,8.48900032043457 -6.702000141143799,8.48900032043457 C-6.702000141143799,8.48900032043457 -6.702000141143799,-8.48900032043457 -6.702000141143799,-8.48900032043457 C-6.702000141143799,-8.48900032043457 -0.44699999690055847,-8.48900032043457 -0.44699999690055847,-8.48900032043457 C1.6380000114440918,-8.48900032043457 3.424999952316284,-7.89300012588501 4.616000175476074,-7 C5.808000087738037,-6.105999946594238 6.4039998054504395,-4.617000102996826 6.4039998054504395,-2.8299999237060547 C6.4039998054504395,-1.340000033378601 6.105999946594238,-0.44699999690055847 5.510000228881836,0.44699999690055847 C4.914000034332275,1.340000033378601 3.7230000495910645,1.9359999895095825 2.5320000648498535,2.2339999675750732 C2.5320000648498535,2.2339999675750732 6.701000213623047,8.190999984741211 6.701000213623047,8.190999984741211 C6.701000213623047,8.190999984741211 5.211999893188477,8.190999984741211 5.211999893188477,8.190999984741211 C5.211999893188477,8.190999984741211 5.211999893188477,8.48900032043457 5.211999893188477,8.48900032043457z M-0.44699999690055847,1.9359999895095825 C1.340000033378601,1.9359999895095825 2.8289999961853027,1.6380000114440918 3.7230000495910645,0.7450000047683716 C4.616000175476074,-0.14900000393390656 5.211999893188477,-1.340000033378601 5.211999893188477,-2.5320000648498535 C5.211999893188477,-3.7230000495910645 4.616000175476074,-5.211999893188477 3.7230000495910645,-5.808000087738037 C2.8289999961853027,-6.702000141143799 1.340000033378601,-7 -0.44699999690055847,-7 C-0.44699999690055847,-7 -5.2129998207092285,-7 -5.2129998207092285,-7 C-5.2129998207092285,-7 -5.2129998207092285,2.2339999675750732 -5.2129998207092285,2.2339999675750732 C-5.2129998207092285,2.2339999675750732 -0.44699999690055847,2.2339999675750732 -0.44699999690055847,2.2339999675750732 C-0.44699999690055847,2.2339999675750732 -0.44699999690055847,1.9359999895095825 -0.44699999690055847,1.9359999895095825z"></path></g></g></g></g></svg>