<svg xmlns="http://www.w3.org/2000/svg" viewBox="0 0 500 500" width="500" height="500" preserveAspectRatio="xMidYMid meet" style="width: 100%; height: 100%; transform: translate3d(0px, 0px, 0px);"><defs><clipPath id="__lottie_element_325"><rect width="500" height="500" x="0" y="0"></rect></clipPath></defs><g clip-path="url(#__lottie_element_325)"><g transform="matrix(1,0,0,1,146.85800170898438,173.58099365234375)" opacity="1" style="display: block;"><g opacity="1" transform="matrix(1,0,0,1,92.59100341796875,119.24099731445312)"><path fill="rgb(70,27,37)" fill-opacity="1" d=" M-85.28900146484375,50.792999267578125 C-73.7760009765625,56.185001373291016 -29.917999267578125,107.19400024414062 -5.853000164031982,109.24199676513672 C18.211000442504883,111.28900146484375 44.77799987792969,118.99099731445312 55.49100112915039,102.0469970703125 C66.2030029296875,85.10399627685547 92.34100341796875,12.708000183105469 89.7699966430664,-8.086999893188477 C87.1989974975586,-28.881000518798828 84.19999694824219,-57.3489990234375 75.20099639892578,-72.38099670410156 C66.2030029296875,-87.41400146484375 49.88100051879883,-98.45700073242188 30.636999130249023,-99.91400146484375 C11.394000053405762,-101.37000274658203 -46.0629997253418,-118.99099731445312 -67.91600036621094,-116.68000030517578 C-89.76899719238281,-114.37000274658203 -96.96399688720703,-78.78099822998047 -101.1520004272461,-36.422000885009766 C-105.34100341796875,5.938000202178955 -85.28900146484375,50.792999267578125 -85.28900146484375,50.792999267578125z"></path></g></g><g transform="matrix(1,0,0,1,207.25601196289062,469.7820129394531)" opacity="1" style="display: block;"><g opacity="1" transform="matrix(1,0,0,1,39.7599983215332,13.13599967956543)"><path fill="rgb(54,126,255)" fill-opacity="1" d=" M39.007999420166016,-12.850000381469727 C30.441999435424805,-2.680999994277954 17.968000411987305,4.880000114440918 -0.1889999955892563,4.920000076293945 C-0.23600000143051147,4.98199987411499 -0.28299999237060547,5.045000076293945 -0.328000009059906,5.105999946594238 C-0.375,5.045000076293945 -0.421999990940094,4.98199987411499 -0.4690000116825104,4.920000076293945 C-18.167999267578125,4.879000186920166 -30.46299934387207,-2.6470000743865967 -39.00699996948242,-12.88599967956543 C-39.340999603271484,-5.961999893188477 -39.5099983215332,1.4220000505447388 -39.44900131225586,9.326000213623047 C-39.44900131225586,9.38599967956543 -39.448001861572266,9.447999954223633 -39.446998596191406,9.508000373840332 C-27.368999481201172,11.543000221252441 -14.98900032043457,12.678999900817871 -2.374000072479248,12.852999687194824 C-1.6169999837875366,12.385000228881836 -0.9340000152587891,11.944999694824219 -0.328000009059906,11.539999961853027 C0.2919999957084656,11.954999923706055 0.9890000224113464,12.406999588012695 1.7690000534057617,12.88599967956543 C14.586999893188477,12.847999572753906 27.16699981689453,11.807000160217285 39.44300079345703,9.848999977111816 C39.44499969482422,9.675999641418457 39.448001861572266,9.49899959564209 39.44900131225586,9.326000213623047 C39.5099983215332,1.4359999895095825 39.340999603271484,-5.936999797821045 39.007999420166016,-12.850000381469727z"></path></g></g><g transform="matrix(1,0,0,1,322.9800109863281,407.5090026855469)" opacity="1" style="display: block;"><g opacity="1" transform="matrix(1,0,0,1,35.082000732421875,36.3390007019043)"><path fill="rgb(54,126,255)" fill-opacity="1" d=" M34.832000732421875,3.8440001010894775 C30.267000198364258,-1.4459999799728394 26.97100067138672,-4.105000019073486 26.97100067138672,-4.105000019073486 C26.886999130249023,-3.9519999027252197 26.804000854492188,-3.7829999923706055 26.72100067138672,-3.625999927520752 C26.763999938964844,-3.936000108718872 26.785999298095703,-4.105000019073486 26.785999298095703,-4.105000019073486 C26.785999298095703,-4.105000019073486 26.482999801635742,-4.26200008392334 26.482999801635742,-4.26200008392334 C26.482999801635742,-4.26200008392334 16.027000427246094,-9.687999725341797 16.027000427246094,-9.687999725341797 C16.027000427246094,-9.687999725341797 -10.531999588012695,-23.475000381469727 -10.531999588012695,-23.475000381469727 C-10.531999588012695,-23.475000381469727 -15.295999526977539,-25.94700050354004 -15.295999526977539,-25.94700050354004 C-15.295999526977539,-25.94700050354004 -20.988000869750977,-28.902000427246094 -20.988000869750977,-28.902000427246094 C-20.988000869750977,-28.902000427246094 -34.832000732421875,-36.0890007019043 -34.832000732421875,-36.0890007019043 C-29.84600067138672,-28.4950008392334 -26.31800079345703,-19.000999450683594 -25.736000061035156,-7.159999847412109 C-24.972999572753906,8.361000061035156 -24.27199935913086,23.152000427246094 -23.67300033569336,36.0890007019043 C-6.520999908447266,29.53499984741211 9.699000358581543,21.09600067138672 24.72100067138672,11.008000373840332 C24.72100067138672,11.008000373840332 24.72100067138672,11.008000373840332 24.72100067138672,11.008000373840332 C28.15399932861328,8.70300006866455 31.527000427246094,6.316999912261963 34.832000732421875,3.8440001010894775z"></path></g></g><g transform="matrix(1,0,0,1,102.94000244140625,409.19000244140625)" opacity="1" style="display: block;"><g opacity="1" transform="matrix(1,0,0,1,33.4640007019043,35.1150016784668)"><path fill="rgb(54,126,255)" fill-opacity="1" d=" M16.913000106811523,-26.40399932861328 C16.913000106811523,-26.40399932861328 -16.975000381469727,-8.835000038146973 -18.509000778198242,-8.017999649047852 C-20.98699951171875,-7.330999851226807 -22.802000045776367,-5.453000068664551 -24.979000091552734,-4.170000076293945 C-24.979000091552734,-4.170000076293945 -24.9950008392334,-4.160999774932861 -24.9950008392334,-4.160999774932861 C-24.996999740600586,-4.164000034332275 -24.996000289916992,-4.164999961853027 -24.99799919128418,-4.169000148773193 C-24.99799919128418,-4.169000148773193 -25.014999389648438,-4.15500020980835 -25.038000106811523,-4.13700008392334 C-25.038000106811523,-4.13700008392334 -25.05299949645996,-4.127999782562256 -25.05299949645996,-4.127999782562256 C-25.094999313354492,-4.144000053405762 -25.134000778198242,-4.1539998054504395 -25.10700035095215,-4.0970001220703125 C-25.107999801635742,-4.0960001945495605 -25.107999801635742,-4.0960001945495605 -25.108999252319336,-4.0960001945495605 C-25.108999252319336,-4.0960001945495605 -25.104000091552734,-4.083000183105469 -25.104000091552734,-4.083000183105469 C-25.68199920654297,-3.6029999256134033 -29.107999801635742,-1.3700000047683716 -33.2140007019043,3.388000011444092 C-29.90999984741211,5.860000133514404 -26.53700065612793,8.246000289916992 -23.104000091552734,10.550999641418457 C-23.104000091552734,10.550999641418457 -23.104000091552734,10.552000045776367 -23.104000091552734,10.552000045776367 C-8.670000076293945,20.243999481201172 6.863999843597412,28.426000595092773 23.273000717163086,34.8650016784668 C23.86400032043457,22.11199951171875 24.55299949645996,7.5960001945495605 25.301000595092773,-7.616000175476074 C25.839000701904297,-18.527000427246094 28.86199951171875,-27.50200080871582 33.2140007019043,-34.8650016784668 C33.2140007019043,-34.8650016784668 16.913000106811523,-26.40399932861328 16.913000106811523,-26.40399932861328z M-18.565000534057617,-7.98799991607666 C-18.57200050354004,-7.984000205993652 -18.57699966430664,-7.980999946594238 -18.58300018310547,-7.978000164031982 C-18.57699966430664,-7.98199987411499 -18.570999145507812,-7.985000133514404 -18.565000534057617,-7.98799991607666z M-18.673999786376953,-7.931000232696533 C-18.812999725341797,-7.855999946594238 -18.920000076293945,-7.798999786376953 -18.99799919128418,-7.757999897003174 C-18.895000457763672,-7.811999797821045 -18.77199935913086,-7.877999782562256 -18.673999786376953,-7.931000232696533z M-19.016000747680664,-7.748000144958496 C-19.108999252319336,-7.697999954223633 -19.16200065612793,-7.671000003814697 -19.179000854492188,-7.660999774932861 C-19.155000686645508,-7.673999786376953 -19.0939998626709,-7.706999778747559 -19.016000747680664,-7.748000144958496z"></path></g></g><g transform="matrix(1,0,0,1,207.75999450683594,341.5840148925781)" opacity="1" style="display: block;"><g opacity="1" transform="matrix(1,0,0,1,39.25699996948242,73.25299835205078)"><path fill="rgb(209,102,81)" fill-opacity="1" d=" M35.20800018310547,-72.99299621582031 C24.211999893188477,-68.34200286865234 12.222999572753906,-65.78199768066406 -0.33000001311302185,-65.78199768066406 C-0.33000001311302185,-65.78199768066406 -6.355000019073486,-64.37699890136719 -6.355000019073486,-64.37699890136719 C-6.355000019073486,-64.37699890136719 -11.340999603271484,-65.5510025024414 -11.340999603271484,-65.5510025024414 C-23.902000427246094,-65.5510025024414 -24.888999938964844,-68.34600067138672 -35.89099884033203,-73.00299835205078 C-35.89099884033203,-73.00299835205078 -34.10499954223633,-49.43600082397461 -34.10499954223633,-49.43600082397461 C-34.10499954223633,-49.43600082397461 -31.72800064086914,-36.93000030517578 -31.72800064086914,-36.93000030517578 C-31.72800064086914,-36.93000030517578 -27.746999740600586,-14.583999633789062 -27.746999740600586,-14.583999633789062 C-29.131000518798828,-10.704000473022461 -30.025999069213867,-5.36899995803833 -31.663999557495117,1.2710000276565552 C-34.79600143432617,13.967000007629395 -37.87900161743164,31.82900047302246 -39.00699996948242,55.19300079345703 C-30.46299934387207,65.43299865722656 -18.16900062561035,72.96099853515625 -0.4699999988079071,73.0009994506836 C-0.4230000078678131,73.0009994506836 -0.37700000405311584,73.00299835205078 -0.33000001311302185,73.00299835205078 C-0.28299999237060547,73.00299835205078 -0.2370000034570694,73.0009994506836 -0.1899999976158142,73.0009994506836 C17.966999053955078,72.96199798583984 30.44099998474121,65.4010009765625 39.00699996948242,55.231998443603516 C37.88199996948242,31.850000381469727 34.797000885009766,13.972999572753906 31.663000106811523,1.2710000276565552 C29.871000289916992,-5.992000102996826 28.066999435424805,-11.567000389099121 26.608999252319336,-15.534000396728516 C26.608999252319336,-15.534000396728516 32.400001525878906,-35.624000549316406 32.400001525878906,-35.624000549316406 C32.400001525878906,-35.624000549316406 34.2869987487793,-49.41699981689453 34.2869987487793,-49.41699981689453 C34.2869987487793,-49.41699981689453 35.20800018310547,-72.99299621582031 35.20800018310547,-72.99299621582031z"></path></g></g><g transform="matrix(1.0000020265579224,0,0,0.999998152256012,143.4647979736328,107.47627258300781)" opacity="1" style="display: block;"><g opacity="1" transform="matrix(1,0,0,1,99.90699768066406,134.7270050048828)"><path fill="rgb(214,133,102)" fill-opacity="1" d=" M92.94999694824219,-65.38200378417969 C92.94999694824219,-65.38200378417969 93.06300354003906,-75.07599639892578 93.06300354003906,-75.07599639892578 C93.06300354003906,-75.07599639892578 83.822998046875,-104.11699676513672 83.38300323486328,-106.75700378417969 C82.94300079345703,-109.39700317382812 65.34300231933594,-118.63600158691406 65.34300231933594,-118.63600158691406 C65.34300231933594,-118.63600158691406 14.303000450134277,-134.4770050048828 14.303000450134277,-134.4770050048828 C14.303000450134277,-134.4770050048828 -38.9370002746582,-124.35600280761719 -43.99700164794922,-119.07599639892578 C-49.05699920654297,-113.7959976196289 -79.41699981689453,-89.59600067138672 -83.69400024414062,-86.51599884033203 C-87.97100067138672,-83.43599700927734 -95.6969985961914,-55.715999603271484 -95.57499694824219,-51.31700134277344 C-95.4530029296875,-46.91699981689453 -99.65699768066406,-11.626999855041504 -99.65699768066406,-11.626999855041504 C-99.65699768066406,-11.626999855041504 -91.49299621582031,47.49800109863281 -91.49299621582031,47.49800109863281 C-91.49299621582031,47.49800109863281 -91.6449966430664,47.516998291015625 -91.90899658203125,47.54499816894531 C-88.73200225830078,69.60099792480469 -78.96399688720703,89.34500122070312 -64.81099700927734,104.41999816894531 C-55.608001708984375,114.22200012207031 -44.54999923706055,122.04900360107422 -32.24800109863281,127.25599670410156 C-21.243999481201172,131.91299438476562 -9.246999740600586,134.4759979248047 3.313999891281128,134.4759979248047 C15.866000175476074,134.4759979248047 27.856000900268555,131.91700744628906 38.85200119018555,127.26499938964844 C51.16400146484375,122.05799865722656 62.22999954223633,114.22799682617188 71.43900299072266,104.41999816894531 C85.75,89.1760025024414 95.56500244140625,69.15399932861328 98.62899780273438,46.79899978637695 C99.2969970703125,41.91899871826172 99.65699768066406,36.93199920654297 99.65699768066406,31.854999542236328 C99.65699768066406,31.854999542236328 99.65699768066406,2.0409998893737793 99.65699768066406,2.0409998893737793 C99.65699768066406,2.0409998893737793 99.65699768066406,-8.505999565124512 99.65699768066406,-8.505999565124512 C99.65699768066406,-8.505999565124512 99.65699768066406,-27.773000717163086 99.65699768066406,-27.773000717163086 C99.65699768066406,-41.05400085449219 97.26200103759766,-53.733001708984375 92.94999694824219,-65.38200378417969z"></path></g></g><g transform="matrix(1.0000020265579224,0,0,0.999998152256012,341.7513732910156,233.44766235351562)" opacity="1" style="display: block;"><g opacity="1" transform="matrix(1,0,0,1,9.890000343322754,27.902000427246094)"><path fill="rgb(209,102,81)" fill-opacity="1" d=" M-8.612000465393066,12.708999633789062 C-8.612000465393066,17.785999298095703 -8.972000122070312,22.77199935913086 -9.640000343322754,27.652000427246094 C-9.392999649047852,27.59600067138672 -9.145000457763672,27.552000045776367 -8.89900016784668,27.488000869750977 C0.5109999775886536,25.09000015258789 9.562999725341797,17.37700080871582 9.60200023651123,0.5809999704360962 C9.640000343322754,-16.214000701904297 3.3540000915527344,-23.240999221801758 -2.943000078201294,-26.06800079345703 C-4.894999980926514,-26.94499969482422 -6.8460001945495605,-27.41699981689453 -8.612000465393066,-27.652000427246094 C-8.612000465393066,-27.652000427246094 -8.612000465393066,-17.104999542236328 -8.612000465393066,-17.104999542236328 C-8.612000465393066,-17.104999542236328 -8.612000465393066,12.708999633789062 -8.612000465393066,12.708999633789062z"></path></g></g><g transform="matrix(1.000002145767212,0,0,0.999998152256012,188.3831787109375,245.77317810058594)" opacity="1" style="display: block;"><g opacity="1" transform="matrix(1,0,0,1,11.3100004196167,11.3100004196167)"><path fill="rgb(36,56,70)" fill-opacity="1" d=" M-11.0600004196167,0.0010000000474974513 C-11.0600004196167,3.055000066757202 -9.821999549865723,5.818999767303467 -7.820000171661377,7.820000171661377 C-5.818999767303467,9.821999549865723 -3.053999900817871,11.0600004196167 0.0010000000474974513,11.0600004196167 C3.053999900817871,11.0600004196167 5.818999767303467,9.821999549865723 7.820000171661377,7.820000171661377 C9.821000099182129,5.818999767303467 11.0600004196167,3.053999900817871 11.0600004196167,0.0010000000474974513 C11.0600004196167,-3.053999900817871 9.821999549865723,-5.817999839782715 7.820000171661377,-7.820000171661377 C5.818999767303467,-9.821999549865723 3.053999900817871,-11.0600004196167 0.0010000000474974513,-11.0600004196167 C-3.053999900817871,-11.0600004196167 -5.818999767303467,-9.821999549865723 -7.820000171661377,-7.820000171661377 C-9.821999549865723,-5.817999839782715 -11.0600004196167,-3.053999900817871 -11.0600004196167,0.0010000000474974513z"></path></g></g><g transform="matrix(1.000002145767212,0,0,0.999998152256012,282.3689880371094,245.77317810058594)" opacity="1" style="display: block;"><g opacity="1" transform="matrix(1,0,0,1,11.3100004196167,11.3100004196167)"><path fill="rgb(36,56,70)" fill-opacity="1" d=" M11.0600004196167,0.0010000000474974513 C11.0600004196167,-3.053999900817871 9.822999954223633,-5.817999839782715 7.821000099182129,-7.820000171661377 C5.818999767303467,-9.821999549865723 3.053999900817871,-11.0600004196167 0,-11.0600004196167 C-3.053999900817871,-11.0600004196167 -5.818999767303467,-9.821999549865723 -7.821000099182129,-7.820000171661377 C-9.821999549865723,-5.817999839782715 -11.0600004196167,-3.053999900817871 -11.0600004196167,0.0010000000474974513 C-11.0600004196167,3.055000066757202 -9.821999549865723,5.818999767303467 -7.821000099182129,7.820000171661377 C-5.818999767303467,9.821999549865723 -3.053999900817871,11.0600004196167 0,11.0600004196167 C3.053999900817871,11.0600004196167 5.818999767303467,9.821999549865723 7.821000099182129,7.820000171661377 C9.822999954223633,5.818999767303467 11.0600004196167,3.055000066757202 11.0600004196167,0.0010000000474974513z"></path></g></g><g transform="matrix(1.0000020265579224,0,0,0.999998152256012,235.46397399902344,253.7081756591797)" opacity="1" style="display: block;"><g opacity="1" transform="matrix(1,0,0,1,16.187999725341797,22.92300033569336)"><path fill="rgb(209,102,81)" fill-opacity="1" d=" M-9.430000305175781,18.165000915527344 C-2.9210000038146973,22.67300033569336 2.996000051498413,22.67300033569336 7.401000022888184,21.13599967956543 C11.805000305175781,19.600000381469727 14.696999549865723,16.525999069213867 15.156000137329102,14.888999938964844 C15.156000137329102,14.888999938964844 15.822999954223633,13.51200008392334 15.880999565124512,11.444999694824219 C15.937999725341797,9.380000114440918 15.385000228881836,6.625999927520752 12.944999694824219,3.871000051498413 C10.503000259399414,1.1160000562667847 7.723999977111816,0.3490000069141388 5.553999900817871,0.27000001072883606 C3.384000062942505,0.19200000166893005 1.8240000009536743,0.8019999861717224 1.8240000009536743,0.8019999861717224 C1.8240000009536743,0.8019999861717224 2.2019999027252197,-4.315000057220459 1.8589999675750732,-9.684000015258789 C1.5149999856948853,-15.052000045776367 0.4490000009536743,-20.670000076293945 -2.437000036239624,-21.67099952697754 C-5.322999954223633,-22.67300033569336 -10.326000213623047,-14.968000411987305 -12.979999542236328,-5.885000228881836 C-15.633999824523926,3.197999954223633 -15.937999725341797,13.657999992370605 -9.430000305175781,18.165000915527344z"></path></g></g><g transform="matrix(1.0000020265579224,0,0,0.999998152256012,250.0001983642578,250)" opacity="1" style="display: block;"><g opacity="1" transform="matrix(1,0,0,1,0,0)"><path fill="rgb(255,0,0)" fill-opacity="1" d="M0 0"></path><path stroke-linecap="round" stroke-linejoin="miter" fill-opacity="0" stroke-miterlimit="4" stroke="rgb(183,64,61)" stroke-opacity="1" stroke-width="8" d=" M-27.5,73 C-22.631000518798828,73.94999694824219 -15.166000366210938,75.01300048828125 -6.632999897003174,75.35800170898438 C2.7950000762939453,75.73899841308594 13.526000022888184,75.24299621582031 23.5,72.75"></path></g></g><g transform="matrix(1.0000020265579224,0,0,0.999998152256012,231.8963623046875,331.0221862792969)" opacity="1" style="display: block;"><g opacity="1" transform="matrix(1,0,0,1,15.213000297546387,3.9130001068115234)"><path fill="rgb(209,102,81)" fill-opacity="1" d=" M0.010999999940395355,3.6500000953674316 C3.7939999103546143,3.635999917984009 7.577000141143799,3.4539999961853027 11.347000122070312,3.1010000705718994 C12.428999900817871,3.000999927520752 13.36299991607666,2.5190000534057617 13.996999740600586,1.8350000381469727 C14.630000114440918,1.1510000228881836 14.963000297546387,0.2630000114440918 14.843999862670898,-0.6499999761581421 C14.722999572753906,-1.5640000104904175 14.201000213623047,-2.3410000801086426 13.454999923706055,-2.865999937057495 C12.708999633789062,-3.3910000324249268 11.73799991607666,-3.6630001068115234 10.722999572753906,-3.569000005722046 C7.1529998779296875,-3.234999895095825 3.571000099182129,-3.062000036239624 -0.012000000104308128,-3.0490000247955322 C-3.5950000286102295,-3.0369999408721924 -7.177999973297119,-3.186000108718872 -10.75100040435791,-3.494999885559082 C-11.765000343322754,-3.5820000171661377 -12.732999801635742,-3.302999973297119 -13.47599983215332,-2.7730000019073486 C-14.218000411987305,-2.243000030517578 -14.736000061035156,-1.4620000123977661 -14.850000381469727,-0.5479999780654907 C-14.963000297546387,0.3659999966621399 -14.625,1.2519999742507935 -13.98799991607666,1.930999994277954 C-13.350000381469727,2.6110000610351562 -12.413000106811523,3.0869998931884766 -11.329000473022461,3.178999900817871 C-7.557000160217285,3.505000114440918 -3.7730000019073486,3.6630001068115234 0.010999999940395355,3.6500000953674316z"></path></g></g><g transform="matrix(1.0000020265579224,0,0,0.999998152256012,158.01512145996094,192.2077178955078)" opacity="1" style="display: block;"><g opacity="1" transform="matrix(1,0,0,1,41.36000061035156,30.645000457763672)"><path stroke-linecap="round" stroke-linejoin="miter" fill-opacity="0" stroke-miterlimit="10" stroke="rgb(70,27,37)" stroke-opacity="1" stroke-width="10.12" d=" M-16.059999465942383,5.34499979019165 C-10.34000015258789,1.034000039100647 2.640000104904175,-5.34499979019165 16.059999465942383,3.6740000247955322"></path></g></g><g transform="matrix(1.0000020265579224,0,0,0.999998152256012,252.31890869140625,191.7731170654297)" opacity="1" style="display: block;"><g opacity="1" transform="matrix(1,0,0,1,41.36000061035156,30.645000457763672)"><path stroke-linecap="round" stroke-linejoin="miter" fill-opacity="0" stroke-miterlimit="10" stroke="rgb(70,27,37)" stroke-opacity="1" stroke-width="10.12" d=" M-16.059999465942383,5.34499979019165 C-10.33899974822998,1.034000039100647 2.640000104904175,-5.34499979019165 16.059999465942383,3.6740000247955322"></path></g></g><g transform="matrix(1.0000020265579224,0,0,0.999998152256012,107.91692352294922,72.88762664794922)" opacity="1" style="display: block;"><g opacity="1" transform="matrix(1,0,0,1,138.6510009765625,161.04600524902344)"><path fill="rgb(70,27,37)" fill-opacity="1" d=" M129.00999450683594,8.479000091552734 C123.96900177001953,0.8130000233650208 118.23699951171875,-3.742000102996826 118.23699951171875,-3.742000102996826 C118.23699951171875,-3.742000102996826 120.08399963378906,-5.256999969482422 122.4520034790039,-8.107999801635742 C124.23100280761719,-10.24899959564209 126.302001953125,-13.142000198364258 128.11099243164062,-16.724000930786133 C128.11599731445312,-16.735000610351562 128.1219940185547,-16.7450008392334 128.1269989013672,-16.7549991607666 C129.67100524902344,-19.816999435424805 131.01400756835938,-23.385000228881836 131.8209991455078,-27.399999618530273 C132.22300720214844,-29.405000686645508 132.48500061035156,-31.52400016784668 132.57400512695312,-33.750999450683594 C132.7100067138672,-37.154998779296875 132.4239959716797,-40.81100082397461 131.57000732421875,-44.70000076293945 C131.1439971923828,-46.63999938964844 130.5659942626953,-48.638999938964844 129.83599853515625,-50.69200134277344 C129.66099548339844,-51.18199920654297 129.50100708007812,-51.667999267578125 129.3090057373047,-52.16600036621094 C128.64999389648438,-53.86000061035156 127.94499969482422,-55.44300079345703 127.21099853515625,-56.94599914550781 C126.18499755859375,-59.04899978637695 125.09100341796875,-60.96500015258789 123.9489974975586,-62.720001220703125 C122.48500061035156,-64.9729995727539 120.94100189208984,-66.9540023803711 119.35600280761719,-68.69100189208984 C117.40399932861328,-70.83000183105469 115.39399719238281,-72.60700225830078 113.39399719238281,-74.0770034790039 C111.22799682617188,-75.66799926757812 109.07499694824219,-76.91699981689453 107.03099822998047,-77.875 C106.16600036621094,-78.28099822998047 105.322998046875,-78.63200378417969 104.50299835205078,-78.94499969482422 C104.53600311279297,-79.10399627685547 104.56900024414062,-79.27799987792969 104.60299682617188,-79.44400024414062 C104.94999694824219,-81.1969985961914 105.31500244140625,-83.3550033569336 105.59300231933594,-85.8280029296875 C105.83899688720703,-88.0270004272461 106.01799774169922,-90.46199798583984 106.052001953125,-93.04399871826172 C106.0739974975586,-94.68000030517578 106.03099822998047,-96.37999725341797 105.91899871826172,-98.11100006103516 C105.65899658203125,-102.15599822998047 104.97899627685547,-106.3949966430664 103.64900207519531,-110.55500030517578 C102.40899658203125,-114.43599700927734 100.61299896240234,-118.24400329589844 98.03900146484375,-121.74500274658203 C97.10600280761719,-123.01599884033203 96.07099914550781,-124.24800109863281 94.9260025024414,-125.427001953125 C92.00399780273438,-128.43699645996094 88.75299835205078,-130.8459930419922 85.35600280761719,-132.7790069580078 C80.91999816894531,-135.30299377441406 76.23500061035156,-137.0050048828125 71.69499969482422,-138.13900756835938 C68.85399627685547,-138.84800720214844 66.06900024414062,-139.33900451660156 63.44200134277344,-139.6649932861328 C53.402000427246094,-140.90899658203125 45.643001556396484,-139.80299377441406 45.643001556396484,-139.80299377441406 C45.643001556396484,-139.80299377441406 45.529998779296875,-139.9239959716797 45.32899856567383,-140.1300048828125 C44.50299835205078,-140.9759979248047 42.01499938964844,-143.42100524902344 38.19499969482422,-146.33999633789062 C36.361000061035156,-147.74200439453125 34.23099899291992,-149.2469940185547 31.81800079345703,-150.73800659179688 C30.323999404907227,-151.66099548339844 28.722000122070312,-152.57400512695312 27.0310001373291,-153.4530029296875 C24.461999893188477,-154.78700256347656 21.68000030517578,-156.03599548339844 18.70400047302246,-157.0959930419922 C12.27299976348877,-159.38699340820312 4.960999965667725,-160.7949981689453 -2.930000066757202,-160.26400756835938 C-19.371999740600586,-159.1580047607422 -30.96500015258789,-151.55599975585938 -38.448001861572266,-144.22900390625 C-45.930999755859375,-136.9010009765625 -49.303001403808594,-129.85000610351562 -49.303001403808594,-129.85000610351562 C-49.303001403808594,-129.85000610351562 -55.680999755859375,-132.62399291992188 -64.54399871826172,-133.04400634765625 C-68.2750015258789,-133.2209930419922 -72.4469985961914,-132.97000122070312 -76.76699829101562,-131.9320068359375 C-81.31999969482422,-130.83700561523438 -86.03500366210938,-128.85499572753906 -90.5790023803711,-125.53900146484375 C-91.96700286865234,-124.5250015258789 -93.34100341796875,-123.39900207519531 -94.68599700927734,-122.125 C-99.03600311279297,-118.00499725341797 -102.40799713134766,-113.46099853515625 -105.0250015258789,-108.87799835205078 C-105.8949966430664,-107.35199737548828 -106.67400360107422,-105.8219985961914 -107.38400268554688,-104.3010025024414 C-108.36599731445312,-102.20099639892578 -109.2040023803711,-100.12200164794922 -109.91699981689453,-98.09600067138672 C-110.67900085449219,-95.93099975585938 -111.30999755859375,-93.8280029296875 -111.81700134277344,-91.83499908447266 C-111.8759994506836,-91.60299682617188 -111.9260025024414,-91.37699890136719 -111.98300170898438,-91.14800262451172 C-113.22200012207031,-86.07599639892578 -113.72100067138672,-81.76799774169922 -113.91799926757812,-78.99299621582031 C-114.06700134277344,-76.89099884033203 -114.0459976196289,-75.65899658203125 -114.0459976196289,-75.65899658203125 C-114.0459976196289,-75.65899658203125 -118.9000015258789,-72.83999633789062 -124.10299682617188,-67.76699829101562 C-129.3070068359375,-62.694000244140625 -134.85899353027344,-55.36600112915039 -136.25799560546875,-46.349998474121094 C-138.4010009765625,-32.525001525878906 -135.0489959716797,-21.87299919128418 -131.16099548339844,-14.677000045776367 C-130.6750030517578,-13.777999877929688 -130.18099975585938,-12.932999610900879 -129.68800354003906,-12.142999649047852 C-127.81999969482422,-9.145999908447266 -125.97699737548828,-6.942999839782715 -124.67400360107422,-5.543000221252441 C-123.56900024414062,-4.355999946594238 -122.8479995727539,-3.742000102996826 -122.8479995727539,-3.742000102996826 C-122.8479995727539,-3.742000102996826 -128.20700073242188,0.4620000123977661 -132.38999938964844,7.591000080108643 C-133.6269989013672,9.699999809265137 -134.7550048828125,12.069000244140625 -135.61700439453125,14.656000137329102 C-136.8040008544922,18.209999084472656 -137.4720001220703,22.18199920654297 -137.1929931640625,26.48900032043457 C-137.0800018310547,28.2450008392334 -136.81199645996094,30.055999755859375 -136.35400390625,31.91699981689453 C-136.3179931640625,32.06100082397461 -136.28399658203125,32.20399856567383 -136.24600219726562,32.347999572753906 C-136.2050018310547,34.24599838256836 -135.9949951171875,36.20000076293945 -135.6199951171875,38.194000244140625 C-135.54600524902344,38.58399963378906 -135.48699951171875,38.97100067138672 -135.39999389648438,39.362998962402344 C-134.11099243164062,45.16400146484375 -131.66099548339844,50.415000915527344 -128.67300415039062,55.06999969482422 C-126.32099914550781,58.73699951171875 -123.63500213623047,62.02799987792969 -120.90299987792969,64.91500091552734 C-119.66100311279297,66.22599792480469 -118.41300201416016,67.46199798583984 -117.18299865722656,68.60199737548828 C-116.5270004272461,69.20999908447266 -115.88099670410156,69.78500366210938 -115.23999786376953,70.34400177001953 C-108.6709976196289,76.06999969482422 -103.11499786376953,79.1780014038086 -103.11499786376953,79.1780014038086 C-103.11499786376953,79.1780014038086 -105.56999969482422,80.8489990234375 -108.12899780273438,84.12799835205078 C-109.0250015258789,85.2770004272461 -109.93399810791016,86.62000274658203 -110.75599670410156,88.16300201416016 C-110.99199676513672,88.60900115966797 -111.21900177001953,89.0780029296875 -111.43900299072266,89.55699920654297 C-113.12000274658203,93.21099853515625 -114.21600341796875,97.81400299072266 -113.66200256347656,103.34100341796875 C-113.48899841308594,105.06099700927734 -113.15699768066406,106.87000274658203 -112.62899780273438,108.7699966430664 C-112.11499786376953,110.62100219726562 -111.4280014038086,112.54900360107422 -110.51499938964844,114.56700134277344 C-109.0459976196289,117.81600189208984 -107.30999755859375,120.43099975585938 -105.4229965209961,122.55599975585938 C-103.28399658203125,124.96199798583984 -100.9469985961914,126.72000122070312 -98.55000305175781,127.98100280761719 C-95.4990005493164,129.58700561523438 -92.36100006103516,130.4080047607422 -89.43299865722656,130.7429962158203 C-82.17500305175781,131.57200622558594 -76.2300033569336,129.49899291992188 -76.2300033569336,129.49899291992188 C-76.2300033569336,129.49899291992188 -77.63300323486328,136.62100219726562 -75.70700073242188,144.593994140625 C-74.31999969482422,150.33999633789062 -59.43299865722656,167.01699829101562 -52.81700134277344,171.29600524902344 C-45.06800079345703,172.81700134277344 -35.26300048828125,171.6699981689453 -32.83700180053711,170.0590057373047 C-22.30699920654297,163.06199645996094 -33.4739990234375,147.26199340820312 -29.905000686645508,146.3509979248047 C-29.905000686645508,146.3509979248047 -34.09199905395508,140.22500610351562 -34.09199905395508,140.22500610351562 C-34.09199905395508,140.22500610351562 -35.44300079345703,135.5260009765625 -35.44300079345703,135.5260009765625 C-47.74599838256836,130.3179931640625 -58.803001403808594,122.49199676513672 -68.00599670410156,112.68900299072266 C-82.15899658203125,97.61499786376953 -91.927001953125,77.87200164794922 -95.10399627685547,55.816001892089844 C-94.83999633789062,55.78799819946289 -94.68900299072266,55.76900100708008 -94.68900299072266,55.76900100708008 C-94.68900299072266,55.76900100708008 -87.28700256347656,49.178001403808594 -82.33799743652344,39.448001861572266 C-77.38800048828125,29.7189998626709 -74.88999938964844,16.847999572753906 -84.69599914550781,4.288000106811523 C-84.69599914550781,4.288000106811523 -76.77899932861328,2.9159998893737793 -68.04499816894531,-1.5720000267028809 C-66.2229995727539,-2.566999912261963 -57.79899978637695,-7.879000186920166 -55.1619987487793,-10.923999786376953 C-54.99599838256836,-11.114999771118164 -54.82699966430664,-11.295999526977539 -54.654998779296875,-11.46500015258789 C-47.79800033569336,-18.86400032043457 -43.279998779296875,-29.51300048828125 -46.244998931884766,-44.68899917602539 C-46.244998931884766,-44.68899917602539 -41.0890007019043,-39.57600021362305 -32.53300094604492,-36.10200119018555 C-23.979000091552734,-32.62699890136719 -12.026000022888184,-30.79400062561035 1.565000057220459,-37.356998443603516 C10.692000389099121,-41.76599884033203 17.336000442504883,-50.72100067138672 21.698999404907227,-58.57500076293945 C26.062999725341797,-66.42900085449219 28.145000457763672,-73.18199920654297 28.145000457763672,-73.18199920654297 C28.145000457763672,-73.18199920654297 27.72100067138672,-66.99400329589844 29.30299949645996,-59.92300033569336 C30.885000228881836,-52.85200119018555 34.47200012207031,-44.89899826049805 42.4900016784668,-41.37200164794922 C58.83300018310547,-34.18299865722656 70.68599700927734,-38.18899917602539 78.4520034790039,-43.992000579833984 C85.35399627685547,-49.14899826049805 89.02200317382812,-55.71099853515625 89.75499725341797,-57.11199951171875 C94.06700134277344,-45.46200180053711 96.46199798583984,-32.784000396728516 96.46199798583984,-19.503000259399414 C96.46199798583984,-19.503000259399414 96.46199798583984,-0.23600000143051147 96.46199798583984,-0.23600000143051147 C98.22799682617188,-0.0010000000474974513 100.17900085449219,0.47099998593330383 102.12999725341797,1.3480000495910645 C108.427001953125,4.176000118255615 114.71299743652344,11.204000473022461 114.67500305175781,27.999000549316406 C114.63600158691406,44.79499816894531 105.58499908447266,52.505001068115234 96.17500305175781,54.904998779296875 C95.9280014038086,54.96799850463867 95.68000030517578,55.01300048828125 95.43299865722656,55.06800079345703 C92.37000274658203,77.42500305175781 82.55500030517578,97.44499969482422 68.24299621582031,112.68900299072266 C59.034000396728516,122.49800109863281 47.96799850463867,130.3280029296875 35.65700149536133,135.53599548339844 C35.65700149536133,135.53599548339844 37.04999923706055,146.49400329589844 37.04999923706055,146.49400329589844 C37.04999923706055,146.49400329589844 38.2239990234375,154.52999877929688 38.2239990234375,154.52999877929688 C41.93199920654297,161.9409942626953 47.68199920654297,165.3159942626953 53.0880012512207,165.23699951171875 C55.7760009765625,165.197998046875 61.93199920654297,163.6909942626953 64.83999633789062,160.77000427246094 C70.13300323486328,157.3350067138672 73.19000244140625,152.68600463867188 74.90299987792969,148.01499938964844 C75.3219985961914,146.86900329589844 75.6709976196289,145.72300720214844 75.94300079345703,144.593994140625 C76.10800170898438,143.91600036621094 76.23899841308594,143.2480010986328 76.35800170898438,142.58700561523438 C77.63300323486328,135.46600341796875 76.46700286865234,129.49899291992188 76.46700286865234,129.49899291992188 C76.46700286865234,129.49899291992188 82.41100311279297,131.57200622558594 89.66899871826172,130.74200439453125 C92.052001953125,130.4709930419922 94.57499694824219,129.875 97.07599639892578,128.802001953125 C99.78500366210938,127.63899993896484 102.46900177001953,125.90799713134766 104.91799926757812,123.3740005493164 C107.09700012207031,121.12000274658203 109.08999633789062,118.23999786376953 110.75199890136719,114.56700134277344 C111.53199768066406,112.84500122070312 112.13800048828125,111.18900299072266 112.6240005493164,109.58799743652344 C113.1969985961914,107.69400024414062 113.58899688720703,105.88300323486328 113.80899810791016,104.16100311279297 C114.66000366210938,97.53099822998047 113.12999725341797,92.18199920654297 110.99099731445312,88.16200256347656 C107.8270034790039,82.21800231933594 103.3499984741211,79.1780014038086 103.3499984741211,79.1780014038086 C103.3499984741211,79.1780014038086 110.03900146484375,75.44499969482422 117.41999816894531,68.60199737548828 C124.80000305175781,61.75899887084961 132.87100219726562,51.80400085449219 135.63600158691406,39.361000061035156 C138.4010009765625,26.91900062561035 134.05099487304688,16.145000457763672 129.00999450683594,8.479000091552734z"></path></g></g><g transform="matrix(1,0,0,1,273.3759765625,378.9639892578125)" opacity="1" style="display: block;"><g opacity="1" transform="matrix(1,0,0,1,30.631000518798828,57.027000427246094)"><path fill="rgb(82,194,245)" fill-opacity="1" d=" M28.31800079345703,0.6980000138282776 C27.735000610351562,-11.142999649047852 24.20800018310547,-20.636999130249023 19.22100067138672,-28.229999542236328 C17.6560001373291,-30.613000869750977 15.949000358581543,-32.808998107910156 14.140999794006348,-34.82899856567383 C12.380000114440918,-36.79999923706055 10.526000022888184,-38.60499954223633 8.619000434875488,-40.25699996948242 C8.21500015258789,-40.606998443603516 7.809000015258789,-40.94900131225586 7.401000022888184,-41.2859992980957 C5.183000087738037,-43.11399841308594 2.9130001068115234,-44.74599838256836 0.6480000019073486,-46.19499969482422 C-10.710000038146973,-53.45800018310547 -21.84000015258789,-56.18199920654297 -24.590999603271484,-56.777000427246094 C-24.590999603271484,-56.777000427246094 -30.381000518798828,-36.6870002746582 -30.381000518798828,-36.6870002746582 C-28.923999786376953,-32.71900177001953 -27.1200008392334,-27.145999908447266 -25.327999114990234,-19.881999969482422 C-22.194000244140625,-7.179999828338623 -19.110000610351562,10.696000099182129 -17.983999252319336,34.07899856567383 C-17.650999069213867,40.992000579833984 -17.481000900268555,48.36399841308594 -17.54199981689453,56.25400161743164 C-17.542999267578125,56.426998138427734 -17.54800033569336,56.604000091552734 -17.549999237060547,56.777000427246094 C-0.9490000009536743,54.12900161743164 15.086999893188477,49.790000915527344 30.381000518798828,43.94599914550781 C29.7810001373291,31.009000778198242 29.082000732421875,16.2189998626709 28.31800079345703,0.6980000138282776z"></path></g></g><g transform="matrix(1,0,0,1,159.42799377441406,378.03399658203125)" opacity="1" style="display: block;"><g opacity="1" transform="matrix(1,0,0,1,30.420000076293945,57.321998596191406)"><path fill="rgb(82,194,245)" fill-opacity="1" d=" M18.160999298095703,34.67599868774414 C19.288000106811523,11.312000274658203 22.371000289916992,-6.552000045776367 25.503000259399414,-19.246999740600586 C27.141000747680664,-25.886999130249023 29.222999572753906,-31.284000396728516 30.607999801635742,-35.165000915527344 C30.607999801635742,-35.165000915527344 25.56399917602539,-57.88399887084961 25.56399917602539,-57.88399887084961 C21.9950008392334,-56.972999572753906 9.911999702453613,-53.10900115966797 -0.6169999837875366,-46.112998962402344 C-3.0439999103546143,-44.50199890136719 -5.480999946594238,-42.68000030517578 -7.8480000495910645,-40.62799835205078 C-12.435999870300293,-36.64899826049805 -16.7549991607666,-31.79599952697754 -20.229000091552734,-25.91699981689453 C-24.582000732421875,-18.55299949645996 -27.606000900268555,-9.57800006866455 -28.14299964904785,1.3329999446868896 C-28.891000747680664,16.545000076293945 -29.57900047302246,31.06100082397461 -30.17099952697754,43.81399917602539 C-14.904000282287598,49.80500030517578 1.1239999532699585,54.277000427246094 17.72100067138672,57.071998596191406 C17.719999313354492,57.01100158691406 17.716999053955078,56.94900131225586 17.716999053955078,56.888999938964844 C17.6560001373291,48.98500061035156 17.82699966430664,41.599998474121094 18.160999298095703,34.67599868774414z"></path></g></g><g transform="matrix(1.0000020265579224,0,0,0.999998152256012,142.52218627929688,253.97459411621094)" opacity="1" style="display: block;"><g opacity="1" transform="matrix(1,0,0,1,205.67100524902344,10.895000457763672)"><path fill="rgb(209,209,209)" fill-opacity="1" d=" M5.056000232696533,1.3380000591278076 C3.6089999675750732,6.809000015258789 0.17100000381469727,10.645000457763672 -2.621999979019165,9.906000137329102 C-5.414000034332275,9.166999816894531 -6.504000186920166,4.132999897003174 -5.056000232696533,-1.3380000591278076 C-3.6080000400543213,-6.809000015258789 -0.17100000381469727,-10.645000457763672 2.621000051498413,-9.906000137329102 C5.414000034332275,-9.166999816894531 6.504000186920166,-4.132999897003174 5.056000232696533,1.3380000591278076z"></path></g><g opacity="1" transform="matrix(1,0,0,1,205.67100524902344,10.895000457763672)"><path fill="rgb(108,124,153)" fill-opacity="1" d=" M3.8480000495910645,1.0180000066757202 C2.746000051498413,5.182000160217285 0.12999999523162842,8.10099983215332 -1.9950000047683716,7.539000034332275 C-4.119999885559082,6.9770002365112305 -4.949999809265137,3.1449999809265137 -3.8469998836517334,-1.0180000066757202 C-2.746000051498413,-5.181000232696533 -0.12999999523162842,-8.10099983215332 1.9950000047683716,-7.539000034332275 C4.119999885559082,-6.97599983215332 4.949999809265137,-3.1449999809265137 3.8480000495910645,1.0180000066757202z"></path></g><g opacity="1" transform="matrix(1,0,0,1,162.20899963378906,136.39599609375)"><path stroke-linecap="butt" stroke-linejoin="miter" fill-opacity="0" stroke-miterlimit="10" stroke="rgb(239,245,251)" stroke-opacity="1" stroke-width="1" d=" M38.98699951171875,-105.43399810791016 C38.98699951171875,-105.43399810791016 39.13600158691406,-101.21700286865234 38.86600112915039,-78.92400360107422 C38.595001220703125,-56.630001068115234 18.356000900268555,-50.176998138427734 9.26200008392334,-31.990999221801758 C0.17000000178813934,-13.803999900817871 -5.4039998054504395,3.7960000038146973 -4.230000019073486,22.863000869750977 C-3.056999921798706,41.92900085449219 -33.32400131225586,56.34000015258789 -35.05699920654297,92.5479965209961 C-33.5629997253418,99.71600341796875 -39.137001037597656,112.93399810791016 -39.137001037597656,112.93399810791016"></path></g><g opacity="1" transform="matrix(1,0,0,1,34.479000091552734,135.11199951171875)"><path stroke-linecap="butt" stroke-linejoin="miter" fill-opacity="0" stroke-miterlimit="10" stroke="rgb(239,245,251)" stroke-opacity="1" stroke-width="1" d=" M-21.285999298095703,-103.34200286865234 C-23.166000366210938,-97.29299926757812 -31.979999542236328,-64.73300170898438 -26.10700035095215,-55.34600067138672 C-20.233999252319336,-45.95899963378906 -6.085000038146973,-29.06800079345703 -6.853000164031982,-14.487000465393066 C-7.620999813079834,0.09399999678134918 2.940000057220459,22.68000030517578 8.512999534606934,34.41400146484375 C14.086999893188477,46.14699935913086 31.979999542236328,69.90699768066406 25.81999969482422,79.58699798583984 C19.65999984741211,89.26699829101562 34.56700134277344,111.34100341796875 34.56700134277344,111.34100341796875"></path></g><g opacity="1" transform="matrix(1,0,0,1,204.55499267578125,20.447999954223633)"><path fill="rgb(209,209,209)" fill-opacity="1" d=" M-3.0269999504089355,11.440999984741211 C-3.0269999504089355,11.440999984741211 -3.0269999504089355,11.440999984741211 -3.0269999504089355,11.440999984741211 C-4.418000221252441,11.072999954223633 -5.255000114440918,9.633999824523926 -4.886000156402588,8.244000434875488 C-4.886000156402588,8.244000434875488 -0.16899999976158142,-9.581000328063965 -0.16899999976158142,-9.581000328063965 C0.20000000298023224,-10.972000122070312 1.6380000114440918,-11.809000015258789 3.0290000438690186,-11.440999984741211 C4.418000221252441,-11.072999954223633 5.255000114440918,-9.633999824523926 4.88700008392334,-8.244000434875488 C4.88700008392334,-8.244000434875488 0.17000000178813934,9.583000183105469 0.17000000178813934,9.583000183105469 C-0.1979999989271164,10.972000122070312 -1.6369999647140503,11.809000015258789 -3.0269999504089355,11.440999984741211z"></path></g></g></g></svg>